<svg width="24" height="25" viewBox="0 0 24 25" fill="none" xmlns="http://www.w3.org/2000/svg">
<path d="M10.869 17.1308C10.811 17.0743 10.563 16.8609 10.359 16.6622C9.076 15.4971 6.976 12.4576 6.335 10.8668C6.232 10.6252 6.014 10.0144 6 9.68802C6 9.3753 6.072 9.0772 6.218 8.79274C6.422 8.43814 6.743 8.15368 7.122 7.99781C7.385 7.89747 8.172 7.7416 8.186 7.7416C9.047 7.58573 10.446 7.5 11.992 7.5C13.465 7.5 14.807 7.58573 15.681 7.71335C15.695 7.72796 16.673 7.88383 17.008 8.05431C17.62 8.36702 18 8.97784 18 9.63151V9.68802C17.985 10.1137 17.605 11.009 17.591 11.009C16.949 12.5141 14.952 15.4834 13.625 16.6768C13.625 16.6768 13.284 17.0129 13.071 17.159C12.765 17.387 12.386 17.5 12.007 17.5C11.584 17.5 11.19 17.3724 10.869 17.1308Z" fill="#666666"/>
</svg>
