<svg width="20" height="21" viewBox="0 0 20 21" fill="none" xmlns="http://www.w3.org/2000/svg">
<path fill-rule="evenodd" clip-rule="evenodd" d="M6 2.5C5.44772 2.5 5 2.94772 5 3.5V4.5H4C2.89543 4.5 2 5.39543 2 6.5V16.5C2 17.6046 2.89543 18.5 4 18.5H16C17.1046 18.5 18 17.6046 18 16.5V6.5C18 5.39543 17.1046 4.5 16 4.5H15V3.5C15 2.94772 14.5523 2.5 14 2.5C13.4477 2.5 13 2.94772 13 3.5V4.5H7V3.5C7 2.94772 6.55228 2.5 6 2.5ZM6 7.5C5.44772 7.5 5 7.94772 5 8.5C5 9.05228 5.44772 9.5 6 9.5H14C14.5523 9.5 15 9.05228 15 8.5C15 7.94772 14.5523 7.5 14 7.5H6Z" fill="#808080"/>
</svg>
