<svg width="20" height="21" viewBox="0 0 20 21" fill="none" xmlns="http://www.w3.org/2000/svg">
<path d="M7 3.5C6.44772 3.5 6 3.94772 6 4.5C6 5.05228 6.44772 5.5 7 5.5H13C13.5523 5.5 14 5.05228 14 4.5C14 3.94772 13.5523 3.5 13 3.5H7Z" fill="#808080"/>
<path d="M4 7.5C4 6.94772 4.44772 6.5 5 6.5H15C15.5523 6.5 16 6.94772 16 7.5C16 8.05228 15.5523 8.5 15 8.5H5C4.44772 8.5 4 8.05228 4 7.5Z" fill="#808080"/>
<path d="M2 11.5C2 10.3954 2.89543 9.5 4 9.5H16C17.1046 9.5 18 10.3954 18 11.5V15.5C18 16.6046 17.1046 17.5 16 17.5H4C2.89543 17.5 2 16.6046 2 15.5V11.5Z" fill="#808080"/>
</svg>
