<?xml version="1.0" encoding="UTF-8"?>
<svg version="1.1" xmlns="http://www.w3.org/2000/svg" width="512" height="512">
<path d="M0 0 C0.96594086 0.00054382 1.93188171 0.00108765 2.92709351 0.00164795 C27.00051709 0.06377163 49.60532037 3.40415633 72.6875 10.375 C73.94022705 10.75132568 73.94022705 10.75132568 75.21826172 11.13525391 C107.83312052 21.18003613 137.77059584 39.16411811 162.6875 62.375 C164.07894666 63.58838219 165.47458639 64.79697803 166.875 66 C173.36860756 71.68840022 178.96278833 77.76478377 184.37109375 84.5 C185.86245378 86.3509966 187.37411746 88.18590849 188.91015625 90 C199.61874514 102.6916609 207.98069543 116.71057305 215.6875 131.375 C216.03522461 132.0256543 216.38294922 132.67630859 216.74121094 133.34667969 C227.91007442 154.49669337 234.99344915 178.82686133 238.6875 202.375 C238.87006348 203.53056396 239.05262695 204.68612793 239.24072266 205.87670898 C240.84105387 217.14671737 241.08666633 228.3157749 241.0625 239.6875 C241.06168427 241.13641129 241.06168427 241.13641129 241.06085205 242.61459351 C240.99872837 266.68801709 237.65834367 289.29282037 230.6875 312.375 C230.43661621 313.21015137 230.18573242 314.04530273 229.92724609 314.90576172 C219.88246387 347.52062052 201.89838189 377.45809584 178.6875 402.375 C177.47411781 403.76644666 176.26552197 405.16208639 175.0625 406.5625 C169.36914526 413.0617634 163.28883107 418.66269817 156.54296875 424.0703125 C154.75164427 425.51611475 152.97979794 426.98676159 151.23828125 428.4921875 C114.07519068 460.34626513 61.43149663 480.19920402 12.4765625 480.61328125 C11.51877396 480.6230751 10.56098541 480.63286896 9.57417297 480.64295959 C-48.02378516 481.11066779 -102.03063654 467.75870176 -147.3125 430.375 C-148.16835693 429.67141357 -148.16835693 429.67141357 -149.04150391 428.95361328 C-164.5839944 416.0983164 -182.15749659 400.68500682 -191.3125 382.375 C-191.81752343 376.84457948 -192.05057257 371.96469476 -189.6875 366.875 C-185.11384327 362.0606245 -182.0037538 360.12343764 -175.3125 359.875 C-170.08422965 359.82053885 -167.37543365 361.08771732 -163.3125 364.375 C-161.12194293 366.74345945 -159.15625004 369.2586097 -157.1875 371.8125 C-125.1880931 412.10838878 -81.22796222 437.35090788 -30.3125 445.375 C-29.24128906 445.5503125 -28.17007813 445.725625 -27.06640625 445.90625 C28.1972243 452.80701552 83.97724006 437.25160651 128.11767578 403.62207031 C131.65297248 400.81362622 134.95476962 397.7589083 138.2421875 394.66796875 C140.34000304 392.70084779 142.48230787 390.84361204 144.6875 389 C183.00845 355.3334164 203.64489389 302.58399682 207.29077148 252.62182617 C210.66091931 194.99456015 189.50627734 141.33954035 151.49267578 98.58544922 C115.33875111 58.67066486 63.15336854 36.93649119 9.96484375 33.625 C-43.0142935 31.07139413 -96.338588 49.74522231 -135.8125 85.1875 C-136.58464844 85.90679687 -137.35679687 86.62609375 -138.15234375 87.3671875 C-140.17788639 89.24987994 -142.25954391 91.03237061 -144.375 92.8125 C-157.30284913 104.13408331 -167.4945017 118.71790648 -176.3125 133.375 C-176.72000488 134.05159668 -177.12750977 134.72819336 -177.54736328 135.42529297 C-189.75852047 155.95262878 -199.49718478 179.49336056 -202.3125 203.375 C-201.76722656 202.76011719 -201.22195312 202.14523438 -200.66015625 201.51171875 C-195.79790978 196.30038792 -191.62980028 192.14590728 -184.3125 191.375 C-177.88763711 191.66268043 -173.75230006 193.82691213 -169.3125 198.375 C-167.2345716 201.65969782 -166.98655324 204.39441555 -166.9375 208.25 C-166.90914063 209.25804687 -166.88078125 210.26609375 -166.8515625 211.3046875 C-168.03383665 219.17983563 -175.3805495 224.73322322 -180.75 230.078125 C-181.6670874 230.99712585 -182.5841748 231.91612671 -183.52905273 232.86297607 C-185.46242695 234.79928567 -187.39933865 236.73196495 -189.33886719 238.66210938 C-191.82047347 241.13229002 -194.29294875 243.61138557 -196.76286316 246.09325027 C-199.12872135 248.46807986 -201.50217766 250.83525342 -203.875 253.203125 C-204.76050537 254.09267883 -205.64601074 254.98223267 -206.55834961 255.89874268 C-207.3860083 256.72009705 -208.21366699 257.54145142 -209.06640625 258.38769531 C-209.79158447 259.11128235 -210.5167627 259.83486938 -211.26391602 260.5803833 C-216.03765458 264.76231141 -220.23488614 264.82506645 -226.4140625 264.66796875 C-230.5754398 264.24734436 -232.30350174 263.31561193 -235.3125 260.375 C-242.6500514 251.11897366 -248.92623795 241.00360548 -255.39672852 231.13793945 C-257.26739822 228.28597523 -259.14217182 225.43674186 -261.01757812 222.58789062 C-262.20857013 220.77619731 -263.39933386 218.96435391 -264.58984375 217.15234375 C-265.43034523 215.87435158 -265.43034523 215.87435158 -266.28782654 214.57054138 C-266.80248978 213.78534622 -267.31715302 213.00015106 -267.84741211 212.19116211 C-268.52736488 211.15505043 -268.52736488 211.15505043 -269.22105408 210.0980072 C-272.30612475 205.22777142 -271.83441344 199.99108263 -271.3125 194.375 C-269.03246652 189.46415865 -266.075885 186.89679206 -261.3125 184.375 C-255.46319337 182.71953586 -250.60388574 183.52208528 -245.3125 186.375 C-242.9942412 188.50719465 -241.19589966 190.86380045 -239.3125 193.375 C-238.32095914 194.38338818 -237.32200423 195.38459543 -236.3125 196.375 C-236.17787354 195.74859619 -236.04324707 195.12219238 -235.90454102 194.47680664 C-227.42001374 155.64662265 -212.08001271 118.98186587 -186.3125 88.375 C-185.83458008 87.7970166 -185.35666016 87.2190332 -184.86425781 86.62353516 C-174.6925722 74.32297006 -163.91930784 63.20935632 -151.3125 53.375 C-150.32894531 52.58609375 -149.34539062 51.7971875 -148.33203125 50.984375 C-119.35634277 27.93791602 -85.29764327 12.28613056 -49.125 4.625 C-48.18817383 4.42624268 -47.25134766 4.22748535 -46.28613281 4.02270508 C-30.81525126 0.90796857 -15.73924778 -0.03344787 0 0 Z " fill="#000000" transform="translate(271.3125,15.625)"/>
<path d="M0 0 C4.63845438 2.1535681 8.08824583 5.19675287 10 10 C10.58377842 14.57134794 10.50477403 19.1137371 10.45410156 23.71630859 C10.45297236 25.11619026 10.45360838 26.5160743 10.45587158 27.91595459 C10.45701682 31.70494365 10.43353889 35.49342373 10.40557575 39.28229475 C10.38053009 43.24608227 10.37821761 47.20988213 10.37347412 51.17373657 C10.3610536 58.67475087 10.32824463 66.17553131 10.28807616 73.67644274 C10.24332959 82.21810334 10.22136418 90.75977525 10.20129442 99.30152392 C10.15951107 116.86781777 10.08917714 134.43388414 10 152 C10.93082901 152.45508942 10.93082901 152.45508942 11.88046265 152.91937256 C14.07053972 154.03596405 15.93636933 155.3075648 17.9140625 156.765625 C18.66558594 157.31863281 19.41710937 157.87164062 20.19140625 158.44140625 C21.39603516 159.33666016 21.39603516 159.33666016 22.625 160.25 C23.46675781 160.87261719 24.30851562 161.49523437 25.17578125 162.13671875 C31.60250817 166.91113322 37.92824738 171.80580336 44.22705078 176.74707031 C49.57970831 180.93265962 55.0142716 184.99078946 60.5 189 C67.66519141 194.23731744 74.7130782 199.60370366 81.6940918 205.08398438 C86.01253111 208.47129784 90.37928477 211.76451163 94.8125 215 C104.90920722 222.62147567 104.90920722 222.62147567 106 229.9375 C106.30993042 236.00848993 104.50826459 239.94327556 100.9375 244.8125 C96.91612164 247.80714346 93.02592913 249.05433437 88 249 C80.96893694 247.55658689 76.0675384 244.20040269 70.625 239.6875 C69.04215684 238.41573488 67.45746253 237.14627087 65.87109375 235.87890625 C65.06526855 235.23195801 64.25944336 234.58500977 63.42919922 233.91845703 C59.58917303 230.88580118 55.64229889 228.0053857 51.6875 225.125 C44.89738587 220.16084008 38.17848714 215.11332217 31.5 210 C24.8805773 204.93334132 18.22373821 199.92736259 11.5 195 C9.16829039 193.28387756 6.83770716 191.56624191 4.5078125 189.84765625 C2.73359769 188.54048553 0.95735384 187.23606673 -0.8203125 185.93359375 C-3.72278344 183.8012451 -6.61234892 181.65236038 -9.5 179.5 C-10.40298828 178.84128906 -11.30597656 178.18257812 -12.23632812 177.50390625 C-13.07615234 176.87355469 -13.91597656 176.24320313 -14.78125 175.59375 C-15.52439453 175.04396484 -16.26753906 174.49417969 -17.03320312 173.92773438 C-20.29223675 170.73342833 -21.83534506 167.36715898 -22.38031673 162.84216309 C-22.38274663 161.70508911 -22.38517653 160.56801514 -22.38768005 159.39648438 C-22.39758469 158.08429932 -22.40748932 156.77211426 -22.41769409 155.42016602 C-22.41345656 153.9780264 -22.40889875 152.5358877 -22.40405273 151.09375 C-22.40975878 149.56566876 -22.41672395 148.03759177 -22.42485046 146.50952148 C-22.44276967 142.36904845 -22.44161604 138.22878749 -22.43590808 134.08828735 C-22.43281491 130.62895943 -22.43891 127.16967217 -22.44494683 123.71035004 C-22.45898592 115.54905303 -22.45743546 107.38786072 -22.44604492 99.2265625 C-22.43455969 90.81153296 -22.44864748 82.39682198 -22.4754414 73.98183441 C-22.49760119 66.75108345 -22.50423529 59.52043247 -22.49836498 52.28964996 C-22.49499542 47.97353993 -22.49741059 43.65763416 -22.51461601 39.34155273 C-22.53008799 35.28337528 -22.52612715 31.22566981 -22.50731087 27.16751099 C-22.50362588 25.68002411 -22.50673092 24.19250223 -22.51719666 22.70504761 C-22.53041192 20.67123956 -22.51644766 18.63730949 -22.50120544 16.60351562 C-22.50089152 14.89790466 -22.50089152 14.89790466 -22.50057125 13.15783691 C-21.70629502 8.14717199 -19.11042291 5.05490177 -15.5 1.625 C-10.33499991 -0.77303575 -5.5997712 -0.75381535 0 0 Z " fill="#000000" transform="translate(270,104)"/>
</svg>
