<svg width="22" height="22" viewBox="0 0 22 22" fill="none" xmlns="http://www.w3.org/2000/svg">
<g clip-path="url(#clip0_395_148)">
<mask id="mask0_395_148" style="mask-type:luminance" maskUnits="userSpaceOnUse" x="-1" y="0" width="23" height="22">
<path d="M-0.000244141 0.785706H21.6475V21.1526H-0.000244141V0.785706Z" fill="white"/>
</mask>
<g mask="url(#mask0_395_148)">
<path d="M11.4996 0.821777C9.10158 0.821945 6.78126 1.67126 4.94953 3.2191C3.11801 4.76694 1.89394 6.9135 1.49412 9.27803L1.23698 8.89585H1.23715C1.1017 8.69528 0.869737 8.58215 0.628205 8.5991C0.386845 8.61589 0.172829 8.7604 0.066784 8.97793C-0.0392613 9.19545 -0.0211677 9.45294 0.114117 9.65352L1.4671 11.6829V11.6831C1.57838 11.8523 1.75965 11.9627 1.96089 11.984H2.02853C2.20779 11.9833 2.37932 11.9115 2.50556 11.7844L4.19674 10.0933C4.36778 9.92223 4.43458 9.67315 4.37197 9.4395C4.30936 9.20586 4.12692 9.02342 3.89326 8.9608C3.65979 8.89819 3.41056 8.96499 3.2395 9.13603L2.82006 9.55882C3.18109 7.33724 4.38019 5.33854 6.17041 3.97426C7.96064 2.60998 10.2059 1.98432 12.4438 2.2255C14.6816 2.46686 16.7419 3.55699 18.1998 5.27155C19.658 6.98606 20.4032 9.19458 20.2822 11.4422C20.1614 13.6898 19.1832 15.8052 17.5494 17.3533C15.9154 18.9015 13.7502 19.7642 11.4994 19.7639C10.1592 19.7883 8.83276 19.4885 7.63318 18.8901C6.43359 18.2917 5.3963 17.4126 4.60947 16.3273C4.46932 16.1302 4.23467 16.0232 3.99399 16.046C3.7533 16.069 3.54317 16.2185 3.44262 16.4384C3.34209 16.6583 3.36659 16.9151 3.50674 17.112C4.41797 18.374 5.62056 19.397 7.01217 20.0942C8.40377 20.7916 9.94324 21.1424 11.4993 21.1169C14.1905 21.1169 16.7715 20.0477 18.6746 18.1447C20.5776 16.2417 21.6466 13.6606 21.6466 10.9695C21.6466 8.27807 20.5776 5.69727 18.6746 3.79422C16.7716 1.8912 14.1904 0.822027 11.4993 0.822027L11.4996 0.821777Z" fill="#021024"/>
</g>
<path d="M11.3378 4.5603C11.1583 4.5603 10.9863 4.63144 10.8594 4.75797C10.7325 4.88434 10.6612 5.05607 10.6612 5.235V11.3066V11.3504C10.6598 11.3752 10.6598 11.4 10.6612 11.4246V11.4854C10.6669 11.5069 10.6738 11.5284 10.6815 11.5495L10.7085 11.6069L10.7389 11.6643L10.7761 11.7182L10.8168 11.7687L10.8708 11.8193L10.9012 11.8496L14.9602 14.8853C15.1535 15.0299 15.4096 15.0607 15.6321 14.9661C15.8543 14.8714 16.009 14.6657 16.0379 14.4263C16.0668 14.1871 15.9656 13.9506 15.7722 13.806L12.0142 10.9693V5.23537C12.0142 5.05644 11.943 4.88472 11.8161 4.75834C11.6892 4.63181 11.5172 4.5603 11.3378 4.5603Z" fill="#021024"/>
</g>
<defs>
<clipPath id="clip0_395_148">
<rect width="21.9997" height="21.9383" fill="white"/>
</clipPath>
</defs>
</svg>
