<svg width="240" height="171" viewBox="0 0 240 171" fill="none" xmlns="http://www.w3.org/2000/svg">
<path d="M105 12.0635C89.1421 4.33585 71.3274 0 52.5 0C33.6726 0 15.8579 4.33585 0 12.0635V162.064C15.8579 154.336 33.6726 150 52.5 150C77.5291 150 100.768 157.663 120 170.77C139.232 157.663 162.471 150 187.5 150C206.327 150 224.142 154.336 240 162.064V12.0635C224.142 4.33585 206.327 0 187.5 0C168.673 0 150.858 4.33585 135 12.0635V120C135 128.284 128.284 135 120 135C111.716 135 105 128.284 105 120V12.0635Z" fill="#052659"/>
</svg>
