<svg width="354" height="298" viewBox="0 0 354 298" fill="none" xmlns="http://www.w3.org/2000/svg">
<path d="M55.1759 270.949C123.467 306.627 234.194 306.627 302.493 270.949C370.792 235.271 370.784 177.43 302.493 141.752C234.202 106.074 123.467 106.065 55.1677 141.752C-13.1316 177.438 -13.1235 235.271 55.1759 270.949Z" fill="#FAFAFA"/>
<path d="M235.979 277.503C249.786 277.503 260.979 272.167 260.979 265.585C260.979 259.004 249.786 253.668 235.979 253.668C222.172 253.668 210.979 259.004 210.979 265.585C210.979 272.167 222.172 277.503 235.979 277.503Z" fill="#F0F0F0"/>
<path d="M40.4873 59.5054V100.506C40.4873 101.851 41.4328 102.405 42.6066 101.729L137.797 46.765C138.413 46.3625 138.926 45.8208 139.294 45.1836C139.662 44.5465 139.875 43.8317 139.916 43.097V2.06358C139.916 0.718621 138.963 0.164336 137.797 0.84089L42.6066 55.8048C41.985 56.2091 41.4685 56.7556 41.1 57.3991C40.7314 58.0426 40.5214 58.7647 40.4873 59.5054Z" fill="#F0F0F0"/>
<path d="M47.1144 58.8615L75.6437 42.396C76.9561 41.6379 78.0076 42.2492 78.0076 43.7572V72.4252C77.9629 73.2428 77.7254 74.0382 77.3146 74.7465C76.9037 75.4549 76.3312 76.056 75.6437 76.5008L47.1144 92.9745C45.8102 93.7244 44.7505 93.1131 44.7505 91.6051V62.9534C44.7947 62.1335 45.0318 61.3355 45.4425 60.6245C45.8533 59.9134 46.4261 59.3094 47.1144 58.8615Z" fill="#FAFAFA"/>
<path d="M70.215 56.7014L61.7296 74.2918L57.4094 71.7975C56.9946 71.5706 56.5079 71.5135 56.0518 71.6382C55.5957 71.7628 55.2058 72.0596 54.964 72.4659L44.7505 90.0808V91.6214C44.7505 93.1293 45.8102 93.7407 47.1144 92.9908L75.6437 76.5171C76.3299 76.0708 76.9013 75.4694 77.312 74.7614C77.7226 74.0533 77.9609 73.2586 78.0076 72.4415V62.3584L72.3017 56.3754C72.1743 56.1972 71.9999 56.0579 71.7979 55.9731C71.5959 55.8883 71.3743 55.8613 71.1579 55.8951C70.9414 55.9289 70.7386 56.0222 70.5721 56.1646C70.4056 56.307 70.282 56.4928 70.215 56.7014Z" fill="#052659"/>
<path d="M49.038 69.3522C50.8008 68.2024 52.2678 66.6534 53.3201 64.8307C54.3724 63.008 54.9802 60.963 55.0944 58.8615C55.0944 57.0927 54.5238 55.8129 53.5865 55.1282L47.1144 58.8615C46.4282 59.3078 45.8568 59.9092 45.4461 60.6173C45.0355 61.3253 44.7972 62.12 44.7505 62.9371V69.7597C45.8672 70.4118 47.367 70.314 49.038 69.3522Z" fill="#052659"/>
<path d="M88.6531 37.5623L131.521 12.8069C132.499 12.2445 133.289 12.6439 133.289 13.7036C133.246 14.2974 133.064 14.8727 132.756 15.3826C132.449 15.8925 132.026 16.3226 131.521 16.638L88.6531 41.3852C87.6749 41.9476 86.8843 41.5482 86.8843 40.4886C86.9286 39.8962 87.1118 39.3225 87.4191 38.8141C87.7264 38.3057 88.1492 37.8769 88.6531 37.5623Z" fill="#FAFAFA"/>
<path d="M88.6531 46.0314L131.521 21.2761C132.499 20.7136 133.289 21.113 133.289 22.1727C133.246 22.7665 133.064 23.3418 132.756 23.8517C132.449 24.3616 132.026 24.7918 131.521 25.1072L88.6531 49.8544C87.6749 50.4168 86.8843 50.0174 86.8843 48.9659C86.9273 48.3721 87.11 47.7968 87.4173 47.2869C87.7247 46.7769 88.1481 46.3468 88.6531 46.0314Z" fill="#FAFAFA"/>
<path d="M88.6531 54.5006L131.521 29.7534C132.499 29.1909 133.289 29.5903 133.289 30.6419C133.246 31.2357 133.064 31.811 132.756 32.3209C132.449 32.8308 132.026 33.2609 131.521 33.5763L88.6531 58.3235C87.6749 58.8941 86.8843 58.4947 86.8843 57.435C86.9273 56.8412 87.11 56.2659 87.4173 55.756C87.7247 55.2461 88.1481 54.816 88.6531 54.5006Z" fill="#FAFAFA"/>
<path d="M88.6531 62.9697L131.521 38.2225C132.499 37.6601 133.289 38.0595 133.289 39.1192C133.245 39.7116 133.062 40.2852 132.755 40.7936C132.447 41.302 132.024 41.7309 131.521 42.0455L88.6531 66.8416C87.6749 67.404 86.8843 67.0046 86.8843 65.9449C86.921 65.344 87.1007 64.7606 87.4084 64.2431C87.716 63.7256 88.1428 63.2891 88.6531 62.9697Z" fill="#FAFAFA"/>
<path d="M20.5983 188.507V128.343C20.6374 127.608 20.8498 126.892 21.2181 126.255C21.5865 125.617 22.1002 125.076 22.7176 124.675L94.7095 83.1033C95.8751 82.4268 96.8288 82.9729 96.8288 84.326V144.49C96.7877 145.225 96.5745 145.94 96.2063 146.577C95.8382 147.214 95.3254 147.756 94.7095 148.158L22.7176 189.73C21.5438 190.406 20.5983 189.86 20.5983 188.507Z" fill="#F0F0F0"/>
<path d="M20.5983 185.499V188.507C20.5983 189.86 21.5438 190.406 22.7176 189.73L94.7095 148.158C95.3254 147.756 95.8382 147.214 96.2063 146.577C96.5745 145.94 96.7877 145.225 96.8288 144.49V141.474L20.5983 185.499Z" fill="#052659"/>
<path d="M55.4286 130.935L62.7648 130.552C63.6614 130.503 63.9059 131.008 63.3109 131.693L54.8825 141.279C54.2874 141.955 53.8065 141.768 53.8065 140.871V132.655C53.8097 132.216 53.9787 131.795 54.2796 131.476C54.5805 131.157 54.991 130.964 55.4286 130.935Z" fill="#052659"/>
<path d="M53.5375 146.536C52.6584 146.548 51.792 146.326 51.0269 145.892C49.2174 144.841 48.2229 142.632 48.2229 139.746C48.2229 133.861 52.3719 126.704 57.4746 123.729C59.9933 122.27 62.3653 122.05 64.1912 123.093C66.0171 124.137 67.0034 126.354 67.0034 129.231C67.0034 135.125 62.8463 142.273 57.7517 145.248C56.4836 146.039 55.0306 146.483 53.5375 146.536ZM61.6888 123.004C60.2956 123.059 58.9411 123.477 57.7599 124.218C52.8121 127.071 48.7935 134.04 48.7935 139.746C48.7935 142.453 49.6901 144.466 51.3204 145.403C52.9506 146.341 55.1352 146.121 57.4746 144.768C62.4224 141.906 66.441 134.986 66.441 129.231C66.441 126.525 65.5443 124.52 63.9141 123.574C63.232 123.193 62.4621 122.996 61.6806 123.004H61.6888Z" fill="#052659"/>
<path d="M24.5679 72.4333L20.1091 69.8738C17.9817 68.4474 15.0228 68.5044 11.7541 70.3955C5.23311 74.1451 0 83.6576 0 91.6458V93.4636C0 101.452 10.7434 110.125 10.7434 110.125L15.1287 112.611C15.1287 112.611 12.4959 109.603 12.7975 108.984C15.7075 103.082 23.4919 86.4046 23.4919 79.8836V78.0659C23.5084 76.7503 23.3411 75.4388 22.9947 74.1696L23.4919 74.4548L24.5679 72.4333ZM11.746 90.7492C8.48545 92.624 5.8689 91.0997 5.8689 87.3583C7.61327 87.0811 12.0068 79.582 11.746 77.1774C15.0065 75.3026 17.6149 76.8269 17.623 80.5683C17.5125 82.6078 16.9228 84.5925 15.9017 86.3614C14.8806 88.1303 13.4568 89.6336 11.746 90.7492Z" fill="#052659"/>
<g opacity="0.2">
<path d="M24.5679 72.4333L20.1091 69.8738C17.9817 68.4474 15.0228 68.5044 11.7541 70.3955C5.23311 74.1451 0 83.6576 0 91.6458V93.4636C0 101.452 10.7434 110.125 10.7434 110.125L15.1287 112.611C15.1287 112.611 12.4959 109.603 12.7975 108.984C15.7075 103.082 23.4919 86.4046 23.4919 79.8836V78.0659C23.5084 76.7503 23.3411 75.4388 22.9947 74.1696L23.4919 74.4548L24.5679 72.4333ZM11.746 90.7492C8.48545 92.624 5.8689 91.0997 5.8689 87.3583C7.61327 87.0811 12.0068 79.582 11.746 77.1774C15.0065 75.3026 17.6149 76.8269 17.623 80.5683C17.5125 82.6078 16.9228 84.5925 15.9017 86.3614C14.8806 88.1303 13.4568 89.6336 11.746 90.7492Z" fill="black"/>
</g>
<path d="M24.5679 72.4333C24.5191 72.3987 24.4673 72.3687 24.413 72.3437C22.3181 71.1699 19.5222 71.3329 16.4411 73.1099C11.7949 75.7998 7.77628 81.4323 5.84444 87.3583C5.09738 89.6129 4.70149 91.9689 4.67065 94.3439V96.1861C4.67065 102.34 11.64 109.481 14.8434 112.44C14.9127 112.502 14.9863 112.559 15.0635 112.611C15.2519 112.726 15.4623 112.801 15.6813 112.83C15.9002 112.859 16.1229 112.842 16.3348 112.78C16.5468 112.718 16.7433 112.612 16.9119 112.469C17.0804 112.326 17.2171 112.149 17.3133 111.951C20.0847 106.245 28.1463 89.2249 28.1463 82.6061V80.7884C28.1952 76.6801 26.8013 73.7783 24.5679 72.4333ZM10.67 91.2464C10.6023 90.8589 10.5696 90.466 10.5722 90.0726C10.6798 88.0323 11.2674 86.0462 12.2872 84.2757C13.307 82.5053 14.7302 81.0004 16.4411 79.8836C16.7828 79.6867 17.1399 79.5177 17.5089 79.3782C20.2477 78.3837 22.3181 79.9569 22.3181 83.2745C22.2083 85.313 21.6188 87.2968 20.5976 89.0645C19.5764 90.8322 18.1522 92.3339 16.4411 93.4473C13.5637 95.1264 11.1672 94.1157 10.67 91.2464Z" fill="#052659"/>
<path d="M22.3182 83.2827C22.2084 85.3212 21.6189 87.305 20.5977 89.0727C19.5764 90.8404 18.1523 92.342 16.4411 93.4554C13.5637 95.0857 11.1673 94.1157 10.67 91.2464C11.0436 91.115 11.4038 90.9485 11.746 90.7492C13.4558 89.6331 14.8783 88.1296 15.8981 86.3607C16.9178 84.5917 17.506 82.6072 17.6149 80.5683C17.6186 80.1718 17.5831 79.7759 17.5089 79.3864C20.2478 78.3919 22.3182 79.9651 22.3182 83.2827Z" fill="#052659"/>
<g opacity="0.2">
<path d="M22.3182 83.2827C22.2084 85.3212 21.6189 87.305 20.5977 89.0727C19.5764 90.8404 18.1523 92.342 16.4411 93.4554C13.5637 95.0857 11.1673 94.1157 10.67 91.2464C11.0436 91.115 11.4038 90.9485 11.746 90.7492C13.4558 89.6331 14.8783 88.1296 15.8981 86.3607C16.9178 84.5917 17.506 82.6072 17.6149 80.5683C17.6186 80.1718 17.5831 79.7759 17.5089 79.3864C20.2478 78.3919 22.3182 79.9651 22.3182 83.2827Z" fill="black"/>
</g>
<path d="M107.963 184.489C107.963 184.489 110.906 165.741 104.369 149.618C97.8314 133.494 89.0199 132.5 84.4551 134.79C79.8904 137.081 82.8249 146.023 86.9005 152.03C92.3293 159.913 101.296 176.883 101.002 192.126L107.963 184.489Z" fill="#052659"/>
<path opacity="0.2" d="M107.963 184.489C107.963 184.489 110.906 165.741 104.369 149.618C97.8314 133.494 89.0199 132.5 84.4551 134.79C79.8904 137.081 82.8249 146.023 86.9005 152.03C92.3293 159.913 101.296 176.883 101.002 192.126L107.963 184.489Z" fill="black"/>
<path d="M105.029 185.679C104.956 185.677 104.884 185.66 104.817 185.629C104.751 185.599 104.691 185.556 104.641 185.502C104.592 185.448 104.554 185.384 104.529 185.315C104.505 185.246 104.495 185.173 104.499 185.1C105.575 159.432 92.7531 140.268 87.2184 136.535C87.1579 136.494 87.1061 136.442 87.0658 136.381C87.0254 136.32 86.9975 136.252 86.9835 136.181C86.9695 136.109 86.9697 136.036 86.9841 135.964C86.9986 135.893 87.0269 135.825 87.0676 135.764C87.1083 135.704 87.1605 135.652 87.2212 135.612C87.2819 135.572 87.35 135.544 87.4215 135.53C87.4931 135.516 87.5666 135.516 87.6381 135.53C87.7095 135.545 87.7774 135.573 87.8379 135.614C94.3589 139.966 106.684 159.562 105.599 185.149C105.597 185.221 105.581 185.293 105.551 185.359C105.521 185.425 105.478 185.484 105.425 185.533C105.372 185.583 105.31 185.621 105.242 185.646C105.174 185.671 105.101 185.682 105.029 185.679Z" fill="white"/>
<path d="M106.806 206.75C105.689 203.946 102.804 200.816 95.3941 197.474C87.9846 194.132 82.4092 189.673 81.3821 186.445C81.0731 185.553 81.0327 184.59 81.266 183.676C81.4993 182.762 81.996 181.936 82.6945 181.301C82.6945 181.301 75.7089 180.486 74.8285 176.207C73.7281 170.811 79.8334 170.46 79.8334 170.46C79.8334 170.46 71.8207 159.179 69.6932 154.158C67.5658 149.137 70.0193 148.835 75.1872 150.751C80.3551 152.666 90.2018 162.309 91.7261 165.252C91.7261 165.252 94.3915 161.991 97.2608 164.135C100.13 166.279 100.269 172.694 98.5731 175.009C99.7165 174.796 100.897 174.919 101.972 175.363C103.047 175.807 103.97 176.553 104.629 177.511C107.548 181.334 108.509 190.895 108.509 190.895L106.806 206.75Z" fill="#052659"/>
<path d="M107.328 204.141C107.204 204.14 107.084 204.097 106.987 204.021C106.889 203.944 106.82 203.837 106.79 203.717C102.828 187.211 84.0232 160.866 72.3424 152.487C72.283 152.445 72.2325 152.391 72.1938 152.329C72.1551 152.267 72.129 152.199 72.1168 152.127C72.1047 152.055 72.1069 151.981 72.1232 151.91C72.1396 151.839 72.1697 151.772 72.212 151.712C72.2543 151.653 72.3079 151.603 72.3697 151.564C72.4315 151.525 72.5003 151.499 72.5722 151.487C72.6441 151.475 72.7177 151.477 72.7887 151.493C72.8598 151.51 72.927 151.54 72.9864 151.582C84.8138 160.067 103.855 186.747 107.874 203.457C107.906 203.6 107.88 203.751 107.802 203.876C107.725 204.001 107.601 204.09 107.458 204.125L107.328 204.141Z" fill="white"/>
<path d="M254.873 37.9291C254.776 37.9279 254.681 37.9027 254.596 37.8557L252.306 36.5271C252.243 36.4907 252.187 36.4422 252.143 36.3844C252.098 36.3266 252.066 36.2606 252.047 36.1902C252.028 36.1199 252.023 36.0464 252.033 35.9741C252.042 35.9019 252.066 35.8322 252.102 35.769C252.138 35.7059 252.187 35.6505 252.245 35.6061C252.302 35.5616 252.368 35.529 252.439 35.5101C252.509 35.4912 252.583 35.4863 252.655 35.4958C252.727 35.5052 252.797 35.5288 252.86 35.5652L255.151 36.8939C255.214 36.9302 255.269 36.9786 255.314 37.0364C255.358 37.0942 255.391 37.1602 255.41 37.2306C255.429 37.301 255.434 37.3745 255.424 37.4468C255.415 37.5191 255.391 37.5888 255.354 37.6519C255.306 37.7363 255.235 37.8064 255.151 37.8551C255.067 37.9037 254.971 37.9292 254.873 37.9291Z" fill="white"/>
<path d="M106.806 86.2579V207.532C106.806 208.885 107.751 209.431 108.917 208.755L250.374 127.087C250.99 126.685 251.503 126.143 251.871 125.506C252.239 124.869 252.452 124.154 252.493 123.419V2.14509C252.493 0.791982 251.54 0.245848 250.374 0.922401L108.917 82.5898C108.302 82.9923 107.79 83.5342 107.423 84.1715C107.056 84.8088 106.845 85.5236 106.806 86.2579Z" fill="#455A64"/>
<path d="M123.361 108.658C123.361 112.888 126.516 114.486 130.42 112.236L242.557 47.4905V32.1988L130.42 96.936C126.516 99.1939 123.361 104.435 123.361 108.658Z" fill="#F5F5F5"/>
<path d="M252.094 26.713C255.99 24.4632 259.153 26.0609 259.153 30.2832C259.153 34.5056 255.99 39.755 252.094 42.0047L242.598 47.4905V32.1988L252.094 26.713Z" fill="#052659"/>
<path d="M248.67 39.6001C248.264 39.6059 247.864 39.5016 247.513 39.2985C247.08 39.0086 246.733 38.6072 246.509 38.1366C246.285 37.666 246.193 37.1437 246.241 36.6249C246.3 35.3491 246.664 34.1059 247.302 32.9996C247.94 31.8934 248.834 30.9563 249.909 30.2669C250.32 29.9321 250.822 29.7302 251.351 29.6881C251.879 29.646 252.407 29.7656 252.865 30.031C253.324 30.2965 253.69 30.6952 253.917 31.1742C254.143 31.6532 254.218 32.1896 254.132 32.7123C254.071 33.9876 253.707 35.2301 253.069 36.336C252.43 37.4419 251.537 38.3794 250.464 39.0703C249.923 39.4009 249.304 39.5836 248.67 39.6001ZM251.694 30.8375C251.257 30.8591 250.833 30.9939 250.464 31.2288C249.563 31.8269 248.814 32.6253 248.274 33.5614C247.733 34.4976 247.417 35.5461 247.35 36.6249C247.266 36.9495 247.29 37.2927 247.42 37.602C247.55 37.9112 247.778 38.1693 248.068 38.3368C248.359 38.5043 248.696 38.5718 249.029 38.5291C249.361 38.4864 249.671 38.3357 249.909 38.1003C250.811 37.5031 251.561 36.7049 252.101 35.7685C252.641 34.8322 252.957 33.7832 253.023 32.7041C253.065 32.3809 253.021 32.0524 252.895 31.7518C252.769 31.4512 252.566 31.1892 252.306 30.9924C252.12 30.8859 251.909 30.8324 251.694 30.8375Z" fill="white"/>
<path d="M253.724 60.182L145.312 122.735C144.694 123.135 144.18 123.676 143.811 124.314C143.443 124.951 143.231 125.667 143.193 126.403V159.766C143.193 161.119 144.139 161.665 145.312 160.989L253.724 98.4114C254.341 98.0103 254.855 97.4689 255.224 96.8314C255.592 96.194 255.804 95.4785 255.843 94.7433V61.4047C255.803 60.0516 254.857 59.5055 253.724 60.182Z" fill="#052659"/>
<path opacity="0.2" d="M253.724 60.182L145.312 122.735C144.694 123.135 144.18 123.676 143.811 124.314C143.443 124.951 143.231 125.667 143.193 126.403V159.766C143.193 161.119 144.139 161.665 145.312 160.989L253.724 98.4114C254.341 98.0103 254.855 97.4689 255.224 96.8314C255.592 96.194 255.804 95.4785 255.843 94.7433V61.4047C255.803 60.0516 254.857 59.5055 253.724 60.182Z" fill="white"/>
<path d="M184.724 105.544L204.368 94.1972C205.346 93.6347 206.137 94.0342 206.137 95.0938C206.093 95.6862 205.91 96.2599 205.602 96.7683C205.295 97.2767 204.872 97.7055 204.368 98.0201L184.724 109.367C183.746 109.929 182.955 109.53 182.955 108.47C182.999 107.878 183.183 107.304 183.49 106.796C183.797 106.287 184.22 105.858 184.724 105.544Z" fill="white"/>
<path d="M182.955 116.116C182.955 117.176 183.77 117.575 184.724 117.013L244.106 82.7284C244.609 82.4116 245.03 81.9809 245.336 81.4712C245.642 80.9614 245.824 80.3868 245.866 79.7939C245.866 78.7424 245.051 78.343 244.106 78.9054L184.724 113.19C184.22 113.504 183.797 113.933 183.49 114.441C183.183 114.95 182.999 115.523 182.955 116.116Z" fill="white"/>
<path d="M182.955 123.762C182.955 124.821 183.77 125.221 184.724 124.658L244.106 90.3742C244.609 90.0575 245.03 89.6268 245.336 89.117C245.642 88.6073 245.824 88.0327 245.866 87.4398C245.866 86.3883 245.051 85.9889 244.106 86.5513L184.724 120.835C184.22 121.15 183.797 121.579 183.49 122.087C183.183 122.596 182.999 123.169 182.955 123.762Z" fill="white"/>
<path d="M182.955 131.408C182.955 132.467 183.77 132.867 184.724 132.304L244.106 98.0201C244.609 97.7033 245.03 97.2727 245.336 96.7629C245.642 96.2531 245.824 95.6786 245.866 95.0857C245.866 94.0341 245.051 93.6347 244.106 94.1972L184.724 128.481C184.22 128.796 183.797 129.225 183.49 129.733C183.183 130.242 182.999 130.815 182.955 131.408Z" fill="white"/>
<path d="M148.654 124.642L174.217 109.88C175.391 109.212 176.336 109.758 176.336 111.103V136.804C176.296 137.539 176.084 138.254 175.715 138.891C175.347 139.529 174.834 140.07 174.217 140.472L148.654 155.226C147.489 155.902 146.535 155.356 146.535 154.011V128.31C146.574 127.575 146.787 126.859 147.155 126.222C147.523 125.585 148.037 125.043 148.654 124.642Z" fill="white"/>
<path d="M169.359 122.71L161.754 138.475L157.882 136.241C157.508 136.026 157.063 135.967 156.646 136.079C156.229 136.19 155.873 136.463 155.656 136.836L146.535 152.625V154.003C146.535 155.356 147.489 155.902 148.654 155.226L174.217 140.472C174.834 140.071 175.348 139.529 175.716 138.892C176.085 138.254 176.297 137.539 176.336 136.804V127.78L171.193 122.417C171.076 122.267 170.922 122.151 170.745 122.082C170.568 122.012 170.376 121.991 170.189 122.021C170.001 122.051 169.826 122.131 169.68 122.252C169.533 122.373 169.423 122.532 169.359 122.71Z" fill="#052659"/>
<path d="M150.374 134.049C151.955 133.018 153.27 131.629 154.213 129.994C155.156 128.36 155.701 126.526 155.803 124.642C155.857 124.017 155.763 123.387 155.528 122.805C155.293 122.223 154.923 121.704 154.45 121.292L148.654 124.642C148.037 125.043 147.523 125.585 147.155 126.222C146.787 126.859 146.574 127.575 146.535 128.31V134.424C147.521 134.994 148.875 134.913 150.374 134.049Z" fill="#052659"/>
<path d="M253.724 109.88L145.312 172.433C144.695 172.834 144.181 173.375 143.813 174.013C143.445 174.65 143.232 175.366 143.193 176.101V209.488C143.193 210.833 144.139 211.38 145.312 210.711L253.724 148.118C254.341 147.717 254.855 147.175 255.224 146.538C255.592 145.9 255.804 145.185 255.843 144.45V111.103C255.803 109.758 254.857 109.228 253.724 109.88Z" fill="#052659"/>
<path opacity="0.2" d="M253.724 109.88L145.312 172.433C144.695 172.834 144.181 173.375 143.813 174.013C143.445 174.65 143.232 175.366 143.193 176.101V209.488C143.193 210.833 144.139 211.38 145.312 210.711L253.724 148.118C254.341 147.717 254.855 147.175 255.224 146.538C255.592 145.9 255.804 145.185 255.843 144.45V111.103C255.803 109.758 254.857 109.228 253.724 109.88Z" fill="white"/>
<path d="M184.724 155.242L204.368 143.904C205.346 143.341 206.137 143.74 206.137 144.792C206.094 145.386 205.911 145.961 205.604 146.471C205.297 146.981 204.873 147.411 204.368 147.726L184.724 159.065C183.746 159.627 182.955 159.228 182.955 158.176C182.998 157.583 183.181 157.007 183.488 156.497C183.795 155.987 184.219 155.557 184.724 155.242Z" fill="white"/>
<path d="M182.955 165.822C182.955 166.874 183.77 167.273 184.724 166.711L244.106 132.427C244.608 132.111 245.028 131.681 245.334 131.173C245.64 130.665 245.822 130.092 245.866 129.5C245.866 128.441 245.051 128.041 244.106 128.604L184.724 162.888C184.219 163.203 183.795 163.633 183.488 164.143C183.181 164.653 182.998 165.228 182.955 165.822Z" fill="white"/>
<path d="M182.955 173.468C182.955 174.52 183.77 174.919 184.724 174.357L244.106 140.072C244.608 139.756 245.028 139.327 245.334 138.819C245.64 138.311 245.822 137.738 245.866 137.146C245.866 136.086 245.051 135.687 244.106 136.249L184.724 170.534C184.219 170.849 183.795 171.279 183.488 171.789C183.181 172.299 182.998 172.874 182.955 173.468Z" fill="white"/>
<path d="M182.955 181.114C182.955 182.165 183.77 182.565 184.724 182.002L244.106 147.718C244.608 147.402 245.028 146.973 245.334 146.465C245.64 145.956 245.822 145.384 245.866 144.792C245.866 143.732 245.051 143.333 244.106 143.895L184.724 178.18C184.219 178.495 183.795 178.925 183.488 179.435C183.181 179.945 182.998 180.52 182.955 181.114Z" fill="white"/>
<path d="M148.654 174.348L174.217 159.587C175.391 158.91 176.336 159.456 176.336 160.809V186.502C176.298 187.237 176.086 187.953 175.718 188.591C175.35 189.229 174.835 189.77 174.217 190.17L148.654 204.932C147.489 205.608 146.535 205.062 146.535 203.709V178.017C146.574 177.281 146.787 176.566 147.155 175.928C147.523 175.291 148.037 174.75 148.654 174.348Z" fill="white"/>
<path d="M169.359 172.417L161.754 188.181L157.882 185.94C157.696 185.833 157.491 185.764 157.279 185.737C157.066 185.709 156.851 185.724 156.644 185.78C156.437 185.836 156.244 185.932 156.074 186.063C155.905 186.194 155.763 186.357 155.656 186.543L146.535 202.332V203.709C146.535 205.062 147.489 205.608 148.654 204.932L174.217 190.17C174.834 189.771 175.348 189.231 175.716 188.595C176.085 187.959 176.297 187.244 176.336 186.51V177.479L171.193 172.123C171.078 171.971 170.923 171.853 170.746 171.781C170.569 171.71 170.376 171.688 170.187 171.719C169.999 171.749 169.822 171.83 169.676 171.953C169.53 172.076 169.42 172.236 169.359 172.417Z" fill="#052659"/>
<path d="M150.374 183.747C151.955 182.718 153.27 181.33 154.213 179.697C155.156 178.064 155.701 176.232 155.803 174.348C155.857 173.723 155.763 173.093 155.528 172.511C155.293 171.929 154.923 171.411 154.45 170.998L148.654 174.348C148.037 174.75 147.523 175.291 147.155 175.928C146.787 176.566 146.574 177.281 146.535 178.017V184.13C147.521 184.692 148.875 184.611 150.374 183.747Z" fill="#052659"/>
<path d="M252.493 7.33744V2.14509C252.493 0.791982 251.54 0.245848 250.374 0.922401L108.925 82.5898C108.308 82.9909 107.794 83.5323 107.426 84.1697C107.057 84.8072 106.845 85.5227 106.806 86.2579V91.4584L252.493 7.33744Z" fill="#052659"/>
<path d="M235.139 11.7065C234.683 12.0059 234.304 12.4083 234.032 12.8812C233.76 13.3541 233.604 13.8843 233.574 14.429C233.574 15.4316 234.275 15.8392 235.139 15.3338C235.598 15.0385 235.98 14.6384 236.253 14.1664C236.527 13.6945 236.684 13.1642 236.712 12.6195C236.712 11.6168 236.011 11.2093 235.139 11.7065Z" fill="#F5F5F5"/>
<path d="M241.375 8.15257C240.917 8.45109 240.537 8.85309 240.263 9.32606C239.99 9.79902 239.832 10.3297 239.802 10.8751C239.802 11.8777 240.511 12.2771 241.375 11.7799C241.834 11.4828 242.216 11.0812 242.489 10.6079C242.763 10.1346 242.92 9.60323 242.948 9.05736C242.948 8.014 242.247 7.61459 241.375 8.15257Z" fill="#F5F5F5"/>
<path d="M247.611 4.51711C247.152 4.81239 246.77 5.21253 246.497 5.68449C246.223 6.15645 246.066 6.6867 246.037 7.23147C246.037 8.23408 246.738 8.64164 247.611 8.14441C248.067 7.84499 248.446 7.4426 248.718 6.96969C248.99 6.49678 249.146 5.96659 249.176 5.4219C249.176 4.41929 248.475 4.01173 247.611 4.51711Z" fill="#F5F5F5"/>
<path d="M254.751 260.206C254.998 260.832 255.167 261.486 255.257 262.154C255.486 262.844 255.539 263.581 255.411 264.297C254.862 265.212 253.989 265.887 252.966 266.189C252.238 266.356 251.483 266.37 250.749 266.23C250.015 266.09 249.318 265.798 248.703 265.373C247.211 264.485 246.095 263.401 243.975 262.806C242.464 262.48 241.04 261.832 239.802 260.907C238.628 259.969 237.063 257.361 239.305 256.758C241.546 256.154 246.429 258.282 250.871 258.478L254.751 260.206Z" fill="#263238"/>
<path d="M254.539 257.271C254.539 257.271 254.8 260.385 254.8 260.768C254.8 261.82 250.92 263.213 250.203 260.768L249.583 257.459L254.539 257.271Z" fill="#F28F8F"/>
<path d="M249.779 188.955C251.113 190.917 252.335 192.953 253.439 195.053C253.439 195.053 253.822 199.585 253.822 202.601C253.822 208.144 252.966 212.423 252.192 223.346C253.452 225.494 254.174 227.916 254.295 230.405C254.621 235.352 254.629 235.295 254.661 258.119C253.919 258.519 253.104 258.768 252.264 258.849C251.424 258.93 250.576 258.843 249.771 258.592L242.435 226.631L241.619 214.086L239.321 198.492L249.779 188.955Z" fill="#37474F"/>
<path d="M232.417 265.92C232.678 266.189 232.588 266.735 232.71 267.631C232.846 268.321 232.881 269.026 232.816 269.726C232.388 270.695 231.616 271.471 230.648 271.903C229.944 272.156 229.196 272.262 228.45 272.213C227.704 272.164 226.976 271.961 226.311 271.617C224.73 270.916 223.483 269.987 221.307 269.653C219.766 269.52 218.273 269.056 216.929 268.292C215.65 267.476 213.767 265.113 215.919 264.216C218.071 263.319 223.467 264.925 227.893 264.566L232.417 265.92Z" fill="#263238"/>
<path d="M233.436 262.007C233.436 262.007 232.62 265.561 232.4 266.352C231.911 268.251 227.697 268.349 227.697 266.156L227.982 261.102L233.436 262.007Z" fill="#F28F8F"/>
<path d="M240.266 189.925C242.378 194.074 244.415 197.734 244.481 202.152C244.635 211.502 240.755 221.797 239.329 228.554C239.754 231 239.874 233.489 239.688 235.964C239.402 238.792 232.955 264.493 232.955 264.493C232.955 264.493 229.368 265.243 227.844 263.621L229.653 214.135L230.143 199.764L240.266 189.925Z" fill="#37474F"/>
<path d="M237.365 164.583L238.693 171.944L245.345 171.455L243.951 163.116L237.365 164.583Z" fill="#FFA8A7"/>
<path d="M252.363 170.917C251.703 168.92 249.167 166.743 246.657 167.216C242.886 167.857 239.169 168.784 235.539 169.988C233.215 170.803 231.096 172.832 230.901 180.478L230.175 199.715C231.18 200.608 232.385 201.246 233.688 201.574C237.218 202.544 239.549 203.122 244.913 201.949C251.898 200.424 253.561 196.194 253.561 196.194C253.561 196.194 253.292 186.013 253.08 180.478C252.909 175.775 252.811 172.294 252.363 170.917Z" fill="#455A64"/>
<path d="M234.528 155.185L200.659 145.998C197.595 145.469 196.315 152.951 199.38 153.473L234.161 156.986L234.528 155.185Z" fill="#263238"/>
<path d="M224.787 170.705L217.867 170.917C217.867 170.917 218.91 160.622 219.554 159.269C220.198 157.916 221.739 157.638 223.271 157.206C224.803 156.774 224.795 156.041 224.795 156.041L223.418 155.902C222.211 155.78 221.73 154.272 222.252 153.253C222.505 152.78 222.912 152.03 223.646 152.234L225.472 152.731C225.5 151.926 225.299 151.129 224.893 150.433C224.282 149.756 223.874 149.968 222.652 149.544C221.747 149.226 219.896 148.664 218.405 149.275C216.913 149.887 215.78 152.691 215.397 154.671C215.009 156.962 214.381 159.205 213.522 161.363C212.193 165.032 210.262 172.563 210.058 175.579C209.968 176.973 210.099 177.805 211.647 178.171C213.196 178.538 224.592 178.563 224.592 178.563L224.787 170.705Z" fill="#FFA8A7"/>
<path d="M232.441 155.87C232.441 155.87 230.811 158.25 231.039 158.511C231.407 158.756 231.816 158.935 232.245 159.04L232.441 155.87Z" fill="#FFA8A7"/>
<path d="M237.356 148.354C235.808 149.169 233.134 150.579 232.392 156.253C231.634 162.073 232.637 163.947 233.419 164.722C233.957 165.243 236.843 165.276 238.31 164.836C240.12 164.298 244.203 162.741 246.07 159.75C248.263 156.228 248.752 151.517 246.282 149.642C245.025 148.689 243.547 148.07 241.985 147.845C240.424 147.62 238.831 147.795 237.356 148.354Z" fill="#FFA8A7"/>
<path d="M241.913 218.593L245.442 208.616C248.178 207.646 250.63 206.01 252.575 203.856C252.575 203.856 251.76 206.701 246.184 209.619L242.312 219.058V224.307L241.913 218.593Z" fill="#263238"/>
<path d="M232.074 150.27C232.58 151.664 233.436 155.087 237.006 156.514C237.006 156.514 237.519 154.337 239.345 154.565C241.171 154.794 241.489 157.133 240.364 158.584C239.239 160.035 238.147 159.513 238.147 159.513C238.147 159.513 237.902 162.635 239.989 164.053C240.766 164.511 241.639 164.783 242.538 164.847C243.438 164.91 244.34 164.764 245.173 164.42C246.372 163.874 248.075 160.997 249.07 158.633C251.173 153.644 251.474 149.666 248.255 148.379C247.855 146.112 246.836 145.257 244.782 144.833C240.364 143.928 237.022 146.83 233.313 146.316C231.414 146.047 231.487 148.672 232.074 150.27Z" fill="#263238"/>
<path d="M248.361 149.169L250.447 147.873C250.265 147.619 249.994 147.443 249.687 147.382C249.381 147.321 249.062 147.379 248.797 147.544C248.531 147.709 248.339 147.968 248.258 148.27C248.177 148.572 248.213 148.894 248.361 149.169Z" fill="#263238"/>
<path d="M223.238 170.566C223.238 170.566 232.979 170.004 235.465 169.988C237.951 169.971 240.592 174.218 239.044 177.112C238.017 179.011 234.813 179.663 230.778 179.859C226.743 180.054 222.676 180.054 222.676 180.054C222.676 180.054 219.049 175.922 223.238 170.566Z" fill="#455A64"/>
<path d="M230.901 179.859C230.901 179.859 237.071 179.777 239.093 177.112C239.093 177.112 238.62 178.742 236.223 179.745C234.506 180.405 232.697 180.795 230.86 180.902L230.901 179.859Z" fill="#37474F"/>
<path d="M200.659 145.998C197.595 145.469 196.315 152.951 199.38 153.473L204.27 153.962C202.281 153.758 203.659 146.805 205.175 147.213L200.659 145.998Z" fill="#455A64"/>
<path d="M324.004 144.001C324.005 145.519 323.548 147.001 322.694 148.255C321.839 149.509 320.627 150.476 319.214 151.03C317.802 151.585 316.255 151.701 314.776 151.363C313.296 151.025 311.953 150.249 310.921 149.137L310.424 148.533C309.264 146.986 308.742 145.053 308.966 143.132C309.19 141.211 310.142 139.449 311.627 138.21C313.112 136.971 315.016 136.349 316.945 136.473C318.875 136.596 320.684 137.456 321.999 138.874L322.513 139.494C323.481 140.797 324.004 142.378 324.004 144.001Z" fill="#455A64"/>
<path d="M324.004 144.001C324.005 145.519 323.548 147.001 322.694 148.255C321.839 149.509 320.626 150.476 319.214 151.03C317.802 151.585 316.255 151.701 314.776 151.363C313.296 151.025 311.953 150.249 310.921 149.137L310.424 148.533L278.993 110.573L292.239 102.927L321.999 138.858L322.512 139.477C323.484 140.785 324.007 142.372 324.004 144.001Z" fill="#455A64"/>
<path d="M298.002 133.527C299.322 134.911 301.118 135.743 303.028 135.854C304.938 135.964 306.818 135.346 308.289 134.123C309.76 132.901 310.712 131.165 310.953 129.267C311.193 127.37 310.704 125.451 309.585 123.9L305.696 119.213C306.859 120.761 307.382 122.697 307.157 124.619C306.933 126.542 305.979 128.305 304.492 129.544C303.005 130.783 301.099 131.403 299.167 131.277C297.235 131.151 295.426 130.287 294.114 128.864L298.002 133.527Z" fill="#052659"/>
<path d="M291.733 43.2519C294.106 43.5159 296.4 44.2621 298.474 45.4445L288.913 39.8854C282.498 35.4756 273.263 35.7364 263 41.6542C243.625 52.8459 227.909 80.0629 227.909 102.446C227.909 113.442 231.65 121.3 237.821 125.033L237.951 125.115L248.157 130.992C246.347 129.814 244.769 128.314 243.502 126.566C246.017 126.841 248.56 126.695 251.026 126.134C251.923 125.938 252.827 125.702 253.749 125.408C253.628 125.372 253.511 125.326 253.398 125.27C252.908 125.04 252.438 124.767 251.996 124.455C251.194 123.895 250.479 123.22 249.877 122.449C249.053 121.395 248.383 120.228 247.888 118.985C247.224 119.081 246.554 119.13 245.883 119.132C244.296 119.164 242.722 118.849 241.269 118.211C240.929 118.055 240.6 117.878 240.283 117.681C239.997 117.502 239.712 117.29 239.468 117.078C238.878 114.319 238.591 111.503 238.612 108.682C238.612 86.3068 254.327 59.0816 273.719 47.8899C276.195 46.4456 278.818 45.2706 281.544 44.3849C282.279 44.685 282.97 45.0825 283.598 45.5668C284.264 46.0775 284.864 46.6689 285.384 47.3275C286.21 48.3846 286.883 49.5538 287.381 50.7999C288.048 50.7065 288.72 50.6602 289.394 50.6613C291.237 50.6119 293.06 51.0535 294.676 51.9411C295.085 52.1639 295.475 52.4202 295.842 52.7073C295.695 52.0552 295.54 51.4113 295.353 50.7999C294.616 48.0844 293.39 45.5263 291.733 43.2519Z" fill="#263238"/>
<path d="M298.474 45.4445L297.92 45.143C295.993 44.1338 293.895 43.4924 291.733 43.2519C289.413 42.9931 287.067 43.1004 284.78 43.5698C283.679 43.7785 282.59 44.0507 281.52 44.3849C278.794 45.2706 276.171 46.4456 273.695 47.8899C254.303 59.0816 238.587 86.3068 238.587 108.682C238.567 111.503 238.854 114.319 239.443 117.078C239.549 117.575 239.671 118.048 239.794 118.521C240.52 121.406 241.781 124.129 243.511 126.549C244.283 127.615 245.172 128.591 246.16 129.46C246.79 130.014 247.46 130.52 248.165 130.976C254.564 135.108 263.652 134.75 273.678 128.946C293.07 117.754 308.786 90.5373 308.786 68.1539C308.778 56.9623 304.841 49.0963 298.474 45.4445ZM294.643 51.9655C295.052 52.1884 295.442 52.4447 295.809 52.7318C296.424 53.231 296.984 53.7938 297.48 54.4109C299.925 57.4758 301.221 62.2443 301.221 68.1784C301.221 87.7414 286.875 112.619 269.896 122.425C265.617 124.87 261.5 126.207 258.004 126.207C256.545 126.224 255.098 125.947 253.749 125.392C253.628 125.356 253.511 125.309 253.398 125.253C252.908 125.024 252.438 124.751 251.996 124.438C251.446 124.052 250.938 123.61 250.48 123.118C250.276 122.906 250.081 122.67 249.885 122.433C249.061 121.379 248.391 120.212 247.896 118.969C246.654 115.679 246.062 112.18 246.152 108.666C246.152 108.405 246.152 108.152 246.152 107.851C246.51 88.369 260.702 64.0539 277.461 54.3865C277.844 54.1664 278.235 53.9463 278.626 53.7425C281.329 52.2329 284.28 51.2197 287.34 50.751C288.007 50.6576 288.68 50.6113 289.353 50.6124C290.804 50.5999 292.242 50.877 293.584 51.4276C293.951 51.5736 294.306 51.7509 294.643 51.9574V51.9655Z" fill="#455A64"/>
<path d="M301.221 68.1702C301.221 87.7332 286.875 112.611 269.896 122.417C268.866 123.016 267.805 123.56 266.717 124.047C264.002 125.357 261.042 126.085 258.028 126.183C256.569 126.2 255.122 125.923 253.773 125.368C253.653 125.331 253.535 125.285 253.423 125.229C252.932 124.999 252.463 124.727 252.021 124.414C251.218 123.855 250.504 123.179 249.901 122.409C249.689 122.123 249.469 121.846 249.274 121.528C249.657 121.528 250.089 121.585 250.464 121.585C253.961 121.585 258.077 120.273 262.356 117.803C279.311 108.054 293.665 83.2093 293.665 63.5811C293.665 58.1931 292.597 53.7996 290.568 50.7103C292 50.8043 293.393 51.2194 294.643 51.9248C295.052 52.1476 295.442 52.4039 295.809 52.691C296.424 53.1902 296.984 53.7531 297.48 54.3702C299.632 57.0682 300.895 61.0786 301.156 66.0428C301.197 66.7601 301.221 67.4611 301.221 68.1702Z" fill="#37474F"/>
<path opacity="0.6" d="M297.945 65.9123C297.945 85.4753 283.598 110.353 266.619 120.159C262.34 122.604 258.232 123.941 254.727 123.941C253.271 123.958 251.826 123.681 250.48 123.126C250.276 122.914 250.08 122.678 249.885 122.441C249.061 121.387 248.391 120.22 247.896 118.977C246.654 115.688 246.062 112.189 246.152 108.674C246.152 108.413 246.152 108.16 246.152 107.859C246.51 88.3772 260.702 64.062 277.461 54.3946C277.844 54.1745 278.235 53.9544 278.626 53.7507C281.329 52.241 284.28 51.2278 287.34 50.7592C288.007 50.6657 288.68 50.6194 289.353 50.6206C290.804 50.6081 292.242 50.8852 293.584 51.4357C293.804 51.6558 294.008 51.8922 294.203 52.1286C296.649 55.2097 297.945 59.9782 297.945 65.9123Z" fill="white"/>
</svg>
