<svg width="349" height="332" viewBox="0 0 349 332" fill="none" xmlns="http://www.w3.org/2000/svg">
<path d="M174.115 331.523C270.276 331.523 348.23 285.274 348.23 228.224C348.23 171.173 270.276 124.925 174.115 124.925C77.9539 124.925 0 171.173 0 228.224C0 285.274 77.9539 331.523 174.115 331.523Z" fill="#F5F5F5"/>
<path d="M223.142 287.187C261.572 287.187 292.726 269.202 292.726 247.018C292.726 224.833 261.572 206.849 223.142 206.849C184.712 206.849 153.558 224.833 153.558 247.018C153.558 269.202 184.712 287.187 223.142 287.187Z" fill="#E0E0E0"/>
<path d="M119.201 267.914L101.617 257.764L87.2787 266.04L89.6684 259.144L75.3371 261.902L92.0582 252.225L38.6422 221.409C38.4573 221.347 38.2965 221.228 38.1826 221.07C38.0687 220.912 38.0074 220.722 38.0074 220.527C38.0074 220.332 38.0687 220.142 38.1826 219.984C38.2965 219.826 38.4573 219.708 38.6422 219.646L164.77 147.097C165.244 146.857 165.768 146.732 166.3 146.732C166.832 146.732 167.356 146.857 167.831 147.097L248.22 193.439C248.405 193.501 248.566 193.62 248.68 193.778C248.794 193.936 248.855 194.126 248.855 194.321C248.855 194.516 248.794 194.706 248.68 194.864C248.566 195.022 248.405 195.14 248.22 195.202L122.255 267.914C121.782 268.153 121.259 268.278 120.728 268.278C120.198 268.278 119.675 268.153 119.201 267.914Z" fill="#E0E0E0"/>
<path d="M136.763 61.3154V56.5432C136.724 56.2706 136.616 56.0125 136.45 55.7932C136.283 55.5738 136.064 55.4004 135.812 55.2893L107.142 38.7157C106.456 38.3678 105.698 38.1865 104.929 38.1865C104.16 38.1865 103.402 38.3678 102.716 38.7157L20.3057 86.3048C20.0519 86.4172 19.8311 86.5929 19.6645 86.815C19.4979 87.0371 19.3911 87.2983 19.3542 87.5735V92.3457C19.3876 92.6257 19.4928 92.8923 19.6595 93.1197C19.8262 93.3472 20.0488 93.5277 20.3057 93.6438L48.9757 110.195C49.6611 110.544 50.4194 110.726 51.1885 110.726C51.9577 110.726 52.7159 110.544 53.4013 110.195L135.812 62.584C136.065 62.4712 136.284 62.2953 136.45 62.0732C136.615 61.851 136.721 61.59 136.756 61.3154H136.763Z" fill="#F0F0F0"/>
<path d="M20.3058 88.8495L48.9758 105.401C49.6612 105.75 50.4194 105.932 51.1886 105.932C51.9577 105.932 52.716 105.75 53.4013 105.401L135.812 57.8119C137.029 57.0743 137.029 55.9679 135.812 55.2672L107.142 38.7157C106.456 38.3678 105.698 38.1865 104.929 38.1865C104.16 38.1865 103.402 38.3678 102.716 38.7157L20.3058 86.3048C19.0961 87.0056 19.0961 88.1414 20.3058 88.8495Z" fill="#FAFAFA"/>
<path d="M51.1811 105.932V110.704C50.4104 110.717 49.649 110.535 48.9683 110.173L20.3057 93.6438C20.0523 93.5316 19.8323 93.3559 19.6669 93.1336C19.5015 92.9113 19.3963 92.6501 19.3616 92.3752V87.5956C19.3772 87.3842 19.4484 87.1806 19.5681 87.0056C19.2288 87.6251 19.4796 88.3332 20.3057 88.82L48.9831 105.371C49.6546 105.746 50.4122 105.939 51.1811 105.932Z" fill="#E0E0E0"/>
<path d="M96.5059 1.01027L120.713 15.0834V61.4186L96.5059 47.3529V1.01027Z" fill="#E0E0E0"/>
<path d="M119.932 15.8505L96.5058 2.32318C95.0768 3.85085 93.1988 4.88415 91.1436 5.27353L114.378 18.7492C114.378 18.7492 115.875 18.41 119.932 15.8505Z" fill="white"/>
<path d="M112.128 18.6607C112.825 19.0134 113.596 19.1971 114.378 19.1971C115.159 19.1971 115.93 19.0134 116.627 18.6607L120.573 16.3816C121.82 15.644 121.82 14.5007 120.573 13.7853L97.4794 0.449707L96.5058 1.01027L119.216 14.2057C119.379 14.2614 119.521 14.3667 119.621 14.5069C119.722 14.6471 119.775 14.8152 119.775 14.9875C119.775 15.1599 119.722 15.328 119.621 15.4682C119.521 15.6084 119.379 15.7137 119.216 15.7694L115.528 17.8568C115.109 18.0693 114.645 18.1801 114.175 18.1801C113.704 18.1801 113.241 18.0693 112.821 17.8568L90.1404 4.68346L89.0341 5.32516L112.128 18.6607Z" fill="#FAFAFA"/>
<path d="M89.0341 5.32515V51.6604L112.128 64.9959C112.825 65.3486 113.596 65.5323 114.378 65.5323C115.159 65.5323 115.93 65.3486 116.627 64.9959L120.573 62.7168C120.83 62.6026 121.051 62.4221 121.214 62.1939C121.378 61.9657 121.477 61.6981 121.503 61.4186V15.0761C121.478 15.3568 121.379 15.626 121.216 15.8555C121.053 16.0851 120.831 16.2667 120.573 16.3816L116.627 18.6607C115.93 19.0133 115.159 19.1971 114.378 19.1971C113.596 19.1971 112.825 19.0133 112.128 18.6607L89.0341 5.32515Z" fill="#E0E0E0"/>
<path d="M114.378 19.1992C115.161 19.2154 115.936 19.03 116.627 18.6607L120.573 16.3816C120.831 16.2667 121.053 16.0851 121.216 15.8555C121.379 15.626 121.478 15.3568 121.503 15.076V61.4186C121.477 61.6981 121.378 61.9657 121.214 62.1939C121.051 62.4221 120.83 62.6026 120.573 62.7168L116.627 64.9959C115.935 65.3619 115.161 65.5471 114.378 65.5344V19.1992Z" fill="#EBEBEB"/>
<path d="M86.6 6.72658L110.815 20.7997V67.135L86.6 53.0692V6.72658Z" fill="#EBEBEB"/>
<path d="M110.033 21.5668L86.6 8.03947C85.173 9.56578 83.2977 10.599 81.2451 10.9898L104.479 24.4582C104.479 24.4582 105.976 24.1041 110.033 21.5668Z" fill="white"/>
<path d="M102.222 24.377C102.921 24.7297 103.693 24.9135 104.475 24.9135C105.258 24.9135 106.03 24.7297 106.729 24.377L110.675 22.0979C111.914 21.3603 111.914 20.217 110.675 19.5016L87.581 6.166L86.6 6.72657L109.31 19.922C109.473 19.9777 109.615 20.083 109.715 20.2232C109.816 20.3634 109.87 20.5315 109.87 20.7038C109.87 20.8762 109.816 21.0443 109.715 21.1845C109.615 21.3247 109.473 21.43 109.31 21.4857L105.622 23.5731C105.204 23.7891 104.74 23.9018 104.269 23.9018C103.798 23.9018 103.334 23.7891 102.915 23.5731L80.242 10.4071L79.1356 11.0414L102.222 24.377Z" fill="#FAFAFA"/>
<path d="M79.1356 11.0341V57.3767L102.222 70.7049C102.921 71.0576 103.693 71.2413 104.475 71.2413C105.258 71.2413 106.03 71.0576 106.729 70.7049L110.675 68.4257C110.932 68.3121 111.153 68.1318 111.317 67.9035C111.48 67.6752 111.579 67.4073 111.604 67.1276V20.7997C111.579 21.0792 111.479 21.3468 111.316 21.575C111.152 21.8032 110.931 21.9837 110.675 22.0979L106.729 24.377C106.031 24.7332 105.259 24.9188 104.475 24.9188C103.692 24.9188 102.92 24.7332 102.222 24.377L79.1356 11.0341Z" fill="#EBEBEB"/>
<path d="M104.479 24.9155C105.25 24.9254 106.012 24.7402 106.692 24.377L110.675 22.0979C110.931 21.9836 111.152 21.8031 111.316 21.575C111.479 21.3468 111.579 21.0792 111.604 20.7997V67.1349C111.579 67.4146 111.48 67.6826 111.317 67.9109C111.153 68.1392 110.932 68.3195 110.675 68.4331L106.729 70.7122C106.048 71.0754 105.287 71.2607 104.516 71.2507L104.479 24.9155Z" fill="#F0F0F0"/>
<path d="M78.553 36.6579V39.0108L82.1303 40.8326V38.3027L78.553 36.6579Z" fill="#E0E0E0"/>
<path d="M81.6361 39.1435L76.9377 36.8054L71.686 39.8369L77.7638 43.2076L81.6361 39.1435Z" fill="white"/>
<path d="M74.4814 44.0116V63.6535C74.5013 64.0481 74.6154 64.4323 74.8143 64.7736C75.0133 65.115 75.2912 65.4037 75.6247 65.6155L94.3815 76.4433C94.6649 76.5927 94.9765 76.6806 95.2962 76.7015L77.7637 44.3509C77.4463 44.331 77.1368 44.243 76.8565 44.0927L75.5952 43.3551C74.9756 43.0085 74.4814 43.2961 74.4814 44.0116Z" fill="#EBEBEB"/>
<path d="M79.0987 44.0927L81.9679 40.9285L84.5126 39.4533C84.7412 39.0845 85.0215 38.8042 84.874 38.5018L102.222 70.5057V70.5426C102.377 70.8524 102.414 71.5457 101.993 71.7817L96.5795 76.4212C96.1705 76.6317 95.71 76.7212 95.2519 76.6793L77.7637 44.3509C78.2242 44.3938 78.6874 44.3042 79.0987 44.0927Z" fill="#F0F0F0"/>
<path d="M84.5126 38.1625C85.1322 38.5239 84.9773 38.9001 84.5126 39.4533L79.0987 44.0927C78.7556 44.2658 78.3767 44.356 77.9924 44.356C77.608 44.356 77.2291 44.2658 76.886 44.0927L72.1285 41.3415C71.509 40.9875 71.391 40.4712 71.8851 40.1909C72.2049 40.0566 72.5517 39.9993 72.8976 40.0236C73.2435 40.048 73.5789 40.1533 73.8766 40.331L77.6309 42.5438C77.7458 42.5999 77.8719 42.629 77.9997 42.629C78.1275 42.629 78.2537 42.5999 78.3685 42.5438L81.7614 39.0624C81.8049 39.046 81.8423 39.0167 81.8687 38.9785C81.8951 38.9403 81.9093 38.8949 81.9093 38.8485C81.9093 38.802 81.8951 38.7567 81.8687 38.7185C81.8423 38.6803 81.8049 38.651 81.7614 38.6346L77.9555 36.68C77.3359 36.3186 77.2179 35.8022 77.7121 35.5293C78.0318 35.395 78.3786 35.3377 78.7245 35.3621C79.0705 35.3864 79.4058 35.4917 79.7036 35.6695L84.5126 38.1625Z" fill="#FAFAFA"/>
<path d="M50.6205 18.0559L77.8227 33.8624V85.9139L50.6205 70.1148V18.0559Z" fill="#E0E0E0"/>
<path d="M76.945 34.7254L50.6205 19.5311C49.0177 21.2458 46.9089 22.4036 44.6018 22.8355L70.705 37.9634C70.705 37.9634 72.3867 37.5872 76.945 34.7254Z" fill="white"/>
<path d="M68.1751 37.8822C68.9594 38.2789 69.826 38.4856 70.705 38.4856C71.5839 38.4856 72.4506 38.2789 73.2349 37.8822L77.6604 35.3228C79.0619 34.5188 79.0619 33.2133 77.6604 32.3725L51.7195 17.429L50.6205 18.0559L76.1336 32.8814C76.3168 32.9429 76.4759 33.0603 76.5887 33.2172C76.7015 33.374 76.7622 33.5623 76.7622 33.7554C76.7622 33.9486 76.7015 34.1369 76.5887 34.2937C76.4759 34.4506 76.3168 34.568 76.1336 34.6295L72.0179 36.9824C71.5474 37.2226 71.0267 37.3479 70.4985 37.3479C69.9702 37.3479 69.4495 37.2226 68.979 36.9824L43.4733 22.1864L42.2341 22.924L68.1751 37.8822Z" fill="#FAFAFA"/>
<path d="M42.2341 22.9019V74.9534L68.1751 89.9559C68.9594 90.3526 69.826 90.5593 70.705 90.5593C71.5839 90.5593 72.4506 90.3526 73.2349 89.9559L77.6604 87.3965C77.9497 87.2658 78.1987 87.0601 78.3816 86.8007C78.5645 86.5413 78.6746 86.2376 78.7004 85.9213V33.8993C78.6746 34.2156 78.5645 34.5193 78.3816 34.7787C78.1987 35.0381 77.9497 35.2438 77.6604 35.3745L73.2349 37.9413C72.4506 38.3379 71.5839 38.5446 70.705 38.5446C69.826 38.5446 68.9594 38.3379 68.1751 37.9413L42.2341 22.9019Z" fill="#E0E0E0"/>
<path d="M70.705 38.4871C71.5851 38.504 72.4553 38.2985 73.2349 37.8896L77.6604 35.3228C77.9497 35.1922 78.1987 34.9865 78.3816 34.7271C78.5644 34.4676 78.6745 34.164 78.7004 33.8477V85.8992C78.6745 86.2155 78.5644 86.5192 78.3816 86.7786C78.1987 87.038 77.9497 87.2437 77.6604 87.3743L73.2349 89.9338C72.4559 90.3449 71.5857 90.553 70.705 90.5386V38.4871Z" fill="#EBEBEB"/>
<path d="M39.5051 24.4803L66.7 40.2868V92.3383L39.5051 76.5392V24.4803Z" fill="#EBEBEB"/>
<path d="M65.8221 41.1498L39.4829 25.9555C37.8827 27.6712 35.7768 28.8314 33.4716 29.2672L59.5821 44.3952C59.5821 44.3952 61.2638 44.0042 65.8221 41.1498Z" fill="white"/>
<path d="M57.0523 44.3066C57.8366 44.7033 58.7032 44.91 59.5822 44.91C60.4611 44.91 61.3278 44.7033 62.1121 44.3066L66.5376 41.7472C67.9391 40.9432 67.9391 39.6377 66.5376 38.7968L40.6041 23.8533L39.4977 24.4803L65.0108 39.3058C65.194 39.3673 65.3531 39.4847 65.4659 39.6415C65.5787 39.7984 65.6394 39.9867 65.6394 40.1798C65.6394 40.373 65.5787 40.5613 65.4659 40.7181C65.3531 40.8749 65.194 40.9924 65.0108 41.0539L60.873 43.4068C60.402 43.6453 59.8815 43.7695 59.3535 43.7695C58.8256 43.7695 58.3051 43.6453 57.8341 43.4068L32.3578 28.6108L31.1113 29.3484L57.0523 44.3066Z" fill="#FAFAFA"/>
<path d="M31.1113 29.3262V81.3777L57.0523 96.3581C57.8366 96.7548 58.7032 96.9615 59.5822 96.9615C60.4611 96.9615 61.3278 96.7548 62.1121 96.3581L66.5376 93.7987C66.8269 93.6681 67.0759 93.4623 67.2588 93.2029C67.4417 92.9435 67.5518 92.6399 67.5776 92.3235V40.2868C67.5518 40.6031 67.4417 40.9068 67.2588 41.1662C67.0759 41.4256 66.8269 41.6313 66.5376 41.762L62.1121 44.3214C61.3288 44.7215 60.4618 44.9301 59.5822 44.9301C58.7026 44.9301 57.8356 44.7215 57.0523 44.3214L31.1113 29.3262Z" fill="#EBEBEB"/>
<path d="M59.5822 44.9115C60.4633 44.9291 61.3342 44.7209 62.1121 44.3066L66.5376 41.7472C66.8269 41.6166 67.0759 41.4108 67.2588 41.1514C67.4416 40.892 67.5517 40.5884 67.5776 40.272V92.3236C67.5517 92.6399 67.4416 92.9435 67.2588 93.203C67.0759 93.4624 66.8269 93.6681 66.5376 93.7987L62.1121 96.3581C61.3331 96.7693 60.4629 96.9773 59.5822 96.963V44.9115Z" fill="#F0F0F0"/>
<path d="M52.5974 224.057L54.4635 222.98L53.1137 222.375C53.1137 222.375 52.0221 222.655 52.0221 222.722C52.0294 222.969 52.0541 223.215 52.0959 223.459L52.5974 224.057Z" fill="#052659"/>
<path opacity="0.5" d="M52.5974 224.057L54.4635 222.98L53.1137 222.375C53.1137 222.375 52.0221 222.655 52.0221 222.722C52.0294 222.969 52.0541 223.215 52.0959 223.459L52.5974 224.057Z" fill="black"/>
<path d="M123.693 259.874C122.848 260.303 121.913 260.526 120.964 260.526C120.016 260.526 119.081 260.303 118.235 259.874L56.9491 224.47L148.683 171.504L150.829 170.264L212.108 205.669C213.583 206.539 213.583 207.955 212.108 208.818L123.693 259.874Z" fill="#052659"/>
<path d="M100.703 193.034L79.3128 205.337L65.4756 197.349L49.3815 206.65V218.244C49.3815 219.653 50.9599 221.652 51.5352 221.328C52.5954 221.584 53.6262 221.95 54.611 222.419C56.2111 223.334 57.6968 224.436 59.0365 225.701L108.138 197.356L100.703 193.034Z" fill="#052659"/>
<path opacity="0.15" d="M100.703 193.034L79.3128 205.337L65.4756 197.349L49.3815 206.65V218.244C49.3815 219.653 50.9599 221.652 51.5352 221.328C52.5954 221.584 53.6262 221.95 54.611 222.419C56.2111 223.334 57.6968 224.436 59.0365 225.701L108.138 197.356L100.703 193.034Z" fill="black"/>
<path opacity="0.4" d="M49.3815 218.244C49.3815 219.565 50.7608 221.401 51.4098 221.357H51.4688H51.5352C51.5795 221.357 53.4825 220.147 53.689 220.118L55.5403 214.003C55.5403 214.003 55.4297 206.856 55.5403 206.856C55.1852 205.826 54.774 204.817 54.3086 203.832L49.3815 206.679V218.244Z" fill="black"/>
<path d="M118.228 259.874L114.54 257.727L59.0512 225.672C59.0112 224.949 58.7542 224.255 58.3136 223.68C57.6545 222.816 56.8295 222.091 55.887 221.549C55.0965 221.061 54.1961 220.779 53.2685 220.73C52.6463 220.724 52.0394 220.923 51.5426 221.298C50.8404 219.884 50.4984 218.318 50.5468 216.74H48.4078C48.4078 219.638 49.3667 222.545 50.5395 223.216L51.6016 223.835C52.199 224.182 52.6785 224.204 52.6785 223.88V223.312C52.6785 222.685 53.63 222.714 54.8175 223.4C56.005 224.086 56.9491 225.141 56.9491 225.775V226.336C56.9491 226.668 57.7678 227.39 58.7709 227.966L112.423 258.944L118.228 262.293C119.068 262.73 120.003 262.95 120.95 262.935V260.508C120.003 260.533 119.066 260.314 118.228 259.874Z" fill="#052659"/>
<path opacity="0.3" d="M118.228 259.874L114.54 257.727L59.0512 225.672C59.0112 224.949 58.7542 224.255 58.3136 223.68C57.6545 222.816 56.8295 222.091 55.887 221.549C55.0965 221.061 54.1961 220.779 53.2685 220.73C52.6463 220.724 52.0394 220.923 51.5426 221.298C50.8404 219.884 50.4984 218.318 50.5468 216.74H48.4078C48.4078 219.638 49.3667 222.545 50.5395 223.216L51.6016 223.835C52.199 224.182 52.6785 224.204 52.6785 223.88V223.312C52.6785 222.685 53.63 222.714 54.8175 223.4C56.005 224.086 56.9491 225.141 56.9491 225.775V226.336C56.9491 226.668 57.7678 227.39 58.7709 227.966L112.423 258.944L118.228 262.293C119.068 262.73 120.003 262.95 120.95 262.935V260.508C120.003 260.533 119.066 260.314 118.228 259.874Z" fill="black"/>
<path d="M213.229 207.232V209.696C213.204 210.027 213.091 210.346 212.902 210.62C212.712 210.893 212.454 211.112 212.152 211.252H212.108L129.469 258.952L123.671 262.3C122.831 262.736 121.896 262.957 120.95 262.942V260.516C121.9 260.538 122.84 260.315 123.679 259.866L127.367 257.735L212.078 208.818C212.399 208.687 212.676 208.469 212.88 208.189C213.083 207.909 213.204 207.577 213.229 207.232Z" fill="#052659"/>
<path opacity="0.2" d="M213.229 207.232V209.696C213.204 210.027 213.091 210.346 212.902 210.62C212.712 210.893 212.454 211.112 212.152 211.252H212.108L129.469 258.952L123.671 262.3C122.831 262.736 121.896 262.957 120.95 262.942V260.516C121.9 260.538 122.84 260.315 123.679 259.866L127.367 257.735L212.078 208.818C212.399 208.687 212.676 208.469 212.88 208.189C213.083 207.909 213.204 207.577 213.229 207.232Z" fill="black"/>
<path d="M120.964 244.171V258.332C120.329 258.349 119.701 258.199 119.142 257.897L112.423 254.025L61.2197 224.455V209.666L120.964 244.171Z" fill="#EBEBEB"/>
<path opacity="0.15" d="M89.7128 234.353L104.051 242.636C104.051 242.636 102.576 241.087 96.8821 237.842C91.365 234.693 89.7128 234.353 89.7128 234.353Z" fill="black"/>
<path d="M210.603 194.199V205.108C210.568 205.738 210.386 206.352 210.071 206.899C209.756 207.446 209.317 207.911 208.789 208.257L129.469 254.025L122.757 257.897C122.2 258.198 121.575 258.348 120.942 258.332V245.668L210.603 194.199Z" fill="#F5F5F5"/>
<path d="M58.2177 207.97V220.509C58.1547 220.464 58.0881 220.425 58.0186 220.391C57.2334 219.896 56.3343 219.612 55.4075 219.565C54.7874 219.557 54.1825 219.757 53.689 220.133V205.381L58.2177 207.97Z" fill="#37474F"/>
<path d="M61.2124 224.462C61.1752 223.739 60.9179 223.044 60.4748 222.471C60.253 222.163 60.0063 221.875 59.7373 221.608L59.4791 221.364L59.1472 221.077L58.8669 220.87C58.674 220.722 58.472 220.587 58.2621 220.465V207.97L61.2124 209.703V224.462Z" fill="#E0E0E0"/>
<path d="M148.683 154.237L56.9492 207.232V208.457C56.9492 209.143 55.9977 209.393 54.8176 208.715C53.6374 208.036 52.6786 207.181 52.6786 206L52.5605 204.835L146.028 150.881L146.404 150.659C146.503 150.833 146.559 151.028 146.566 151.227V151.795C146.566 152.452 147.51 153.543 148.683 154.237Z" fill="#052659"/>
<path opacity="0.1" d="M148.683 154.237L56.9492 207.232V208.457C56.9492 209.143 55.9977 209.393 54.8176 208.715C53.6374 208.036 52.6786 207.181 52.6786 206L52.5605 204.835L146.028 150.881L146.404 150.659C146.503 150.833 146.559 151.028 146.566 151.227V151.795C146.566 152.452 147.51 153.543 148.683 154.237Z" fill="black"/>
<path d="M118.235 242.592L58.3063 207.97C57.5687 207.572 56.8311 207.232 56.5582 207.402L56.9491 207.188L148.683 154.214L149.76 153.602C150.35 153.256 151.641 153.447 152.651 154.03L212.078 188.379C213.554 189.257 213.554 190.673 212.078 191.536L123.693 242.592C122.848 243.021 121.913 243.245 120.964 243.245C120.016 243.245 119.081 243.021 118.235 242.592Z" fill="#052659"/>
<path d="M146.433 150.637L146.057 150.858L52.5606 204.813C52.5133 204.716 52.4454 204.63 52.3614 204.562L52.0442 204.385L51.373 203.994L50.5469 203.544C50.3868 203.437 50.1946 203.388 50.0026 203.405C49.8106 203.423 49.6304 203.506 49.4922 203.64C49.4486 203.663 49.4108 203.696 49.3816 203.736C49.2708 203.853 49.1765 203.985 49.1013 204.127C49.0012 204.292 48.9196 204.468 48.8579 204.651C48.7841 204.842 48.7251 205.049 48.6661 205.263C48.6071 205.477 48.5776 205.72 48.5333 206C48.5048 206.144 48.4876 206.289 48.4817 206.436C48.4817 206.546 48.4817 206.657 48.4817 206.782C48.4817 207.04 48.4448 207.313 48.4448 207.601V204.975C48.4448 203.5 49.6766 201.641 51.1813 200.771L139.603 149.715C141.115 148.845 143.291 148.697 144.471 149.369L145.585 150.018C145.659 150.069 145.851 150.172 146.057 150.29C146.214 150.367 146.345 150.487 146.433 150.637Z" fill="#052659"/>
<path d="M118.25 242.636L114.562 240.49L71.937 215.855L58.3064 207.97C57.3401 207.402 56.5509 207.232 56.4993 207.49C56.4958 207.502 56.4958 207.515 56.4993 207.527V208.147C56.4993 208.825 55.5404 208.825 54.3603 208.147C53.1801 207.468 52.7007 206.672 52.686 206V205.329C52.6968 205.181 52.6739 205.032 52.619 204.894C52.5641 204.756 52.4785 204.633 52.3688 204.533L52.0516 204.356L51.3804 203.965L50.5469 203.544C50.3868 203.437 50.1946 203.388 50.0026 203.405C49.8106 203.423 49.6304 203.506 49.4922 203.64C49.4486 203.664 49.4108 203.696 49.3816 203.736C49.3079 203.81 49.2458 203.895 49.1972 203.987C49.1586 204.029 49.1263 204.076 49.1013 204.127C49.0012 204.292 48.9196 204.468 48.8579 204.651C48.7841 204.842 48.7251 205.049 48.6661 205.263C48.6071 205.477 48.5776 205.72 48.5333 206C48.5048 206.144 48.4876 206.289 48.4817 206.436C48.4817 206.546 48.4817 206.657 48.4817 206.782C48.4817 207.04 48.4448 207.313 48.4448 207.601V216.806H50.5469V207.535C50.5469 207.313 50.5469 207.092 50.5469 206.886L50.5986 206.355C50.593 206.338 50.593 206.32 50.5986 206.303C50.783 207.977 52.3835 209.467 53.7702 210.256C54.5401 210.739 55.4219 211.013 56.3296 211.053C57.0204 211.06 57.6897 210.813 58.2105 210.36L58.4023 210.463L58.771 210.684L112.423 241.663L118.228 245.011C118.228 245.011 118.228 245.011 118.265 245.011C119.096 245.435 120.017 245.647 120.95 245.631V243.204C120.017 243.243 119.089 243.047 118.25 242.636Z" fill="#052659"/>
<path opacity="0.3" d="M118.25 242.636L114.562 240.49L71.937 215.855L58.3064 207.97C57.3401 207.402 56.5509 207.232 56.4993 207.49C56.4958 207.502 56.4958 207.515 56.4993 207.527V208.147C56.4993 208.825 55.5404 208.825 54.3603 208.147C53.1801 207.468 52.7007 206.672 52.686 206V205.329C52.6968 205.181 52.6739 205.032 52.619 204.894C52.5641 204.756 52.4785 204.633 52.3688 204.533L52.0516 204.356L51.3804 203.965L50.5469 203.544C50.3868 203.437 50.1946 203.388 50.0026 203.405C49.8106 203.423 49.6304 203.506 49.4922 203.64C49.4486 203.664 49.4108 203.696 49.3816 203.736C49.3079 203.81 49.2458 203.895 49.1972 203.987C49.1586 204.029 49.1263 204.076 49.1013 204.127C49.0012 204.292 48.9196 204.468 48.8579 204.651C48.7841 204.842 48.7251 205.049 48.6661 205.263C48.6071 205.477 48.5776 205.72 48.5333 206C48.5048 206.144 48.4876 206.289 48.4817 206.436C48.4817 206.546 48.4817 206.657 48.4817 206.782C48.4817 207.04 48.4448 207.313 48.4448 207.601V216.806H50.5469V207.535C50.5469 207.313 50.5469 207.092 50.5469 206.886L50.5986 206.355C50.593 206.338 50.593 206.32 50.5986 206.303C50.783 207.977 52.3835 209.467 53.7702 210.256C54.5401 210.739 55.4219 211.013 56.3296 211.053C57.0204 211.06 57.6897 210.813 58.2105 210.36L58.4023 210.463L58.771 210.684L112.423 241.663L118.228 245.011C118.228 245.011 118.228 245.011 118.265 245.011C119.096 245.435 120.017 245.647 120.95 245.631V243.204C120.017 243.243 119.089 243.047 118.25 242.636Z" fill="black"/>
<path opacity="0.1" d="M152.651 154.052C151.641 153.469 150.35 153.278 149.76 153.624L148.69 154.237C147.51 153.543 146.566 152.452 146.566 151.773V151.176C146.559 150.976 146.503 150.781 146.404 150.608C146.332 150.453 146.216 150.322 146.072 150.231C145.865 150.113 145.674 150.01 145.6 149.959L144.486 149.31C143.306 148.638 141.13 148.786 139.618 149.656L51.1443 200.705L51.0485 200.771L113.522 236.839C114.086 237.125 114.708 237.274 115.34 237.274C115.972 237.274 116.595 237.125 117.158 236.839L206.178 184.95L152.651 154.052Z" fill="black"/>
<path d="M213.229 189.928V192.399C213.202 192.731 213.089 193.049 212.9 193.322C212.711 193.595 212.453 193.814 212.152 193.956H212.108L129.469 241.67L123.671 245.019C122.83 245.452 121.895 245.67 120.95 245.653V243.226C121.9 243.249 122.84 243.026 123.679 242.577L127.367 240.446L212.078 191.536C212.403 191.404 212.683 191.183 212.886 190.899C213.09 190.614 213.209 190.278 213.229 189.928Z" fill="#052659"/>
<path opacity="0.2" d="M213.229 189.928V192.399C213.202 192.731 213.089 193.049 212.9 193.322C212.711 193.595 212.453 193.814 212.152 193.956H212.108L129.469 241.67L123.671 245.019C122.83 245.452 121.895 245.67 120.95 245.653V243.226C121.9 243.249 122.84 243.026 123.679 242.577L127.367 240.446L212.078 191.536C212.403 191.404 212.683 191.183 212.886 190.899C213.09 190.614 213.209 190.278 213.229 189.928Z" fill="black"/>
<path d="M108.521 231.632L110.889 230.267C110.251 230.047 109.567 229.999 108.905 230.127C108.278 230.422 108.521 231.632 108.521 231.632Z" fill="black"/>
<path d="M106.899 230.142C107.166 229.849 107.491 229.616 107.854 229.456C108.216 229.297 108.608 229.214 109.004 229.214C109.401 229.214 109.792 229.297 110.155 229.456C110.517 229.616 110.843 229.849 111.11 230.142C113.411 232.251 113.529 234.346 114.481 234.309C115.432 234.272 115.455 217.448 115.455 217.448L106.39 225.878L106.899 230.142Z" fill="black"/>
<path d="M201.892 168.937L202.04 168.856L200.565 168.015L138.01 131.873L46.859 190.887C45.3838 191.758 45.0814 193.012 46.2616 193.69L48.3932 194.915L106.869 228.689L107.282 228.394L201.892 168.937Z" fill="#455A64"/>
<path d="M114.717 209.482L110.188 208.545V226.682C112.917 227.84 114.658 228.932 114.946 231.219L114.717 209.482Z" fill="#052659"/>
<path d="M108.152 226.918L50.2297 193.476C49.6996 193.13 49.2585 192.664 48.942 192.115C48.6255 191.567 48.4425 190.952 48.4078 190.319V172.448L106.898 206.495C106.898 206.495 107.592 209.025 109.664 209.821C111.737 210.618 110.159 211.422 110.159 211.422V226.668C108.366 226.468 108.152 226.918 108.152 226.918Z" fill="#EBEBEB"/>
<path d="M113.5 208.862C112.895 208.516 112.423 208.493 112.423 208.818V209.386C112.423 210.013 111.472 209.983 110.284 209.297C109.097 208.611 108.138 207.557 108.138 206.93V206.362C108.138 206.03 107.334 205.307 106.331 204.732L200.579 150.733L202.055 151.574C202.252 151.791 202.376 152.064 202.409 152.356V152.924C202.409 153.558 203.368 154.613 204.548 155.299C205.728 155.985 206.687 156.036 206.687 155.38V154.819C206.687 154.487 207.159 154.51 207.756 154.856L113.5 208.862Z" fill="#37474F"/>
<path d="M201.892 151.662L202.04 151.574L200.565 150.733L138.01 114.591L46.859 167.255C45.3838 168.125 45.0814 169.379 46.2616 170.058L48.3932 171.29L106.899 206.495L201.892 151.662Z" fill="#455A64"/>
<path d="M206.694 154.266L112.504 208.634L115.801 211.215L209.667 157.017C209.436 156.321 208.999 155.711 208.413 155.269L206.694 154.266Z" fill="#455A64"/>
<path d="M209.313 181.365C209.374 181.333 209.431 181.293 209.482 181.247C209.526 181.224 209.564 181.191 209.593 181.151C209.666 181.077 209.729 180.993 209.777 180.9C209.816 180.859 209.848 180.811 209.873 180.76C209.973 180.595 210.055 180.419 210.117 180.237C210.19 180.045 210.249 179.838 210.308 179.624C210.367 179.41 210.397 179.167 210.441 178.887C210.47 178.743 210.487 178.598 210.493 178.452C210.493 178.341 210.493 178.23 210.493 178.105C210.493 177.847 210.53 177.574 210.53 177.286V161.76C210.54 160.138 210.242 158.528 209.652 157.017L115.816 211.215L115.418 235.556L209.283 181.417L209.313 181.365Z" fill="#455A64"/>
<path opacity="0.1" d="M115.816 211.215C115.816 211.215 189.744 176.615 196.471 173.443C200.897 171.349 203.109 175.745 202.04 180.296C201.118 184.271 197.201 188.365 197.201 188.365L209.283 181.417C209.344 181.384 209.401 181.345 209.453 181.299C209.496 181.275 209.534 181.243 209.563 181.203C209.637 181.129 209.699 181.044 209.748 180.952C209.786 180.91 209.819 180.863 209.844 180.812C209.944 180.647 210.025 180.471 210.087 180.288C210.161 180.096 210.22 179.89 210.279 179.676C210.338 179.462 210.367 179.219 210.412 178.938C210.44 178.795 210.457 178.649 210.463 178.503C210.463 178.393 210.463 178.282 210.463 178.157C210.463 177.898 210.5 177.625 210.5 177.338V161.76C210.511 160.138 210.213 158.528 209.622 157.017L115.816 211.215Z" fill="black"/>
<path d="M116.686 215.958H114.584C114.631 214.368 114.281 212.791 113.566 211.37C113.07 211.745 112.463 211.944 111.84 211.938C110.915 211.89 110.017 211.608 109.229 211.119C108.284 210.581 107.458 209.856 106.803 208.988C106.757 208.926 106.716 208.862 106.677 208.796C106.3 208.268 106.08 207.644 106.043 206.996L50.5469 174.97L48.666 173.871L46.2615 172.484C46.0525 172.389 45.8735 172.238 45.7436 172.048C45.6137 171.858 45.5378 171.637 45.5239 171.408V168.944C45.5344 169.179 45.6085 169.407 45.7385 169.603C45.8684 169.799 46.0492 169.956 46.2615 170.058L52.6343 173.746L106.286 204.724C107.282 205.3 108.101 206.023 108.101 206.347V206.915C108.15 207.295 108.324 207.648 108.595 207.918C109.07 208.48 109.645 208.947 110.291 209.297C111.479 209.983 112.438 210.035 112.438 209.386V208.818C112.438 208.493 112.91 208.508 113.507 208.855L114.569 209.474C115.727 210.183 116.686 213.059 116.686 215.958Z" fill="#37474F"/>
<path d="M114.584 215.958V231.521C114.584 231.742 114.584 231.956 114.584 232.17L114.533 232.694C114.536 232.711 114.536 232.728 114.533 232.745C114.341 231.078 112.748 229.588 111.361 228.799C110.589 228.314 109.705 228.037 108.794 227.995C108.104 227.989 107.435 228.236 106.913 228.689L106.722 228.585L106.36 228.364L52.7081 197.385L49.625 195.608C49.3447 195.446 49.0349 195.276 48.7472 195.099L46.1509 193.624C45.9779 193.517 45.8341 193.368 45.7324 193.192C45.6307 193.016 45.5743 192.817 45.5682 192.613V195.069C45.5764 195.259 45.6295 195.444 45.7231 195.61C45.8166 195.775 45.9481 195.916 46.1067 196.021C46.4091 196.205 46.7336 196.382 47.0655 196.581L47.663 196.928L48.6882 197.526C48.9243 197.666 49.1308 197.791 49.3299 197.894L49.7799 198.16L50.5691 198.617L93.1942 223.216L106.795 231.071C107.762 231.639 108.551 231.809 108.602 231.543C108.602 231.499 108.602 231.455 108.602 231.44V230.894C108.602 230.208 109.554 230.208 110.734 230.894C111.914 231.58 112.394 232.369 112.416 233.033V233.704C112.404 233.853 112.426 234.002 112.479 234.141C112.533 234.281 112.617 234.406 112.726 234.508L113.043 234.685C113.234 234.788 113.463 234.929 113.714 235.076L114.547 235.556C114.709 235.662 114.902 235.711 115.095 235.693C115.288 235.676 115.469 235.594 115.61 235.46C115.649 235.436 115.684 235.406 115.713 235.371C115.787 235.293 115.851 235.206 115.905 235.113C115.938 235.074 115.968 235.032 115.993 234.988C116.093 234.823 116.175 234.647 116.236 234.464C116.313 234.264 116.377 234.059 116.428 233.852C116.48 233.623 116.524 233.387 116.561 233.114C116.594 232.974 116.611 232.83 116.613 232.686C116.613 232.568 116.613 232.465 116.613 232.34C116.613 232.074 116.613 231.801 116.613 231.521V215.958H114.584Z" fill="#37474F"/>
<path opacity="0.1" d="M209.681 157.01L120.47 208.523L53.0325 169.615C52.022 169.04 52.022 168.096 53.0325 167.513L141.314 116.509L200.572 150.733L202.047 151.581C202.237 151.786 202.361 152.043 202.401 152.319V152.887C202.401 153.521 203.36 154.583 204.533 155.262C204.594 155.3 204.658 155.332 204.725 155.358L206.687 154.222L207.623 154.76L207.749 154.819L208.442 155.218C209.026 155.677 209.458 156.301 209.681 157.01Z" fill="black"/>
<path d="M58.0555 169.977L60.7403 168.546L58.2915 167.956C58.06 168.233 57.9143 168.572 57.8724 168.931C57.8305 169.29 57.8941 169.653 58.0555 169.977Z" fill="#052659"/>
<path opacity="0.5" d="M58.0555 169.977L60.7403 168.546L58.2915 167.956C58.06 168.233 57.9143 168.572 57.8724 168.931C57.8305 169.29 57.8941 169.653 58.0555 169.977Z" fill="black"/>
<path d="M129.159 205.757C128.313 206.186 127.378 206.41 126.43 206.41C125.481 206.41 124.547 206.186 123.701 205.757L62.422 170.353L154.156 118.242L156.302 117.003L217.581 151.53C219.056 152.4 219.056 153.816 217.581 154.679L129.159 205.757Z" fill="#052659"/>
<path d="M106.154 139.809L84.7635 152.112L70.9338 144.124L54.8544 153.388V164.157C54.8544 165.566 56.4328 167.565 57.0008 167.24C58.061 167.497 59.0917 167.863 60.0765 168.332C61.6773 169.246 63.163 170.347 64.502 171.614L113.603 144.124L106.154 139.809Z" fill="#052659"/>
<path opacity="0.15" d="M106.154 139.809L84.7635 152.112L70.9338 144.124L54.8544 153.388V164.157C54.8544 165.566 56.4328 167.565 57.0008 167.24C58.061 167.497 59.0917 167.863 60.0765 168.332C61.6773 169.246 63.163 170.347 64.502 171.614L113.603 144.124L106.154 139.809Z" fill="black"/>
<path d="M63.6834 154.709V166.37C63.6242 166.327 63.5627 166.288 63.499 166.252C62.7063 165.763 61.8033 165.481 60.8732 165.433C60.2687 165.371 59.6609 165.514 59.1472 165.839V152.098L63.6834 154.709Z" fill="#37474F"/>
<path d="M66.6927 170.353C66.6474 169.631 66.3909 168.939 65.9551 168.361C65.7336 168.054 65.4868 167.765 65.2175 167.498L64.9594 167.255L64.6201 166.967L64.3398 166.761C64.1452 166.616 63.9433 166.48 63.735 166.355V154.768L66.7296 156.501V156.442L66.6927 170.353Z" fill="#E0E0E0"/>
<path opacity="0.4" d="M54.8544 164.157C54.8544 165.566 56.4329 167.565 57.0008 167.24L59.1472 165.839V156.988L56.9934 153.3L55.8207 152.887L54.847 153.447L54.8544 164.157Z" fill="black"/>
<path d="M126.43 190.939V204.215C125.798 204.233 125.173 204.086 124.615 203.788L117.889 199.908L66.6853 170.353V156.442L126.43 190.939Z" fill="#EBEBEB"/>
<path opacity="0.15" d="M70.5576 165.352L84.8889 173.628C84.8889 173.628 83.4138 172.079 77.727 168.841C72.2024 165.691 70.5576 165.352 70.5576 165.352Z" fill="black"/>
<path d="M216.047 140.975V151.021C216.012 151.652 215.829 152.266 215.512 152.813C215.196 153.361 214.755 153.825 214.225 154.17L134.964 199.901L128.252 203.78C127.692 204.079 127.064 204.227 126.43 204.208V192.48L216.047 140.975Z" fill="#F5F5F5"/>
<path d="M154.156 101.02L62.4221 153.978V155.21C62.4221 155.896 61.4632 156.147 60.2905 155.461C59.1177 154.775 58.1441 153.927 58.1441 152.754L58.0334 151.589L151.5 97.6268L151.877 97.4055C151.972 97.58 152.025 97.7746 152.032 97.9734V98.5414C152.032 99.2273 152.983 100.319 154.156 101.02Z" fill="#052659"/>
<path opacity="0.1" d="M154.156 101.02L62.4221 153.978V155.21C62.4221 155.896 61.4632 156.147 60.2905 155.461C59.1177 154.775 58.1441 153.927 58.1441 152.754L58.0334 151.589L151.5 97.6268L151.877 97.4055C151.972 97.58 152.025 97.7746 152.032 97.9734V98.5414C152.032 99.2273 152.983 100.319 154.156 101.02Z" fill="black"/>
<path d="M123.701 189.36L63.7792 154.768C63.0416 154.369 62.304 154.03 62.0311 154.2L62.422 153.978L154.156 101.02L155.225 100.4C155.823 100.061 157.113 100.253 158.117 100.828L217.581 135.163C219.056 136.033 219.056 137.449 217.581 138.312L129.159 189.36C128.313 189.789 127.378 190.013 126.43 190.013C125.482 190.013 124.547 189.789 123.701 189.36Z" fill="#052659"/>
<path d="M156.715 115.771L189.848 134.949C191.249 135.76 191.249 137.08 189.848 137.899L185.385 140.473C184.595 140.873 183.722 141.081 182.837 141.081C181.951 141.081 181.078 140.873 180.289 140.473L147.171 121.311C145.762 120.499 145.762 119.179 147.171 118.36L151.596 115.786C152.388 115.379 153.264 115.166 154.154 115.163C155.044 115.161 155.922 115.369 156.715 115.771Z" fill="white"/>
<path d="M121.436 183.216C121.333 183.218 121.231 183.193 121.141 183.143L76.1485 157.231C76.0581 157.18 75.9829 157.105 75.9306 157.015C75.8783 156.925 75.8507 156.823 75.8507 156.719C75.8507 156.614 75.8783 156.512 75.9306 156.422C75.9829 156.332 76.0581 156.258 76.1485 156.206C76.565 155.964 76.9106 155.617 77.1508 155.199C77.391 154.782 77.5174 154.309 77.5174 153.827C77.5174 153.346 77.391 152.872 77.1508 152.455C76.9106 152.038 76.565 151.69 76.1485 151.448C76.0581 151.398 75.983 151.324 75.9311 151.235C75.8791 151.145 75.8523 151.043 75.8535 150.94C75.8531 150.836 75.8802 150.735 75.9321 150.645C75.9839 150.556 76.0586 150.482 76.1485 150.431L151.294 107.046C151.384 106.995 151.486 106.968 151.589 106.968C151.692 106.968 151.794 106.995 151.884 107.046C153.315 107.87 154.938 108.304 156.59 108.304C158.242 108.304 159.864 107.87 161.296 107.046C161.386 106.995 161.487 106.968 161.591 106.968C161.694 106.968 161.796 106.995 161.886 107.046L206.827 132.994C206.915 133.047 206.989 133.121 207.04 133.21C207.092 133.299 207.12 133.4 207.122 133.503C207.122 133.606 207.094 133.708 207.042 133.797C206.991 133.886 206.916 133.96 206.827 134.012C206.41 134.254 206.065 134.601 205.825 135.018C205.584 135.436 205.458 135.909 205.458 136.391C205.458 136.872 205.584 137.345 205.825 137.763C206.065 138.18 206.41 138.527 206.827 138.769C206.916 138.821 206.991 138.895 207.042 138.984C207.094 139.074 207.122 139.175 207.122 139.278C207.12 139.381 207.092 139.482 207.04 139.571C206.989 139.66 206.915 139.735 206.827 139.787L131.718 183.135C131.628 183.186 131.527 183.213 131.423 183.213C131.32 183.213 131.218 183.186 131.128 183.135C129.699 182.313 128.079 181.88 126.43 181.88C124.781 181.88 123.161 182.313 121.731 183.135C121.642 183.187 121.54 183.215 121.436 183.216ZM77.4762 156.663L121.444 181.97C122.979 181.152 124.691 180.725 126.43 180.725C128.169 180.725 129.881 181.152 131.416 181.97L205.44 139.212C205.063 138.845 204.762 138.407 204.557 137.922C204.352 137.438 204.247 136.917 204.247 136.391C204.247 135.864 204.352 135.344 204.557 134.859C204.762 134.374 205.063 133.936 205.44 133.569L161.554 108.233C160.015 109.051 158.299 109.478 156.557 109.478C154.814 109.478 153.098 109.051 151.559 108.233L77.4762 151.013C77.8538 151.38 78.154 151.818 78.359 152.303C78.564 152.788 78.6697 153.308 78.6697 153.835C78.6697 154.361 78.564 154.882 78.359 155.366C78.154 155.851 77.8538 156.289 77.4762 156.656V156.663Z" fill="white"/>
<path d="M151.877 97.4055L151.5 97.6268L58.0334 151.589C57.985 151.488 57.9143 151.4 57.8269 151.33L57.5171 151.153L56.8459 150.763C56.5877 150.622 56.3074 150.453 56.0124 150.283C55.8506 150.176 55.6575 150.128 55.4646 150.145C55.2716 150.163 55.0903 150.245 54.9503 150.379C54.9091 150.403 54.8738 150.436 54.847 150.475C54.7363 150.589 54.6419 150.718 54.5667 150.858C54.465 151.025 54.3834 151.204 54.3233 151.389C54.2462 151.587 54.1821 151.789 54.1315 151.994C54.0799 152.223 54.0357 152.459 53.9988 152.732C53.9666 152.872 53.9493 153.016 53.9471 153.16C53.9471 153.278 53.9471 153.381 53.9471 153.506C53.9471 153.772 53.9471 154.045 53.9471 154.325V151.699C53.9471 150.224 55.1789 148.373 56.6762 147.502L145.106 96.4393C146.581 95.5689 148.793 95.4214 149.966 96.0926L151.08 96.7491H151.124C151.198 96.8007 151.39 96.9039 151.596 97.022C151.723 97.1221 151.82 97.2547 151.877 97.4055Z" fill="#052659"/>
<path d="M123.701 205.757L120.013 203.611L64.561 171.607C64.52 170.886 64.263 170.195 63.8234 169.623C63.1678 168.755 62.3421 168.029 61.3968 167.491C60.5924 166.991 59.6729 166.707 58.7267 166.665C58.1043 166.657 57.497 166.857 57.0007 167.233C56.2862 165.812 55.9364 164.235 55.9829 162.645H53.8807C53.8807 165.544 54.8396 168.45 56.0124 169.121L57.0745 169.741C57.6719 170.087 58.144 170.109 58.144 169.785V169.217C58.144 168.59 59.1029 168.62 60.2904 169.305C61.4779 169.991 62.422 171.09 62.422 171.681V172.248C62.422 172.58 63.2407 173.303 64.2365 173.879L117.889 204.857L123.701 208.213C124.541 208.649 125.476 208.869 126.422 208.855V206.428C125.473 206.443 124.535 206.212 123.701 205.757Z" fill="#052659"/>
<path opacity="0.3" d="M123.701 205.757L120.013 203.611L64.561 171.607C64.52 170.886 64.263 170.195 63.8234 169.623C63.1678 168.755 62.3421 168.029 61.3968 167.491C60.5924 166.991 59.6729 166.707 58.7267 166.665C58.1043 166.657 57.497 166.857 57.0007 167.233C56.2862 165.812 55.9364 164.235 55.9829 162.645H53.8807C53.8807 165.544 54.8396 168.45 56.0124 169.121L57.0745 169.741C57.6719 170.087 58.144 170.109 58.144 169.785V169.217C58.144 168.59 59.1029 168.62 60.2904 169.305C61.4779 169.991 62.422 171.09 62.422 171.681V172.248C62.422 172.58 63.2407 173.303 64.2365 173.879L117.889 204.857L123.701 208.213C124.541 208.649 125.476 208.869 126.422 208.855V206.428C125.473 206.443 124.535 206.212 123.701 205.757Z" fill="black"/>
<path d="M123.723 189.375L120.035 187.236L77.4098 162.645L63.7792 154.768C62.813 154.2 62.0237 154.03 61.9721 154.296V154.915C61.9721 155.601 61.0206 155.601 59.8405 154.915C58.6603 154.229 58.1809 153.44 58.1588 152.776V152.105C58.1714 151.956 58.1493 151.805 58.0943 151.666C58.0393 151.526 57.9528 151.402 57.8416 151.301L57.5318 151.124C57.3401 151.021 57.1114 150.881 56.8606 150.733C56.6099 150.586 56.3222 150.423 56.0272 150.254C55.8654 150.147 55.6723 150.098 55.4793 150.116C55.2864 150.133 55.1051 150.216 54.965 150.35C54.9239 150.373 54.8886 150.406 54.8618 150.445C54.7859 150.519 54.7213 150.604 54.67 150.696C54.6347 150.736 54.6049 150.781 54.5815 150.829C54.4798 150.996 54.3981 151.174 54.3381 151.36C54.261 151.557 54.1969 151.759 54.1463 151.965C54.0947 152.193 54.0504 152.429 54.0135 152.702C53.9814 152.843 53.9641 152.986 53.9619 153.13C53.9619 153.248 53.9619 153.351 53.9619 153.477C53.9619 153.742 53.9619 154.015 53.9619 154.296V162.645H56.064V154.303C56.064 154.089 56.064 153.868 56.064 153.654L56.1157 153.13C56.1121 153.113 56.1121 153.096 56.1157 153.079C56.3074 154.746 57.9006 156.243 59.2873 157.025C60.0455 157.496 60.9108 157.768 61.8025 157.814C62.493 157.82 63.1618 157.573 63.6833 157.121L63.8677 157.224L64.2365 157.445L117.889 188.424L123.701 191.772H123.745C124.574 192.193 125.493 192.406 126.422 192.392V189.965C125.488 189.995 124.56 189.793 123.723 189.375Z" fill="#052659"/>
<path opacity="0.3" d="M123.723 189.375L120.035 187.236L77.4098 162.645L63.7792 154.768C62.813 154.2 62.0237 154.03 61.9721 154.296V154.915C61.9721 155.601 61.0206 155.601 59.8405 154.915C58.6603 154.229 58.1809 153.44 58.1588 152.776V152.105C58.1714 151.956 58.1493 151.805 58.0943 151.666C58.0393 151.526 57.9528 151.402 57.8416 151.301L57.5318 151.124C57.3401 151.021 57.1114 150.881 56.8606 150.733C56.6099 150.586 56.3222 150.423 56.0272 150.254C55.8654 150.147 55.6723 150.098 55.4793 150.116C55.2864 150.133 55.1051 150.216 54.965 150.35C54.9239 150.373 54.8886 150.406 54.8618 150.445C54.7859 150.519 54.7213 150.604 54.67 150.696C54.6347 150.736 54.6049 150.781 54.5815 150.829C54.4798 150.996 54.3981 151.174 54.3381 151.36C54.261 151.557 54.1969 151.759 54.1463 151.965C54.0947 152.193 54.0504 152.429 54.0135 152.702C53.9814 152.843 53.9641 152.986 53.9619 153.13C53.9619 153.248 53.9619 153.351 53.9619 153.477C53.9619 153.742 53.9619 154.015 53.9619 154.296V162.645H56.064V154.303C56.064 154.089 56.064 153.868 56.064 153.654L56.1157 153.13C56.1121 153.113 56.1121 153.096 56.1157 153.079C56.3074 154.746 57.9006 156.243 59.2873 157.025C60.0455 157.496 60.9108 157.768 61.8025 157.814C62.493 157.82 63.1618 157.573 63.6833 157.121L63.8677 157.224L64.2365 157.445L117.889 188.424L123.701 191.772H123.745C124.574 192.193 125.493 192.406 126.422 192.392V189.965C125.488 189.995 124.56 189.793 123.723 189.375Z" fill="black"/>
<path d="M218.717 136.704V139.168C218.691 139.5 218.577 139.82 218.386 140.093C218.196 140.367 217.935 140.585 217.633 140.724H217.596L134.986 188.416L129.188 191.772C128.349 192.209 127.413 192.429 126.467 192.414V189.987C127.42 190.01 128.362 189.787 129.203 189.338L132.891 187.207L217.61 138.275C217.92 138.138 218.187 137.92 218.381 137.643C218.576 137.366 218.692 137.042 218.717 136.704Z" fill="#052659"/>
<path opacity="0.2" d="M218.717 136.704V139.168C218.691 139.5 218.577 139.82 218.386 140.093C218.196 140.367 217.935 140.585 217.633 140.724H217.596L134.986 188.416L129.188 191.772C128.349 192.209 127.413 192.429 126.467 192.414V189.987C127.42 190.01 128.362 189.787 129.203 189.338L132.891 187.207L217.61 138.275C217.92 138.138 218.187 137.92 218.381 137.643C218.576 137.366 218.692 137.042 218.717 136.704Z" fill="black"/>
<path d="M218.717 153.123V155.601C218.691 155.934 218.577 156.253 218.386 156.527C218.196 156.8 217.935 157.018 217.633 157.157H217.596L134.986 204.85L129.188 208.206C128.349 208.642 127.413 208.863 126.467 208.848V206.421C127.42 206.444 128.362 206.22 129.203 205.772L132.891 203.64L217.61 154.716C217.923 154.577 218.191 154.355 218.386 154.074C218.581 153.793 218.695 153.464 218.717 153.123Z" fill="#052659"/>
<path opacity="0.2" d="M218.717 153.123V155.601C218.691 155.934 218.577 156.253 218.386 156.527C218.196 156.8 217.935 157.018 217.633 157.157H217.596L134.986 204.85L129.188 208.206C128.349 208.642 127.413 208.863 126.467 208.848V206.421C127.42 206.444 128.362 206.22 129.203 205.772L132.891 203.64L217.61 154.716C217.923 154.577 218.191 154.355 218.386 154.074C218.581 153.793 218.695 153.464 218.717 153.123Z" fill="black"/>
<path d="M72.9474 166.731V199.834L77.7269 194.317L82.5065 205.351V172.248L72.9474 166.731Z" fill="#052659"/>
<path opacity="0.5" d="M72.9474 166.731V199.834L77.7269 194.317L82.5065 205.351V172.248L72.9474 166.731Z" fill="black"/>
<path d="M92.0583 235.696V244.679C92.0582 246.142 91.6731 247.579 90.9415 248.845C90.2099 250.111 89.1578 251.163 87.8909 251.893L75.3519 259.144L87.2935 257.764L84.9037 264.661L97.4427 257.41C98.7085 256.679 99.7599 255.627 100.491 254.361C101.223 253.095 101.608 251.659 101.61 250.197V241.213L92.0583 235.696Z" fill="#052659"/>
<path opacity="0.5" d="M92.0583 235.696V244.679C92.0582 246.142 91.6731 247.579 90.9415 248.845C90.2099 250.111 89.1578 251.163 87.8909 251.893L75.3519 259.144L87.2935 257.764L84.9037 264.661L97.4427 257.41C98.7085 256.679 99.7599 255.627 100.491 254.361C101.223 253.095 101.608 251.659 101.61 250.197V241.213L92.0583 235.696Z" fill="black"/>
<path d="M272.28 83.0668V74.9976L265.465 74.4002C265.368 74.3926 265.271 74.4131 265.185 74.4592L258.384 78.3463C258.325 78.385 258.276 78.4357 258.238 78.495C258.2 78.5543 258.175 78.6208 258.164 78.6904C258.154 78.76 258.158 78.8309 258.177 78.8987C258.196 78.9665 258.229 79.0296 258.273 79.0838L265.502 86.917L272.28 83.0668Z" fill="#052659"/>
<path d="M265.502 86.9465L258.274 79.1134C258.203 79.04 258.157 78.9466 258.141 78.8461C258.126 78.7455 258.142 78.6425 258.187 78.5513C258.232 78.4601 258.304 78.3851 258.394 78.3365C258.483 78.288 258.585 78.2682 258.687 78.2799L265.502 78.87V86.9465Z" fill="#052659"/>
<path d="M272.28 74.9976L265.502 78.8921L258.687 78.2946C258.606 78.2871 258.525 78.2998 258.451 78.3315C258.996 78.007 264.934 74.6067 265.185 74.4739C265.273 74.4268 265.373 74.4063 265.472 74.4149L272.28 74.9976Z" fill="#052659"/>
<path opacity="0.5" d="M272.28 74.9976L265.502 78.8921L258.687 78.2946C258.606 78.2871 258.525 78.2998 258.451 78.3315C258.996 78.007 264.934 74.6067 265.185 74.4739C265.273 74.4268 265.373 74.4063 265.472 74.4149L272.28 74.9976Z" fill="white"/>
<path d="M265.509 69.7681C265.555 68.9156 265.801 68.0859 266.228 67.3464C266.655 66.6069 267.25 65.9785 267.965 65.5123L269.964 64.3616C270.725 63.9726 271.566 63.7697 272.42 63.7697C273.274 63.7697 274.116 63.9726 274.877 64.3616L296.163 76.6793C296.879 77.1451 297.474 77.7734 297.901 78.513C298.328 79.2526 298.574 80.0825 298.62 80.9352V105.556C298.57 106.406 298.322 107.232 297.896 107.968C297.469 108.705 296.876 109.331 296.163 109.797L294.165 110.948C293.403 111.333 292.562 111.534 291.708 111.534C290.855 111.534 290.014 111.333 289.252 110.948L282.961 107.319L274.781 102.591L267.936 98.6447C267.221 98.1784 266.626 97.55 266.199 96.8105C265.772 96.0711 265.526 95.2413 265.48 94.3888L265.509 69.7681Z" fill="#052659"/>
<path d="M286.833 91.4974C286.819 89.878 286.481 88.2778 285.837 86.7916C285.25 85.2358 284.203 83.8954 282.835 82.9488C280.785 81.7392 279.066 84.1953 278.801 87.0941C278.557 83.8929 276.875 79.4379 274.818 78.243C274.37 77.8977 273.808 77.7367 273.245 77.7929C272.683 77.8491 272.164 78.1184 271.793 78.5454C271.043 79.556 270.674 80.7999 270.753 82.0563C270.753 86.9539 273.704 91.4016 276.145 96.0705L278.742 100.983L281.375 99.1462C283.846 97.3686 286.811 96.4024 286.833 91.4974Z" fill="#FAFAFA"/>
<path opacity="0.2" d="M298.649 105.541C298.599 106.396 298.347 107.227 297.915 107.966C297.484 108.706 296.883 109.333 296.163 109.797L294.165 110.948C293.472 111.295 292.714 111.493 291.94 111.527C291.166 111.561 290.393 111.432 289.673 111.147C290.823 111.582 291.708 110.933 291.708 109.531V84.9108C291.676 84.0541 291.422 83.2206 290.971 82.4915L297.882 78.5012C298.333 79.2302 298.587 80.0638 298.62 80.9204L298.649 105.541Z" fill="black"/>
<path opacity="0.5" d="M265.59 69.0674C265.878 68.0274 266.829 67.6955 267.965 68.3298L289.282 80.6402C290.011 81.0887 290.609 81.7223 291.015 82.4768L297.919 78.4864C297.498 77.7437 296.894 77.1215 296.163 76.6793L274.884 64.3616C274.123 63.976 273.281 63.7751 272.428 63.7751C271.574 63.7751 270.733 63.976 269.972 64.3616L267.965 65.5196C267.35 65.9198 266.823 66.4405 266.414 67.0502C266.006 67.66 265.726 68.3462 265.59 69.0674Z" fill="white"/>
<path d="M212.403 122.631C222.781 122.284 227.929 127.617 234.213 136.689C240.498 145.762 257.816 170.913 257.816 170.913L244.34 178.695L214.837 138.224L212.403 122.631Z" fill="#FFA8A7"/>
<path d="M203.028 56.4473C180.495 57.5684 171.378 75.4697 174.506 91.8515C177.22 106.057 187.9 113.743 202.453 113.743H204.275C220.111 113.743 230.651 97.5162 232.598 88.7684C237.156 68.4552 223.002 55.4589 203.028 56.4473Z" fill="#37474F"/>
<path d="M258.598 268.061C259.151 281.684 236.832 284.354 217.227 275.002C202.438 267.95 195.837 262.861 182.376 252.815C165.699 240.343 160.698 221.453 172.595 199.016L229.323 196.065C239.199 207.513 274.773 222.722 286.575 249.776C292.306 264.078 272.62 271.609 258.546 268.061H258.598Z" fill="#455A64"/>
<path d="M258.598 268.061C257.123 255.22 247.35 248.884 238.964 242.666C230.577 236.448 212.956 225.672 212.956 225.672C212.956 225.672 221.719 227.715 229.758 219.447C229.513 221.222 228.879 222.922 227.903 224.425C226.926 225.927 225.631 227.197 224.108 228.143C224.108 228.143 248.5 242.091 255.825 253.914C258.492 258.115 259.482 263.164 258.598 268.061Z" fill="#37474F"/>
<path d="M198.662 122.631H192.164C185.872 123.074 179.625 123.56 179.625 123.56C169.549 127.197 169.593 135.14 169.092 139.308C168.354 145.209 170.021 148.572 171.961 154.178L181.255 181.055C181.255 181.055 177.655 189.08 172.603 199.015C195.925 212.027 224.285 207.682 231.293 198.182C231.588 196.168 230.555 174.852 229.419 164.563C232.669 161.976 234.787 158.227 235.325 154.108C235.863 149.989 234.78 145.822 232.303 142.487C223.533 130.501 215.552 123.273 212.388 122.631H198.662Z" fill="#052659"/>
<path opacity="0.3" d="M198.662 122.631H192.164C185.872 123.074 179.625 123.56 179.625 123.56C169.549 127.197 169.593 135.14 169.092 139.308C168.354 145.209 170.021 148.572 171.961 154.178L181.255 181.055C181.255 181.055 177.655 189.08 172.603 199.015C195.925 212.027 224.285 207.682 231.293 198.182C231.588 196.168 230.555 174.852 229.419 164.563C232.669 161.976 234.787 158.227 235.325 154.108C235.863 149.989 234.78 145.822 232.303 142.487C223.533 130.501 215.552 123.273 212.388 122.631H198.662Z" fill="black"/>
<path opacity="0.15" d="M179.359 185.149C178.562 186.86 177.53 189.036 176.328 191.5C176.121 191.935 175.907 192.377 175.686 192.82C175.413 193.38 175.133 193.956 174.838 194.538C174.1 195.969 173.362 197.489 172.625 199.015C173.488 199.495 174.358 199.937 175.229 200.373C190.836 208.132 208.213 208.523 219.786 205.056C211.919 206.102 203.93 205.755 196.183 204.031C194.357 203.61 192.633 202.829 191.113 201.733C189.592 200.638 188.305 199.25 187.328 197.651C186.351 196.052 185.702 194.274 185.42 192.421C185.139 190.568 185.229 188.677 185.688 186.86C185.748 186.609 185.827 186.362 185.924 186.122C187.399 182.516 190.651 182.988 190.651 182.988C189.149 182.001 187.857 180.727 186.851 179.238C185.844 177.749 185.143 176.075 184.788 174.314L183.563 170.574C180.751 162.078 180.607 152.926 183.15 144.346L183.217 144.102L173.303 138.452L171.57 139.655C171.029 141.4 170.711 143.206 170.626 145.032C170.626 145.496 170.626 145.968 170.626 146.44C170.626 146.662 170.626 146.883 170.626 147.097C170.626 147.495 170.67 147.886 170.707 148.277C170.744 148.668 170.766 148.904 170.81 149.214C170.855 149.523 170.899 149.877 170.958 150.209C171.017 150.541 171.113 151.013 171.201 151.412C171.26 151.662 171.305 151.921 171.371 152.149C171.541 152.806 171.732 153.462 171.954 154.104L181.247 180.982C181.247 180.982 180.561 182.589 179.359 185.149Z" fill="black"/>
<path d="M222.036 70.3803C223.511 71.1179 227.501 78.7519 227.118 95.3698C226.793 109.458 222.228 112.932 219.934 113.935C217.64 114.938 213.222 114.326 208.922 113.61V122.063C208.922 122.063 214.867 128.967 214.49 132.839C214.114 136.712 205.912 137.633 200.358 133.85C196.754 131.255 193.661 128.017 191.234 124.298V103.867C191.234 103.867 188.889 106.441 184.139 103.291C179.389 100.142 178.658 93.6364 181.417 90.8336C184.176 88.0308 190.128 88.9233 191.234 92.7882C191.234 92.7882 198.197 94.02 207.535 88.0087C217.618 81.5179 220.723 76.3548 222.036 70.3803Z" fill="#FFA8A7"/>
<path d="M224.337 86.1278L220.398 84.247C220.508 83.985 220.67 83.7482 220.875 83.5508C221.079 83.3535 221.322 83.1998 221.587 83.0991C221.853 82.9983 222.136 82.9527 222.42 82.9649C222.704 82.9771 222.982 83.0469 223.238 83.1701C223.766 83.4275 224.175 83.8783 224.38 84.429C224.584 84.9797 224.569 85.588 224.337 86.1278Z" fill="#263238"/>
<path d="M206.768 83.8782L203.08 86.2016C202.92 85.97 202.809 85.7085 202.753 85.4328C202.697 85.1572 202.697 84.8731 202.753 84.5975C202.81 84.3219 202.922 84.0606 203.082 83.8293C203.242 83.5979 203.447 83.4013 203.685 83.2512C204.181 82.9394 204.778 82.8306 205.352 82.9474C205.926 83.0641 206.433 83.3974 206.768 83.8782Z" fill="#263238"/>
<path d="M191.072 88.9085L191.315 97.5235C191.881 97.5367 192.444 97.4348 192.97 97.224C193.495 97.0132 193.972 96.6979 194.372 96.2972C194.772 95.8965 195.087 95.4188 195.297 94.8929C195.507 94.3671 195.607 93.8041 195.593 93.2381C195.542 92.0732 195.043 90.9729 194.201 90.1663C193.359 89.3598 192.238 88.9093 191.072 88.9085Z" fill="#37474F"/>
<path d="M209.814 91.2909C209.817 91.6378 209.717 91.9777 209.528 92.2685C209.339 92.5593 209.068 92.7882 208.75 92.9266C208.432 93.065 208.081 93.107 207.739 93.0472C207.397 92.9874 207.081 92.8286 206.828 92.5904C206.576 92.3523 206.4 92.0452 206.32 91.7075C206.241 91.3698 206.263 91.0163 206.383 90.6908C206.503 90.3654 206.716 90.0824 206.996 89.877C207.275 89.6716 207.609 89.5528 207.955 89.5355C208.193 89.5276 208.43 89.5669 208.652 89.6511C208.874 89.7352 209.078 89.8626 209.251 90.0258C209.423 90.189 209.562 90.3848 209.659 90.602C209.756 90.8191 209.808 91.0533 209.814 91.2909Z" fill="#263238"/>
<path d="M211.341 103.756L216.01 105.231C215.926 105.544 215.78 105.837 215.58 106.092C215.38 106.348 215.131 106.56 214.847 106.716C214.563 106.873 214.251 106.97 213.928 107.003C213.606 107.035 213.28 107.002 212.971 106.906C212.345 106.693 211.826 106.246 211.522 105.659C211.218 105.072 211.153 104.39 211.341 103.756Z" fill="#F28F8F"/>
<path d="M223.511 90.5533C223.514 90.9002 223.414 91.2401 223.225 91.5309C223.036 91.8217 222.765 92.0506 222.447 92.189C222.129 92.3274 221.778 92.3694 221.436 92.3096C221.094 92.2498 220.778 92.091 220.525 91.8528C220.273 91.6147 220.097 91.3076 220.017 90.9699C219.938 90.6322 219.96 90.2787 220.08 89.9532C220.2 89.6278 220.413 89.3448 220.693 89.1394C220.972 88.934 221.306 88.8152 221.652 88.7979C221.89 88.79 222.127 88.8293 222.349 88.9135C222.571 88.9976 222.775 89.125 222.948 89.2882C223.12 89.4514 223.259 89.6472 223.356 89.8644C223.453 90.0815 223.505 90.3157 223.511 90.5533Z" fill="#263238"/>
<path d="M214.859 89.5355L215.147 100.201L220.752 98.4603L214.859 89.5355Z" fill="#F28F8F"/>
<path d="M208.922 113.61C204.393 113.02 195.077 110.343 193.624 106.655C193.624 106.655 194.111 108.971 196.892 111.361C199.672 113.75 208.922 116.435 208.922 116.435V113.61Z" fill="#F28F8F"/>
<path d="M274.987 152.466C274.987 152.466 274.81 149.87 278.233 147.34C281.655 144.81 286.125 142.782 287.585 136.498L292.298 139.219L284.362 152.57L274.987 152.466Z" fill="#052659"/>
<path opacity="0.75" d="M274.987 152.466C274.987 152.466 274.81 149.87 278.233 147.34C281.655 144.81 286.125 142.782 287.585 136.498L292.298 139.219L284.362 152.57L274.987 152.466Z" fill="white"/>
<path d="M274.987 152.466C274.987 152.466 269.824 149.885 258.546 152.216C247.269 154.546 238.034 157.563 216.349 157.084L221.977 160.336L278.277 157.076L274.987 152.466Z" fill="#052659"/>
<path opacity="0.75" d="M274.987 152.466C274.987 152.466 269.824 149.885 258.546 152.216C247.269 154.546 238.034 157.563 216.349 157.084L221.977 160.336L278.277 157.076L274.987 152.466Z" fill="white"/>
<path d="M216.349 157.084L196.22 221.866L201.848 225.119L221.977 160.336L216.349 157.084Z" fill="#052659"/>
<path opacity="0.8" d="M216.349 157.084L196.22 221.866L201.848 225.119L221.977 160.336L216.349 157.084Z" fill="white"/>
<path opacity="0.1" d="M216.349 157.084L196.22 221.866L201.848 225.119L221.977 160.336L216.349 157.084Z" fill="black"/>
<g opacity="0.1">
<path d="M287.578 139.979C287.051 141.333 286.264 142.571 285.262 143.623C284.25 144.676 283.171 145.661 282.031 146.573C280.884 147.431 279.822 148.396 278.86 149.457C278.408 149.978 278.026 150.556 277.724 151.176C277.439 151.771 277.299 152.426 277.318 153.086L276.632 153.189C276.619 152.398 276.807 151.616 277.178 150.917C277.517 150.249 277.944 149.629 278.447 149.073C279.47 148.031 280.591 147.09 281.795 146.263C282.957 145.41 284.066 144.487 285.114 143.497C286.156 142.495 286.992 141.3 287.578 139.979Z" fill="black"/>
<path d="M286.678 143.63C286.198 144.439 285.615 145.183 284.945 145.843C284.296 146.529 283.632 147.185 282.998 147.879C282.363 148.56 281.795 149.301 281.301 150.091C280.817 150.845 280.514 151.701 280.416 152.592L279.723 152.503C279.896 151.529 280.287 150.606 280.866 149.804C281.426 149.032 282.058 148.316 282.754 147.665C283.433 147.008 284.141 146.389 284.819 145.747C285.528 145.124 286.152 144.413 286.678 143.63Z" fill="black"/>
<path d="M238.034 157.563C241.115 157.283 244.179 156.833 247.21 156.213C250.249 155.601 253.251 154.849 256.267 154.148C259.292 153.409 262.389 153.006 265.502 152.946C267.066 152.897 268.631 152.958 270.186 153.13C270.971 153.216 271.747 153.364 272.509 153.573C273.317 153.773 274.071 154.145 274.722 154.664L274.242 155.166C273.68 154.712 273.029 154.381 272.332 154.192C271.607 153.984 270.867 153.829 270.119 153.728C268.598 153.532 267.065 153.443 265.531 153.462C262.437 153.462 259.352 153.806 256.334 154.487C253.31 155.129 250.286 155.83 247.239 156.383C244.195 156.945 241.122 157.339 238.034 157.563Z" fill="black"/>
<path d="M252.919 157.283C254.667 157.047 256.385 156.685 258.119 156.353C259.852 156.022 261.585 155.704 263.333 155.476C265.089 155.217 266.862 155.099 268.637 155.122C270.442 155.119 272.232 155.449 273.918 156.095L273.638 156.73C272.044 156.061 270.342 155.691 268.615 155.638C266.867 155.561 265.116 155.62 263.378 155.815C261.63 155.992 259.889 156.25 258.148 156.553C256.407 156.855 254.674 157.076 252.919 157.283Z" fill="black"/>
</g>
<path d="M292.313 135.981L283.034 151.803L261.438 221.269L264.255 222.891L273.519 203.493L295.116 137.597L292.313 135.981Z" fill="#052659"/>
<path opacity="0.2" d="M285.845 153.433L295.116 137.597L273.519 203.493L264.255 222.891L285.845 153.433Z" fill="black"/>
<path d="M273.778 157.15L218.252 160.713L196.656 230.171L199.473 231.794L254.999 228.231L276.588 158.773L273.778 157.15Z" fill="#052659"/>
<path opacity="0.2" d="M221.062 162.335L199.473 231.794L254.999 228.231L276.588 158.773L221.062 162.335Z" fill="black"/>
<path d="M209.246 228.563C209.194 228.562 209.142 228.55 209.095 228.527C209.048 228.504 209.006 228.471 208.973 228.43C208.94 228.386 208.917 228.334 208.907 228.279C208.897 228.224 208.899 228.167 208.914 228.113C209.086 227.56 209.121 226.972 209.016 226.402C208.911 225.832 208.668 225.295 208.31 224.84C207.951 224.384 207.487 224.022 206.958 223.785C206.428 223.549 205.849 223.444 205.27 223.481C205.214 223.484 205.158 223.473 205.107 223.45C205.056 223.427 205.011 223.392 204.975 223.349C204.939 223.305 204.915 223.253 204.905 223.198C204.894 223.142 204.898 223.085 204.916 223.031L221.342 170.198C221.363 170.132 221.403 170.073 221.456 170.03C221.51 169.987 221.576 169.96 221.645 169.955C223.16 169.854 224.609 169.298 225.803 168.359C226.997 167.421 227.879 166.144 228.335 164.696C228.356 164.628 228.396 164.569 228.452 164.526C228.507 164.482 228.574 164.457 228.645 164.452L266.793 162.003C266.849 162.001 266.905 162.012 266.956 162.035C267.007 162.058 267.052 162.093 267.088 162.136C267.122 162.18 267.146 162.232 267.156 162.287C267.167 162.343 267.163 162.4 267.147 162.453C266.97 163.007 266.933 163.595 267.039 164.166C267.144 164.738 267.389 165.274 267.751 165.728C268.105 166.19 268.568 166.555 269.099 166.793C269.629 167.03 270.211 167.13 270.79 167.085C270.847 167.081 270.903 167.091 270.955 167.114C271.006 167.138 271.051 167.173 271.085 167.218C271.121 167.262 271.146 167.314 271.156 167.369C271.166 167.425 271.162 167.482 271.144 167.535L254.726 220.369C254.704 220.435 254.663 220.494 254.608 220.537C254.553 220.581 254.486 220.607 254.416 220.612C252.901 220.715 251.453 221.272 250.26 222.21C249.066 223.148 248.183 224.424 247.726 225.871C247.706 225.939 247.666 225.999 247.61 226.042C247.554 226.086 247.487 226.111 247.416 226.114L209.268 228.563H209.246ZM205.72 222.781C206.329 222.813 206.923 222.975 207.464 223.256C208.004 223.537 208.479 223.93 208.855 224.409C209.231 224.888 209.501 225.442 209.646 226.034C209.791 226.626 209.808 227.242 209.696 227.84L247.143 225.436C247.66 223.947 248.594 222.637 249.833 221.663C251.073 220.689 252.566 220.091 254.136 219.941L270.362 167.786C269.754 167.754 269.158 167.593 268.617 167.313C268.075 167.032 267.6 166.639 267.223 166.16C266.846 165.681 266.575 165.126 266.43 164.534C266.284 163.942 266.267 163.326 266.38 162.726L228.94 165.131C228.421 166.619 227.487 167.928 226.248 168.902C225.008 169.876 223.516 170.474 221.947 170.626L205.72 222.781Z" fill="#FAFAFA"/>
<path opacity="0.3" d="M218.252 160.713L221.062 162.335L199.473 231.794L196.656 230.171L218.252 160.713Z" fill="black"/>
<path d="M276.588 158.773L285.837 153.433L264.248 222.891C262.81 226.638 259.631 228.312 254.991 228.231L276.588 158.773Z" fill="#052659"/>
<path opacity="0.3" d="M276.588 158.773L285.837 153.433L264.248 222.891C262.633 226.852 259.365 228.364 254.991 228.231L276.588 158.773Z" fill="black"/>
<path d="M282.717 151.626C280.999 150.615 277.554 150.991 274.987 152.466C272.42 153.942 271.757 155.948 273.475 156.958L276.588 158.773L285.837 153.433L283.027 151.803L282.717 151.626Z" fill="#455A64"/>
<path d="M271.653 174.631C274.987 174.697 278.609 174.277 280.224 171.518L282.37 164.644C280.342 167.417 277.687 168.863 273.519 168.745L271.653 174.631Z" fill="#E0E0E0"/>
<path d="M283.034 151.803C282.489 154.473 279.081 156.14 273.778 157.15L276.588 158.773C281.146 158.249 284.155 156.405 285.845 153.433L283.034 151.803Z" fill="#052659"/>
<path d="M179.625 123.56C173.857 123.907 167.727 125.825 165.101 136.262C162.476 146.698 155.328 181.712 154.775 186.418C154.222 191.123 154.111 194.922 165.419 198.543C178.179 202.622 198.802 204.223 204.629 204.533C215.375 205.115 222.537 201.951 225.967 195.778C229.397 189.604 230.393 181.387 220.745 185.37C210.507 189.604 206.215 189.707 206.215 189.707L208.177 183.393C204.968 184.787 202.276 189.176 199.067 189.707C196.22 190.187 174.543 182.685 174.543 182.685L181.918 151.212C181.918 151.212 188.653 131.379 179.625 123.56Z" fill="#FFA8A7"/>
<path d="M180.694 111.914C179.487 113.246 178.207 114.509 176.859 115.698C174.27 118.22 172.433 120.426 171.231 123.811C170.029 127.197 170.184 131.268 172.367 134.137C174.55 137.007 178.267 138.342 179.809 141.513C180.547 143.033 180.694 144.773 180.938 146.455C181.454 150.091 182.575 153.735 184.81 156.656C188.431 161.406 196.176 163.803 201.125 159.473C202.678 157.971 203.786 156.07 204.326 153.978C205.736 149.754 205.64 145.173 204.054 141.012C202.578 137.368 199.753 134.447 197.15 131.489C194.826 128.849 191.758 125.419 191.249 121.775C191.249 121.775 191.153 114.997 191.205 111.781C191.205 110.21 191.205 108.624 189.685 107.798C188.516 107.102 187.215 106.655 185.865 106.485C183.785 106.382 183.431 106.64 183.431 106.64C182.858 108.554 181.93 110.344 180.694 111.914Z" fill="#37474F"/>
<path d="M284.318 170.353C283.646 168.14 281.161 172.293 280.069 178.629C279.029 184.692 277.598 191.027 277.598 191.027L275.924 196.191C275.924 196.191 279.929 193.712 283.197 186.919C286.464 180.126 286.221 176.6 284.318 170.353Z" fill="#FFA8A7"/>
</svg>
