<svg width="121" height="120" viewBox="0 0 121 120" fill="none" xmlns="http://www.w3.org/2000/svg">
<path fill-rule="evenodd" clip-rule="evenodd" d="M108.5 60C108.5 86.5097 87.0097 108 60.5 108C33.9903 108 12.5 86.5097 12.5 60C12.5 33.4903 33.9903 12 60.5 12C87.0097 12 108.5 33.4903 108.5 60ZM72.5 42C72.5 48.6274 67.1274 54 60.5 54C53.8726 54 48.5 48.6274 48.5 42C48.5 35.3726 53.8726 30 60.5 30C67.1274 30 72.5 35.3726 72.5 42ZM60.4996 66C48.3943 66 37.9637 73.1697 33.2224 83.4943C39.8242 91.1522 49.5959 96 60.4999 96C71.4037 96 81.1752 91.1524 87.777 83.4948C83.0358 73.1699 72.605 66 60.4996 66Z" fill="#111827"/>
<rect x="71.5" y="71" width="35" height="35" rx="17.5" fill="white"/>
<rect x="74" y="73.5" width="30" height="30" rx="15" fill="#E6E6E6"/>
<path d="M92.5858 82.0858C93.3668 81.3047 94.6332 81.3047 95.4142 82.0858C96.1953 82.8668 96.1953 84.1332 95.4142 84.9142L94.6213 85.7071L91.7929 82.8787L92.5858 82.0858Z" fill="#111827"/>
<path d="M90.3787 84.2929L82 92.6716V95.5H84.8284L93.2071 87.1213L90.3787 84.2929Z" fill="#111827"/>
</svg>
