<svg width="120" height="120" viewBox="0 0 120 120" fill="none" xmlns="http://www.w3.org/2000/svg">
<path fill-rule="evenodd" clip-rule="evenodd" d="M108 60C108 86.5097 86.5097 108 60 108C33.4903 108 12 86.5097 12 60C12 33.4903 33.4903 12 60 12C86.5097 12 108 33.4903 108 60ZM72 42C72 48.6274 66.6274 54 60 54C53.3726 54 48 48.6274 48 42C48 35.3726 53.3726 30 60 30C66.6274 30 72 35.3726 72 42ZM59.9996 66C47.8943 66 37.4637 73.1697 32.7224 83.4943C39.3242 91.1522 49.0959 96 59.9999 96C70.9037 96 80.6752 91.1524 87.277 83.4948C82.5358 73.1699 72.105 66 59.9996 66Z" fill="white"/>
</svg>
