<svg width="66" height="47" viewBox="0 0 66 47" fill="none" xmlns="http://www.w3.org/2000/svg">
<path opacity="0.48" d="M31.9134 46.2081C20.172 46.039 13.8084 46.0936 10.5258 41.7479C7.24302 37.4023 10.0783 33.5716 11.4212 30.2549C12.7642 26.9385 10.8243 23.6792 10.4265 20.1341C10.0286 16.5889 11.8349 12.0146 16.411 9.78451C20.9868 7.55471 21.717 10.6425 26.7407 4.80987C31.764 -1.02214 38.4788 -0.507656 42.9555 3.03746C47.4319 6.58257 57.0336 0.53677 55.7818 7.21683C61.34 7.21683 57.3483 24.7084 59.4873 30.2549C62.2218 37.3474 55.7378 46.551 31.9134 46.2081Z" fill="url(#paint0_linear_500_502)"/>
<path d="M11.3295 6.23541L11.315 6.24911L11.2723 6.28941L11.1068 6.44174C10.4704 6.44577 8.95659 6.44819 7.18914 6.44819C5.4217 6.44819 3.907 6.44819 3.27148 6.44174C3.19784 6.37646 3.14147 6.32487 3.10238 6.28941L3.05874 6.24911L3.04419 6.23541L3.06055 6.2475L3.1051 6.28619C3.14602 6.32084 3.2033 6.37162 3.27785 6.4361C3.91427 6.43207 5.42806 6.42884 7.19551 6.42884C8.96295 6.42884 10.4776 6.42884 11.1132 6.4361L11.2859 6.28619L11.3305 6.2475L11.3295 6.23541Z" fill="#E0E0E0"/>
<path d="M3.03394 13.5882L3.04848 13.5745L3.09212 13.5342L3.26123 13.3819C3.89766 13.3819 5.41144 13.3754 7.17889 13.3754C8.94633 13.3754 10.461 13.3754 11.0965 13.3819L11.2657 13.5342L11.3084 13.5745L11.3229 13.5882L11.3066 13.5761L11.262 13.5374L11.0893 13.3875C10.4528 13.3875 8.93906 13.394 7.17161 13.394C5.40417 13.394 3.88947 13.394 3.25396 13.3875C3.1794 13.452 3.12213 13.5028 3.08121 13.5374L3.03666 13.5761L3.03394 13.5882Z" fill="#E0E0E0"/>
<path d="M11.3295 15.7603C11.3251 15.7654 11.3202 15.7703 11.315 15.7748L11.2722 15.8143L11.1031 15.9674C10.4667 15.9674 8.95292 15.9746 7.18548 15.9746C5.41803 15.9746 3.90334 15.9746 3.26782 15.9674C3.19418 15.9013 3.13781 15.8505 3.09871 15.8143L3.05507 15.7748C3.04983 15.7703 3.04496 15.7654 3.04053 15.7603C3.04634 15.7642 3.05181 15.7685 3.05689 15.7731L3.10144 15.8118C3.14236 15.8465 3.19963 15.8924 3.27419 15.9617C3.91061 15.9577 5.4244 15.9553 7.19184 15.9553C8.95929 15.9553 10.474 15.9553 11.1095 15.9617L11.2822 15.8118L11.3268 15.7731C11.3275 15.7688 11.3284 15.7645 11.3295 15.7603Z" fill="#E0E0E0"/>
<path d="M3.03394 23.1139C3.03837 23.1087 3.04323 23.1039 3.04848 23.0994L3.09212 23.0599L3.26123 22.9067C3.89766 22.9027 5.41144 22.8995 7.17889 22.8995C8.94633 22.8995 10.461 22.8995 11.0965 22.9067L11.2657 23.0599L11.3084 23.0994C11.3136 23.1039 11.3185 23.1087 11.3229 23.1139C11.3171 23.1099 11.3116 23.1056 11.3066 23.101L11.262 23.0631L11.0893 22.9132C10.4528 22.9172 8.93906 22.9196 7.17161 22.9196C5.40417 22.9196 3.88947 22.9196 3.25396 22.9132L3.08121 23.0631L3.03666 23.101C3.036 23.1053 3.03509 23.1096 3.03394 23.1139Z" fill="#E0E0E0"/>
<path d="M8.62174 40.4267C10.3089 40.4267 11.6766 40.0843 11.6766 39.6619C11.6766 39.2395 10.3089 38.897 8.62174 38.897C6.93459 38.897 5.56689 39.2395 5.56689 39.6619C5.56689 40.0843 6.93459 40.4267 8.62174 40.4267Z" fill="#F5F5F5"/>
<path d="M58.9943 37.0682C58.486 36.5694 57.7705 36.2849 57.0768 36.0132L52.3691 36.056C52.1218 36.2357 52.2781 36.5887 52.4554 36.8248C53.1137 37.6985 53.8738 38.5375 54.8693 39.1089C55.8649 39.6804 57.1286 39.9536 58.2578 39.636C58.7042 39.5103 59.1352 39.2822 59.3688 38.9228C59.748 38.3409 59.5025 37.5663 58.9943 37.0682Z" fill="#F5F5F5"/>
<path d="M49.8739 40.1583H16.5952L17.3462 38.4094H49.203L49.8739 40.1583Z" fill="#F5F5F5"/>
<path d="M38.3618 7.61684C38.3605 7.60936 38.3605 7.60175 38.3618 7.59427C38.3618 7.57735 38.3618 7.55639 38.3618 7.5298C38.3618 7.47096 38.3618 7.38875 38.3573 7.28317C38.3573 7.06717 38.3518 6.75607 38.3482 6.36438L38.3654 6.37888L32.8358 6.38856L32.864 6.36438V6.68676C32.864 6.79315 32.864 6.89873 32.864 7.0035V7.61926L32.8367 7.59589L36.7753 7.60636L37.9372 7.61362H38.2518H38.3345H38.3636C38.3552 7.61488 38.3466 7.61488 38.3382 7.61362H38.2591H37.9508L36.7944 7.62006L32.8358 7.63941H32.8076V6.36518L32.8358 6.341L38.3627 6.35067H38.3818V6.36518C38.3773 6.76091 38.3745 7.07443 38.3718 7.29284C38.3718 7.39681 38.3718 7.47821 38.3718 7.53463C38.3718 7.55962 38.3718 7.58057 38.3718 7.59669C38.3718 7.61281 38.3618 7.61765 38.3618 7.61684Z" fill="#E0E0E0"/>
<path d="M62.1334 19.6708C62.1326 19.6633 62.1326 19.6558 62.1334 19.6482C62.1334 19.6313 62.1334 19.6104 62.1334 19.5838C62.1334 19.5249 62.1334 19.4427 62.1334 19.342C62.1334 19.1252 62.1279 18.8141 62.1234 18.4224L62.1407 18.4369L56.6138 18.4466L56.642 18.4224V19.0583C56.642 19.267 56.642 19.4725 56.642 19.674L56.6147 19.6507L60.5532 19.6611L61.7161 19.6684H62.0307H62.1125H62.1416C62.1332 19.6697 62.1245 19.6697 62.1161 19.6684H62.037H61.7288L60.5723 19.6748L56.6147 19.6861H56.5874V19.6619C56.5874 19.4605 56.5874 19.2549 56.5874 19.0462V18.4103L56.6156 18.3861L62.1425 18.3958H62.1598V18.4103C62.1598 18.806 62.1525 19.1195 62.1507 19.3379C62.1507 19.4419 62.1507 19.5233 62.1461 19.5797C62.1461 19.6055 62.1461 19.6257 62.1461 19.6418C62.1461 19.6579 62.1343 19.6716 62.1334 19.6708Z" fill="#E0E0E0"/>
<path d="M20.9631 31.2613C20.9624 31.2533 20.9624 31.2452 20.9631 31.2371C20.9631 31.2186 20.9631 31.1952 20.9631 31.167C20.9631 31.1025 20.9631 31.0131 20.9586 30.8978C20.9586 30.6625 20.9531 30.324 20.9486 29.8968L20.9668 29.9129L15.1844 29.9226L15.2135 29.8968V30.245C15.2135 30.3603 15.2135 30.4755 15.2135 30.5891V31.2605L15.1844 31.2347L19.3057 31.2468L20.5222 31.2541H20.8513H20.9367H20.9677C20.9586 31.2555 20.9494 31.2555 20.9404 31.2541H20.8586L20.5358 31.2581L19.3257 31.2653L15.1844 31.2766H15.1553V29.8976L15.1853 29.871L20.9677 29.8815H20.9858V29.8976C20.9813 30.3288 20.9777 30.6705 20.9758 30.9083C20.9758 31.0219 20.9758 31.1098 20.9713 31.1735C20.9713 31.2009 20.9713 31.2234 20.9713 31.2404C20.9695 31.2476 20.9668 31.2546 20.9631 31.2613Z" fill="#E0E0E0"/>
<path d="M21.7441 29.8968C21.7441 29.8968 21.7441 29.8872 21.7441 29.8702C21.7441 29.8533 21.7441 29.8275 21.7441 29.7985C21.7441 29.7308 21.7441 29.6373 21.7441 29.5245C21.7441 29.2827 21.7369 28.9474 21.7323 28.5315L21.7532 28.5501L18.2793 28.5581L18.3083 28.5315V29.2319C18.3083 29.4608 18.3083 29.6825 18.3083 29.8944L18.2811 29.8694L20.7659 29.8807L21.4932 29.888H21.6887C21.7117 29.8862 21.7348 29.8862 21.7578 29.888C21.7369 29.889 21.7159 29.889 21.695 29.888H21.5059L20.7877 29.8952L18.2838 29.9073H18.2556V29.8823C18.2556 29.6704 18.2556 29.4487 18.2556 29.2198C18.2556 29.1062 18.2556 28.9901 18.2556 28.8725V28.5195L18.2856 28.4929L21.7441 28.5138H21.766V28.5324C21.7605 28.9531 21.7569 29.2948 21.7541 29.5366C21.7541 29.6502 21.7541 29.7405 21.7487 29.8066C21.7498 29.8367 21.7483 29.8669 21.7441 29.8968Z" fill="#E0E0E0"/>
<path d="M58.3004 9.24403C58.299 9.23602 58.299 9.22786 58.3004 9.21985C58.3004 9.20131 58.3004 9.17794 58.3004 9.14973C58.3004 9.08525 58.3004 8.99579 58.3004 8.88135C58.3004 8.6452 58.2949 8.3067 58.2904 7.87954L58.3086 7.89566L52.5253 7.90533C52.5389 7.89404 52.4953 7.93192 52.5544 7.87954V9.24403L52.5253 9.21904L56.6466 9.23033L57.8631 9.23758H58.1913H58.2822H58.3131C58.3041 9.23863 58.2949 9.23863 58.2858 9.23758H58.2031H57.8804L56.6711 9.24483L52.5298 9.25612H52.5007V8.57266C52.5007 8.45902 52.5007 8.34458 52.5007 8.22852V7.88115C52.5598 7.82876 52.518 7.86664 52.5307 7.85455L58.314 7.86503H58.3313V7.88115C58.3313 8.31234 58.324 8.65407 58.3213 8.89182C58.3213 9.00546 58.3213 9.09412 58.3213 9.15699C58.3213 9.18439 58.3213 9.20695 58.3213 9.22469C58.3213 9.24242 58.3004 9.24484 58.3004 9.24403Z" fill="#E0E0E0"/>
<path d="M62.958 28.7088C62.9573 28.7005 62.9573 28.6922 62.958 28.6839C62.958 28.6661 62.958 28.6428 62.958 28.6137C62.958 28.5501 62.958 28.4606 62.958 28.3454C62.958 28.11 62.9525 27.7707 62.948 27.3443L62.9662 27.3597L57.1838 27.3701L57.2129 27.3443V28.0359C57.2129 28.2642 57.2129 28.488 57.2129 28.7072L57.1838 28.6814L61.3051 28.6935L62.5216 28.7008H62.8507H62.9416H62.9716C62.9629 28.7022 62.954 28.7022 62.9453 28.7008H62.8625H62.5398L61.3297 28.7088L57.1883 28.7201H57.1602V28.6943C57.1602 28.4751 57.1602 28.2513 57.1602 28.023V27.3315C57.2193 27.2783 57.1765 27.3161 57.1902 27.3049L62.9725 27.3153H62.9907V27.3315C62.9907 27.7626 62.9825 28.1044 62.9807 28.3421C62.9807 28.4558 62.9807 28.5436 62.9807 28.6073C62.9807 28.6347 62.9807 28.6565 62.9807 28.6742C62.9761 28.6871 62.9683 28.6989 62.958 28.7088Z" fill="#E0E0E0"/>
<path d="M63.7425 27.3435C63.7414 27.335 63.7414 27.3263 63.7425 27.3178C63.7425 27.2984 63.7425 27.2742 63.7425 27.2452C63.7425 27.1781 63.7407 27.087 63.7371 26.972C63.7371 26.7302 63.7298 26.3949 63.7252 25.9791L63.7471 25.9976L60.2722 26.0048L60.3013 25.9791V26.681C60.3013 26.9099 60.3013 27.1305 60.3013 27.3427L60.2731 27.3178L62.7588 27.3298L63.4861 27.3371H63.6816H63.7516C63.7305 27.3391 63.7091 27.3391 63.688 27.3371H63.4989L62.7806 27.3444L60.2767 27.3564H60.2485V27.3307C60.2485 27.119 60.2485 26.8984 60.2485 26.669C60.2485 26.5553 60.2485 26.4393 60.2485 26.3216V25.967L60.2785 25.9404L63.7534 25.9476H63.7743V25.967C63.7743 26.3877 63.7652 26.7294 63.7625 26.9712C63.7625 27.0848 63.7625 27.1743 63.7571 27.2404C63.7516 27.3065 63.748 27.3452 63.7425 27.3435Z" fill="#E0E0E0"/>
<path d="M65.6428 32.6126C65.6428 32.6251 51.0914 32.6342 33.1442 32.6342C15.197 32.6342 0.642822 32.6251 0.642822 32.6126C0.642822 32.6002 15.1897 32.5911 33.1442 32.5911C51.0987 32.5911 65.6428 32.6011 65.6428 32.6126Z" fill="#263238"/>
<path d="M15.113 9.97583V27.4797H48.3499V10.0194L15.113 9.97583Z" fill="#263238"/>
<path d="M33.1823 26.6456C33.2999 26.8629 33.3534 27.1031 33.3378 27.3438C33.3223 27.5844 33.2381 27.8177 33.0933 28.0217C32.9484 28.2257 32.7476 28.3938 32.5096 28.5103C32.2715 28.6268 32.004 28.6879 31.7321 28.6879C31.4602 28.6879 31.1927 28.6268 30.9547 28.5103C30.7166 28.3938 30.5158 28.2257 30.371 28.0217C30.2261 27.8177 30.142 27.5844 30.1264 27.3438C30.1109 27.1031 30.1644 26.8629 30.282 26.6456H29.3037V32.0947H34.1606V26.6456H33.1823Z" fill="#263238"/>
<path d="M48.3499 26.5085H15.113V27.6078H48.3499V26.5085Z" fill="#263238"/>
<path d="M48.0491 10.2845H15.415V26.5085H48.0491V10.2845Z" fill="#263238"/>
<path d="M38.1908 31.7449H25.2732V32.6121H38.1908V31.7449Z" fill="#263238"/>
<g opacity="0.1">
<path d="M37.1677 10.2845L19.5706 26.5085H25.0193L42.7683 10.2845H37.1677Z" fill="white"/>
</g>
<g opacity="0.1">
<path d="M15.5696 10.4022L15.6396 21.0288L27.3198 10.3522L15.5696 10.4022Z" fill="white"/>
</g>
<g opacity="0.1">
<path d="M44.0461 10.2845L26.448 26.5085H28.5918L46.3409 10.2845H44.0461Z" fill="white"/>
</g>
<g opacity="0.1">
<path d="M28.0826 10.2845L15.5696 21.821V23.8206L30.3774 10.2845H28.0826Z" fill="white"/>
</g>
<g opacity="0.1">
<path d="M48.0489 15.5813C48.0489 15.6949 35.7822 26.4545 35.7822 26.4545H40.9109L47.9852 20.1833L48.0489 15.5813Z" fill="white"/>
</g>
<path d="M16.065 25.9749C16.0513 25.9749 16.0413 22.6423 16.0413 18.5311C16.0413 14.4199 16.0513 11.0872 16.065 11.0872C16.0787 11.0872 16.0888 14.4191 16.0888 18.5311C16.0888 22.6431 16.0778 25.9749 16.065 25.9749Z" fill="white"/>
<path d="M34.3817 27.614C34.3817 27.6265 33.2234 27.6356 31.7941 27.6356C30.3649 27.6356 29.2075 27.6265 29.2075 27.614C29.2075 27.6016 30.3658 27.5925 31.7941 27.5925C33.2225 27.5925 34.3817 27.6025 34.3817 27.614Z" fill="#455A64"/>
<path d="M38.1279 31.7381C38.1279 31.7497 35.2431 31.7597 31.6846 31.7597C28.126 31.7597 25.2412 31.7497 25.2412 31.7381C25.2412 31.7265 28.1251 31.7166 31.6846 31.7166C35.244 31.7166 38.1279 31.7299 38.1279 31.7381Z" fill="#455A64"/>
<path d="M60.5656 10.2845H51.2555C50.6128 10.2845 50.0918 10.7464 50.0918 11.3162V31.2742C50.0918 31.844 50.6128 32.3058 51.2555 32.3058H60.5656C61.2083 32.3058 61.7293 31.844 61.7293 31.2742V11.3162C61.7293 10.7464 61.2083 10.2845 60.5656 10.2845Z" fill="#263238"/>
<path d="M60.9101 11.8215H50.8V13.9162H60.9101V11.8215Z" fill="#455A64"/>
<path d="M59.5193 32.23H59.3021C59.1951 32.23 59.1084 32.3069 59.1084 32.4017V32.4283C59.1084 32.5231 59.1951 32.6 59.3021 32.6H59.5193C59.6263 32.6 59.713 32.5231 59.713 32.4283V32.4017C59.713 32.3069 59.6263 32.23 59.5193 32.23Z" fill="#263238"/>
<path d="M52.5403 32.23H52.3231C52.2161 32.23 52.1294 32.3069 52.1294 32.4017V32.4283C52.1294 32.5231 52.2161 32.6 52.3231 32.6H52.5403C52.6473 32.6 52.734 32.5231 52.734 32.4283V32.4017C52.734 32.3069 52.6473 32.23 52.5403 32.23Z" fill="#263238"/>
<path d="M60.6303 11.2896C60.6477 11.2883 60.6651 11.2858 60.6821 11.2823C60.7326 11.2712 60.7775 11.2454 60.8094 11.209C60.8324 11.1825 60.8479 11.1515 60.8549 11.1187C60.8616 11.079 60.8597 11.0385 60.8494 10.9994C60.8343 10.9509 60.7997 10.909 60.7521 10.8816C60.7046 10.8541 60.6474 10.843 60.5912 10.8503L58.3792 10.8568L51.0812 10.8632C51.0411 10.8633 51.0018 10.8734 50.968 10.8926C50.9342 10.9117 50.9072 10.939 50.8903 10.9712C50.8737 11.0044 50.8669 11.0407 50.8702 11.0768C50.8696 11.1033 50.8753 11.1297 50.8869 11.1541C50.8986 11.1786 50.9159 11.2005 50.9378 11.2186C50.9597 11.2368 50.9856 11.2506 51.0139 11.2592C51.0422 11.2678 51.0723 11.271 51.1021 11.2686H54.326L57.6073 11.2734L59.8193 11.2799H60.4203L59.8193 11.2839L57.6073 11.2904H54.326H52.3886H51.1021C51.054 11.2934 51.0059 11.2847 50.963 11.2651C50.9202 11.2454 50.8843 11.2157 50.8593 11.1791C50.8344 11.1422 50.8218 11.0997 50.823 11.0566C50.8196 11.0144 50.8281 10.972 50.8475 10.9333C50.8682 10.8938 50.9012 10.8604 50.9426 10.837C50.984 10.8135 51.0321 10.8011 51.0812 10.8011L58.3792 10.8068L60.5912 10.814C60.6554 10.8077 60.7201 10.8223 60.773 10.8551C60.8188 10.8844 60.851 10.9274 60.864 10.976C60.8725 11.0173 60.8725 11.0597 60.864 11.101C60.8564 11.1352 60.8396 11.1673 60.8149 11.1945C60.7809 11.2312 60.7337 11.2565 60.6812 11.2662C60.6662 11.2769 60.6489 11.2848 60.6303 11.2896Z" fill="#455A64"/>
<path d="M56.3045 15.6925C56.3047 15.7618 56.2817 15.8295 56.2384 15.8872C56.1951 15.9448 56.1335 15.9898 56.0614 16.0164C55.9892 16.0429 55.9098 16.0499 55.8332 16.0365C55.7566 16.023 55.6862 15.9897 55.631 15.9407C55.5757 15.8917 55.5381 15.8293 55.5229 15.7614C55.5077 15.6935 55.5156 15.6231 55.5456 15.5591C55.5756 15.4952 55.6263 15.4406 55.6913 15.4022C55.7563 15.3638 55.8328 15.3434 55.9109 15.3436C56.0153 15.3436 56.1154 15.3803 56.1892 15.4458C56.2631 15.5112 56.3045 15.6 56.3045 15.6925Z" fill="#263238"/>
<path d="M52.1286 32.2624C52.1742 32.2625 52.2179 32.2786 52.2505 32.3073H52.3414C52.3199 32.2743 52.2892 32.247 52.2524 32.228C52.2156 32.2089 52.1738 32.1988 52.1314 32.1987L52.0359 32.2624H52.1286Z" fill="#263238"/>
<path d="M51.9422 32.1987C51.8997 32.1988 51.858 32.2089 51.8212 32.228C51.7843 32.247 51.7537 32.2743 51.7322 32.3073H51.8231C51.8555 32.2784 51.8993 32.2623 51.9449 32.2624H51.9895L52.0804 32.1987H51.9422Z" fill="#263238"/>
<path d="M55.8987 23.3935C52.6857 25.5253 50.0854 27.2621 50.0918 27.2621C50.0982 27.2621 52.7075 25.547 55.9215 23.4161C59.1354 21.2851 61.7348 19.5474 61.7293 19.5426C61.7229 19.5402 59.1109 21.2601 55.8987 23.3935Z" fill="#455A64"/>
<path d="M55.8987 23.9633C52.6857 26.0951 50.0854 27.8319 50.0918 27.8319C50.0982 27.8319 52.7075 26.1168 55.9215 23.9859C59.1354 21.8549 61.7348 20.1173 61.7293 20.1124C61.7229 20.11 59.1109 21.8315 55.8987 23.9633Z" fill="#455A64"/>
<path d="M55.8987 24.5331C52.6857 26.6649 50.0854 28.4018 50.0918 28.4058C50.0982 28.4098 52.7075 26.6907 55.9215 24.5597C59.1354 22.4288 61.7348 20.6911 61.7293 20.6863C61.7229 20.6798 59.1109 22.4014 55.8987 24.5331Z" fill="#455A64"/>
<path d="M55.8987 25.103C52.6857 27.2347 50.0854 28.9716 50.0918 28.9756C50.0982 28.9796 52.7075 27.2605 55.9215 25.1296C59.1354 22.9986 61.7348 21.261 61.7293 21.2561C61.7229 21.2497 59.1109 22.9712 55.8987 25.103Z" fill="#455A64"/>
<path d="M55.8987 25.6728C52.6857 27.8046 50.0854 29.5414 50.0918 29.5454C50.0982 29.5495 52.7075 27.8304 55.9215 25.6994C59.1354 23.5684 61.7348 21.8308 61.7293 21.8259C61.7229 21.8195 59.1109 23.541 55.8987 25.6728Z" fill="#455A64"/>
<path d="M55.8987 26.2426C52.6857 28.3743 50.0854 30.1112 50.0918 30.1152C50.0982 30.1192 52.7075 28.4001 55.9215 26.2692C59.1354 24.1382 61.7348 22.4005 61.7293 22.3957C61.7229 22.3885 59.1109 24.1108 55.8987 26.2426Z" fill="#455A64"/>
<path d="M55.8987 26.8124C52.6857 28.9441 50.0854 30.681 50.0918 30.685C50.0982 30.6891 52.7075 28.9699 55.9215 26.839C59.1354 24.708 61.7348 22.9704 61.7293 22.9663C61.7229 22.9591 59.1109 24.6806 55.8987 26.8124Z" fill="#455A64"/>
<path d="M55.8987 27.3854C52.6857 29.5172 50.0854 31.254 50.0918 31.258C50.0982 31.2621 52.7075 29.543 55.9215 27.412C59.1354 25.281 61.7348 23.5434 61.7293 23.5394C61.7229 23.5289 59.1109 25.2504 55.8987 27.3854Z" fill="#455A64"/>
<path d="M55.8989 27.9496C52.9686 29.8936 50.5484 31.5063 50.1501 31.7803V31.7851C50.5547 31.5264 52.985 29.9226 55.9198 27.9762C59.1338 25.8444 61.7331 24.1076 61.7276 24.1035C61.7231 24.0987 59.111 25.8202 55.8989 27.9496Z" fill="#455A64"/>
<path d="M55.8989 28.5218C53.4041 30.1765 51.2794 31.5917 50.4565 32.1487L50.4675 32.1559C51.3012 31.6103 53.4296 30.2047 55.9225 28.5516C59.1365 26.4199 61.7358 24.683 61.7304 24.679C61.7231 24.6685 59.111 26.3901 55.8989 28.5218Z" fill="#455A64"/>
<path d="M55.8989 29.0917C53.8824 30.4296 52.1077 31.6103 51.0667 32.3058H51.1012C52.1513 31.6151 53.9197 30.4465 55.9199 29.1183C59.1338 26.9865 61.7331 25.2497 61.7277 25.2456C61.7231 25.2384 59.1111 26.9599 55.8989 29.0917Z" fill="#455A64"/>
<path d="M55.8989 29.6615C54.437 30.6287 53.1023 31.5192 52.0804 32.1987L51.9895 32.2615L51.9231 32.3059H51.9686L52.0358 32.2615L52.1313 32.1987C53.1514 31.5257 54.4761 30.6488 55.9244 29.6881C59.1383 27.5563 61.7377 25.8195 61.7322 25.8155C61.7231 25.8082 59.1111 27.5297 55.8989 29.6615Z" fill="#455A64"/>
<path d="M55.8992 30.2313L52.7761 32.3059H52.8289C53.7253 31.7135 54.7854 31.0115 55.9201 30.2579C59.134 28.1262 61.7334 26.3893 61.7279 26.3853C61.7234 26.378 59.1113 28.0996 55.8992 30.2313Z" fill="#455A64"/>
<path d="M55.899 30.8011L53.6333 32.3058H53.6897C54.3779 31.8513 55.1307 31.3516 55.9217 30.8277C59.1357 28.6959 61.735 26.9591 61.7295 26.9591C61.7232 26.9478 59.1111 28.6694 55.899 30.8011Z" fill="#455A64"/>
<path d="M55.8995 31.3709L54.4912 32.3059H54.5512L55.9223 31.3975C59.1362 29.2658 61.7356 27.5289 61.7301 27.5289C61.7237 27.5176 59.1117 29.2392 55.8995 31.3709Z" fill="#455A64"/>
<path d="M55.8988 31.9407L55.3533 32.3058H55.4142L55.9261 31.9673C59.14 29.8356 61.7394 28.0987 61.7339 28.0947C61.723 28.0874 59.1109 29.809 55.8988 31.9407Z" fill="#455A64"/>
<path d="M56.2083 32.3058H56.2692C59.3213 30.2813 61.7352 28.671 61.7297 28.6645C61.7233 28.6573 59.2786 30.27 56.2083 32.3058Z" fill="#455A64"/>
<path d="M57.0674 32.3059H57.1283C59.7649 30.5569 61.7351 29.2432 61.7297 29.2343C61.7242 29.2279 59.7231 30.5464 57.0674 32.3059Z" fill="#455A64"/>
<path d="M57.9292 32.3058H57.9865C60.1794 30.8487 61.735 29.8074 61.7305 29.8074C61.7241 29.7985 60.1431 30.8398 57.9292 32.3058Z" fill="#455A64"/>
<path d="M58.7893 32.3058H58.8429C60.5704 31.1549 61.7332 30.3788 61.7296 30.3715C61.725 30.3675 60.5413 31.1469 58.7893 32.3058Z" fill="#455A64"/>
<path d="M59.6514 32.3058H59.6986C60.9442 31.4765 61.7325 30.9478 61.7298 30.9437C61.7298 30.9437 60.9188 31.4692 59.6514 32.3058Z" fill="#455A64"/>
<path d="M61.7284 31.5136C61.7193 31.5136 61.2684 31.8102 60.5146 32.3059H60.5528C61.2865 31.8183 61.7239 31.5217 61.7284 31.5136Z" fill="#455A64"/>
<path d="M51.8469 12.2197H51.2705V12.5429H51.8469V12.2197Z" fill="#263238"/>
<path d="M53.046 12.2197H52.0923V12.5582H53.046V12.2197Z" fill="#263238"/>
<path d="M54.3046 12.2197H53.3508V12.5582H54.3046V12.2197Z" fill="#263238"/>
<path d="M60.4332 12.2197H59.4795V12.5582H60.4332V12.2197Z" fill="#263238"/>
<path d="M55.1392 12.3889C55.1392 12.4227 55.1278 12.4558 55.1067 12.4839C55.0855 12.512 55.0554 12.5339 55.0202 12.5468C54.9849 12.5597 54.9462 12.5631 54.9088 12.5565C54.8714 12.5499 54.8371 12.5337 54.8101 12.5098C54.7832 12.4859 54.7648 12.4554 54.7574 12.4223C54.7499 12.3891 54.7537 12.3548 54.7683 12.3236C54.7829 12.2923 54.8076 12.2657 54.8393 12.2469C54.871 12.2281 54.9083 12.2181 54.9464 12.2181C54.9718 12.218 54.9969 12.2223 55.0203 12.2309C55.0438 12.2394 55.065 12.252 55.083 12.2679C55.1009 12.2838 55.1151 12.3027 55.1247 12.3234C55.1344 12.3442 55.1393 12.3665 55.1392 12.3889Z" fill="#263238"/>
<path d="M55.7966 12.3889C55.7966 12.4227 55.7853 12.4558 55.7641 12.4839C55.743 12.512 55.7129 12.5339 55.6776 12.5468C55.6424 12.5597 55.6037 12.5631 55.5663 12.5565C55.5289 12.5499 55.4945 12.5337 55.4676 12.5098C55.4406 12.4859 55.4223 12.4554 55.4148 12.4223C55.4074 12.3891 55.4112 12.3548 55.4258 12.3236C55.4404 12.2923 55.4651 12.2656 55.4968 12.2469C55.5285 12.2281 55.5658 12.2181 55.6039 12.2181C55.655 12.2181 55.704 12.2361 55.7402 12.2681C55.7763 12.3002 55.7966 12.3436 55.7966 12.3889Z" fill="#263238"/>
<path d="M56.1746 16.1109C56.1746 16.1109 56.1573 16.1246 56.1219 16.1391C56.0702 16.1598 56.0154 16.1739 55.9591 16.181C55.8748 16.1919 55.7888 16.1875 55.7064 16.1681C55.6046 16.1435 55.5126 16.0941 55.4409 16.0255C55.3677 15.957 55.3206 15.8699 55.3064 15.7764C55.2962 15.7006 55.3091 15.6238 55.3436 15.554C55.3666 15.5074 55.4004 15.4657 55.4427 15.4315C55.4736 15.4073 55.4946 15.3992 55.4955 15.4008C55.4455 15.4484 55.4047 15.5028 55.3745 15.562C55.3468 15.6278 55.338 15.6988 55.3491 15.7684C55.3649 15.8528 55.409 15.9311 55.4755 15.9932C55.5413 16.0564 55.6252 16.1026 55.7182 16.127C55.7948 16.1471 55.875 16.1542 55.9546 16.148C56.0287 16.1392 56.1021 16.1268 56.1746 16.1109Z" fill="white"/>
<path d="M52.317 36.401C52.2345 36.3043 52.1849 36.1887 52.1743 36.0678C52.1636 35.947 52.1924 35.826 52.257 35.7191C52.4452 35.4185 52.8843 35.0542 53.9108 34.9382C55.7582 34.7294 56.4647 34.922 57.8057 35.757C59.1468 36.592 60.7042 38.3909 58.1312 38.7761C55.651 39.1477 54.1108 38.5335 52.317 36.401Z" fill="#455A64"/>
<g opacity="0.3">
<path d="M52.1827 35.9061C52.9006 36.0871 53.5595 36.4173 54.1047 36.8693C54.9929 37.6148 55.5975 38.7318 55.5975 38.7318C55.5975 38.7318 53.9747 38.8181 52.9736 38.0016C51.9726 37.1852 52.1827 35.9061 52.1827 35.9061Z" fill="black"/>
</g>
<path d="M53.7691 34.9808C54.0801 34.9945 54.3601 35.142 54.6465 35.2492C54.7149 35.2836 54.7955 35.2937 54.872 35.2774C54.9774 35.242 54.9902 35.1718 54.9411 35.0816C54.8663 34.9833 54.7575 34.9092 54.631 34.8704C54.2574 34.7463 53.8846 34.731 53.6646 34.8607C53.6209 34.8865 53.5227 34.9687 53.5318 35.0147L53.7691 34.9808Z" fill="#263238"/>
<path d="M49.3196 39.1573H17.372C17.3184 39.1573 17.267 39.1386 17.2289 39.1053C17.1908 39.072 17.169 39.0267 17.1683 38.9792L17.1628 38.6246L49.5651 38.5722V38.9381C49.5651 38.996 49.5393 39.0515 49.4933 39.0926C49.4473 39.1336 49.3849 39.1569 49.3196 39.1573Z" fill="#263238"/>
<g opacity="0.3">
<path d="M49.3196 39.1573H17.372C17.3184 39.1573 17.267 39.1386 17.2289 39.1053C17.1908 39.072 17.169 39.0267 17.1683 38.9792L17.1628 38.6246L49.5651 38.5722V38.9381C49.5651 38.996 49.5393 39.0515 49.4933 39.0926C49.4473 39.1336 49.3849 39.1569 49.3196 39.1573Z" fill="black"/>
</g>
<path d="M47.9177 34.382H18.5749C18.5199 34.3821 18.4664 34.3984 18.423 34.4283C18.3795 34.4582 18.3485 34.5 18.3348 34.5472L17.1702 38.5722C17.1607 38.6048 17.1598 38.6388 17.1675 38.6717C17.1752 38.7046 17.1913 38.7355 17.2146 38.762C17.2378 38.7886 17.2676 38.81 17.3017 38.8248C17.3358 38.8395 17.3732 38.8471 17.4111 38.847L49.3179 38.8301C49.3568 38.83 49.3952 38.8218 49.43 38.8062C49.4647 38.7906 49.4948 38.7679 49.5179 38.7401C49.541 38.7123 49.5564 38.68 49.5628 38.646C49.5693 38.6119 49.5667 38.577 49.5552 38.544L48.155 34.5376C48.1392 34.4927 48.1077 34.4534 48.065 34.4254C48.0224 34.3975 47.9708 34.3823 47.9177 34.382Z" fill="#263238"/>
<path d="M39.7019 35.2436C39.7165 35.3862 39.731 35.5289 39.7447 35.6707H41.0494V35.6425C41.0348 35.5007 41.0212 35.3596 41.0066 35.2178H39.6992L39.7019 35.2436Z" fill="#455A64"/>
<path d="M32.6868 36.4122H30.573L30.5912 36.9498H32.7805L32.6868 36.4122Z" fill="#455A64"/>
<path d="M38.5483 35.7941H36.4817L36.5453 36.2849H38.5946L38.5483 35.7941Z" fill="#455A64"/>
<path d="M35.0598 36.4122H32.8269L32.9178 36.9498H35.1717L35.0598 36.4122Z" fill="#455A64"/>
<path d="M40.7102 35.7941H38.6873L38.7345 36.2849H40.7802L40.7102 35.7941Z" fill="#455A64"/>
<path d="M47.2964 35.7941H45.2117L45.2689 36.2849H47.3828L47.2964 35.7941Z" fill="#455A64"/>
<path d="M44.0333 35.2436L44.077 35.6707H45.3825V35.6425C45.3689 35.5007 45.3543 35.3596 45.3398 35.2178H44.0315L44.0333 35.2436Z" fill="#455A64"/>
<path d="M44.7897 36.4122H43.7087C43.7036 36.4122 43.6985 36.4131 43.6938 36.415C43.6891 36.4169 43.6849 36.4196 43.6815 36.4231C43.6781 36.4265 43.6757 36.4306 43.6742 36.435C43.6728 36.4394 43.6725 36.444 43.6733 36.4485L43.7596 36.9232C43.7611 36.9306 43.7655 36.9373 43.772 36.9422C43.7784 36.947 43.7866 36.9497 43.7951 36.9498H44.877C44.8822 36.9498 44.8873 36.9487 44.892 36.9468C44.8966 36.9448 44.9007 36.9419 44.904 36.9384C44.9073 36.9349 44.9097 36.9307 44.911 36.9263C44.9123 36.9219 44.9125 36.9172 44.9116 36.9127L44.8252 36.4388C44.8239 36.4314 44.8196 36.4246 44.8131 36.4197C44.8066 36.4148 44.7983 36.4121 44.7897 36.4122Z" fill="#455A64"/>
<path d="M45.0725 35.7941H43.0469L43.1042 36.2849H45.1298L45.0725 35.7941Z" fill="#455A64"/>
<path d="M48.142 35.7941H47.4365L47.5211 36.2849H48.3039L48.142 35.7941Z" fill="#455A64"/>
<path d="M42.9077 35.7941H40.8494L40.9203 36.2849H42.965L42.9077 35.7941Z" fill="#455A64"/>
<path d="M34.1997 35.7941H32.1995L32.2504 36.2849H34.2651L34.1997 35.7941Z" fill="#455A64"/>
<path d="M32.0633 35.7941H30.1295L30.0977 36.2849H32.1151L32.0633 35.7941Z" fill="#455A64"/>
<path d="M30.4338 36.4122H28.5064L28.4773 36.9498H30.4511L30.4338 36.4122Z" fill="#455A64"/>
<path d="M42.5896 35.2436C42.6042 35.3862 42.6187 35.5289 42.6324 35.6707H43.937V35.6425C43.9225 35.5007 43.9089 35.3596 43.8943 35.2178H42.5869L42.5896 35.2436Z" fill="#455A64"/>
<path d="M36.3415 35.7941H34.335L34.4077 36.2849H36.4079L36.3415 35.7941Z" fill="#455A64"/>
<path d="M28.4479 35.7941H27.947L27.877 36.2849H29.9581L29.989 35.7941H28.4479Z" fill="#455A64"/>
<path d="M24.0561 36.4122L23.957 36.9498H26.1391L26.2218 36.4122H24.0561Z" fill="#455A64"/>
<path d="M25.8353 35.7941C25.8362 35.8 25.8362 35.8059 25.8353 35.8118C25.8353 35.8336 25.8271 35.8553 25.8235 35.8763C25.7981 36.0125 25.7726 36.1487 25.748 36.2849H27.7382L27.8082 35.7941H25.8353Z" fill="#455A64"/>
<path d="M26.3488 36.4122L26.2661 36.9498H28.3263L28.3554 36.4122H26.3488Z" fill="#455A64"/>
<path d="M23.6933 35.7941L23.6433 36.2849H25.6071L25.6981 35.7941H23.6933Z" fill="#455A64"/>
<path d="M36.1835 37.0699H33.6324C33.6219 37.0698 33.6114 37.0717 33.6018 37.0755C33.5922 37.0793 33.5836 37.0848 33.5765 37.0917C33.5695 37.0987 33.5642 37.1068 33.561 37.1157C33.5577 37.1246 33.5567 37.134 33.5578 37.1432L33.6206 37.659C33.6226 37.6753 33.6313 37.6903 33.6451 37.7012C33.6589 37.712 33.6767 37.718 33.6951 37.7179H36.2463C36.2567 37.7179 36.267 37.716 36.2766 37.7123C36.2861 37.7086 36.2947 37.7031 36.3017 37.6963C36.3088 37.6895 36.3141 37.6814 36.3174 37.6726C36.3207 37.6638 36.3218 37.6545 36.3208 37.6453L36.2581 37.1287C36.2559 37.1126 36.2471 37.0976 36.2334 37.0868C36.2196 37.076 36.2019 37.07 36.1835 37.0699Z" fill="#455A64"/>
<path d="M44.6338 34.6528C44.6419 34.7995 44.651 34.947 44.6601 35.0945H46.5503V35.0832C46.5403 34.922 46.5303 34.7552 46.5212 34.5916H44.6301C44.631 34.6109 44.6319 34.6319 44.6338 34.6528Z" fill="#455A64"/>
<path d="M20.7856 34.6891L20.7065 35.0921H22.8395V35.0792L22.8858 34.5674H20.7866C20.7971 34.5825 20.801 34.6006 20.7975 34.6182L20.7856 34.6891Z" fill="#455A64"/>
<path d="M48.3437 36.4122H46.2671L46.3653 36.9498H48.521L48.3437 36.4122Z" fill="#455A64"/>
<path d="M45.8273 37.0699H44.529C44.5211 37.07 44.5133 37.0715 44.5061 37.0744C44.4989 37.0773 44.4925 37.0815 44.4873 37.0868C44.4821 37.092 44.4781 37.0982 44.4758 37.1048C44.4734 37.1115 44.4726 37.1185 44.4735 37.1255L44.5471 37.6744C44.5489 37.6865 44.5556 37.6976 44.566 37.7056C44.5764 37.7136 44.5897 37.718 44.6035 37.7179H45.9009C45.9089 37.7179 45.9168 37.7165 45.9241 37.7136C45.9314 37.7108 45.9379 37.7066 45.9432 37.7013C45.9485 37.6961 45.9525 37.6899 45.955 37.6831C45.9574 37.6764 45.9582 37.6693 45.9573 37.6623L45.8836 37.1142C45.8819 37.102 45.8752 37.0908 45.8648 37.0827C45.8545 37.0745 45.8411 37.07 45.8273 37.0699Z" fill="#455A64"/>
<path d="M44.2915 37.0699H42.5222C42.5143 37.0698 42.5065 37.0713 42.4992 37.0741C42.4919 37.077 42.4855 37.0812 42.4802 37.0865C42.475 37.0918 42.471 37.098 42.4687 37.1047C42.4664 37.1114 42.4657 37.1185 42.4668 37.1255L42.5404 37.6744C42.5422 37.6865 42.5489 37.6976 42.5593 37.7056C42.5697 37.7136 42.583 37.718 42.5968 37.7179H44.3652C44.3731 37.7179 44.381 37.7165 44.3882 37.7136C44.3955 37.7108 44.4019 37.7066 44.4072 37.7013C44.4124 37.696 44.4164 37.6898 44.4187 37.6831C44.421 37.6763 44.4217 37.6692 44.4206 37.6623L44.347 37.1142C44.3454 37.1021 44.3389 37.0909 44.3287 37.0827C44.3185 37.0746 44.3053 37.07 44.2915 37.0699Z" fill="#455A64"/>
<path d="M42.9189 37.842H41.3042C41.2981 37.842 41.292 37.8431 41.2865 37.8452C41.2809 37.8473 41.2758 37.8505 41.2716 37.8544C41.2675 37.8583 41.2643 37.863 41.2622 37.8681C41.2601 37.8731 41.2592 37.8785 41.2596 37.8839L41.3069 38.4352C41.3078 38.4451 41.3129 38.4543 41.3212 38.461C41.3294 38.4678 41.3402 38.4715 41.3514 38.4715H42.9734C42.9798 38.4716 42.9862 38.4705 42.9921 38.4683C42.998 38.4661 43.0033 38.4628 43.0076 38.4585C43.0119 38.4543 43.0152 38.4493 43.0171 38.4439C43.0191 38.4385 43.0197 38.4328 43.0189 38.4271L42.9634 37.8758C42.9621 37.8663 42.9567 37.8576 42.9485 37.8513C42.9403 37.845 42.9297 37.8417 42.9189 37.842Z" fill="#455A64"/>
<path d="M47.2916 37.842H45.5178C45.5063 37.8419 45.4949 37.844 45.4844 37.8482C45.4738 37.8523 45.4644 37.8584 45.4568 37.866C45.4491 37.8737 45.4434 37.8826 45.4399 37.8924C45.4365 37.9022 45.4355 37.9124 45.4369 37.9226L45.4924 38.4062C45.4942 38.424 45.5035 38.4407 45.5185 38.4528C45.5335 38.4648 45.553 38.4715 45.5733 38.4714H47.3335C47.3449 38.4714 47.3563 38.4692 47.3667 38.465C47.3772 38.4608 47.3865 38.4547 47.3942 38.4471C47.4018 38.4395 47.4075 38.4306 47.411 38.4209C47.4145 38.4112 47.4156 38.401 47.4144 38.3908L47.3716 37.9073C47.3696 37.8896 47.3604 37.8732 47.3456 37.8611C47.3309 37.8491 47.3117 37.8423 47.2916 37.842Z" fill="#455A64"/>
<path d="M39.4302 36.4122H37.6119C37.6037 36.4123 37.5956 36.4138 37.5883 36.4169C37.5809 36.4199 37.5743 36.4244 37.569 36.4299C37.5638 36.4354 37.5599 36.4419 37.5577 36.4489C37.5555 36.4558 37.5551 36.4631 37.5564 36.4703L37.6364 36.9079C37.6386 36.9196 37.6453 36.9302 37.6555 36.9379C37.6656 36.9455 37.6785 36.9498 37.6919 36.9498H39.5102C39.5185 36.9499 39.5266 36.9484 39.5341 36.9454C39.5416 36.9424 39.5483 36.938 39.5537 36.9325C39.5591 36.9269 39.563 36.9204 39.5652 36.9134C39.5675 36.9064 39.5679 36.899 39.5666 36.8918L39.4857 36.4541C39.4837 36.4424 39.477 36.4317 39.4668 36.424C39.4566 36.4163 39.4436 36.4121 39.4302 36.4122Z" fill="#455A64"/>
<path d="M37.8099 37.9169C37.807 37.897 37.7963 37.8786 37.7797 37.8649C37.7631 37.8512 37.7417 37.8431 37.719 37.842H27.1562C27.1433 37.8419 27.1306 37.8443 27.1189 37.8488C27.1072 37.8534 27.0967 37.8602 27.0881 37.8686C27.0795 37.8771 27.073 37.887 27.0691 37.8979C27.0651 37.9087 27.0638 37.9201 27.0652 37.9314L27.0934 38.3908C27.095 38.4126 27.1059 38.433 27.1238 38.4479C27.1416 38.4629 27.1652 38.4713 27.1898 38.4714H37.7763C37.7899 38.4714 37.8032 38.4688 37.8156 38.4639C37.828 38.459 37.839 38.4518 37.848 38.4428C37.857 38.4338 37.8638 38.4233 37.8679 38.4118C37.872 38.4004 37.8733 38.3883 37.8718 38.3763L37.8099 37.9169Z" fill="#455A64"/>
<path d="M40.3301 37.0699H38.4772C38.4693 37.07 38.4615 37.0715 38.4543 37.0744C38.4472 37.0773 38.4408 37.0815 38.4355 37.0868C38.4303 37.092 38.4264 37.0982 38.424 37.1048C38.4216 37.1115 38.4209 37.1185 38.4217 37.1255L38.4881 37.6736C38.4897 37.6858 38.4963 37.6971 38.5067 37.7053C38.5171 37.7135 38.5306 37.718 38.5445 37.7179H40.4038C40.4117 37.7179 40.4196 37.7165 40.4268 37.7136C40.4341 37.7108 40.4405 37.7066 40.4458 37.7013C40.451 37.696 40.455 37.6898 40.4573 37.6831C40.4596 37.6763 40.4603 37.6692 40.4592 37.6623L40.3856 37.1142C40.3842 37.102 40.3778 37.0907 40.3675 37.0825C40.3573 37.0743 40.3439 37.0698 40.3301 37.0699Z" fill="#455A64"/>
<path d="M23.5486 35.7941H21.5566C21.5433 35.7943 21.5305 35.7985 21.5204 35.8062C21.5102 35.8138 21.5034 35.8244 21.5011 35.836C21.4775 35.9601 21.4502 36.1003 21.4256 36.2261C21.424 36.2333 21.4242 36.2407 21.4263 36.2479C21.4283 36.255 21.4321 36.2616 21.4375 36.2673C21.4428 36.2729 21.4495 36.2774 21.457 36.2805C21.4646 36.2835 21.4728 36.285 21.4811 36.2849H23.4886L23.5486 35.7941Z" fill="#455A64"/>
<path d="M26.3852 35.2436L26.3416 35.6707H27.6817V35.6425L27.7253 35.2178H26.3879L26.3852 35.2436Z" fill="#455A64"/>
<path d="M24.9062 35.2436L24.8625 35.6707H26.199V35.6425L26.2427 35.2178H24.9089L24.9062 35.2436Z" fill="#455A64"/>
<path d="M22.7995 35.6707H24.7233V35.6425L24.7661 35.2178H22.645V35.2355L22.6013 35.6707H22.7995Z" fill="#455A64"/>
<path d="M30.8239 35.2436L30.7803 35.6707H32.1931V35.6425L32.174 35.2178H30.8266L30.8239 35.2436Z" fill="#455A64"/>
<path d="M32.3131 35.2436L32.3322 35.6707H33.7205V35.6433C33.6996 35.5015 33.6796 35.3596 33.6596 35.2178H32.3113L32.3131 35.2436Z" fill="#455A64"/>
<path d="M25.1007 37.1585L25.0171 37.5938C25.0142 37.609 25.015 37.6246 25.0196 37.6395C25.0242 37.6545 25.0324 37.6683 25.0437 37.6801C25.0549 37.6919 25.069 37.7014 25.0848 37.7079C25.1006 37.7145 25.1178 37.7179 25.1353 37.7179H26.9136C26.9445 37.7179 26.9742 37.7074 26.9966 37.6884C27.019 37.6695 27.0322 37.6437 27.0336 37.6163L27.0518 37.1803C27.0524 37.166 27.0498 37.1517 27.044 37.1384C27.0383 37.125 27.0295 37.1128 27.0183 37.1025C27.0071 37.0921 26.9937 37.0839 26.9788 37.0784C26.9639 37.0728 26.9479 37.0699 26.9318 37.0699H25.2189C25.1906 37.0699 25.1631 37.0788 25.1415 37.0951C25.1199 37.1113 25.1054 37.1338 25.1007 37.1585Z" fill="#455A64"/>
<path d="M35.2806 35.2274L35.3715 35.6707H36.6607C36.6607 35.6619 36.6607 35.6522 36.6607 35.6425C36.6452 35.5007 36.6298 35.3596 36.6152 35.2178H35.2778L35.2806 35.2274Z" fill="#455A64"/>
<path d="M22.5895 37.1247L22.4913 37.6413C22.4895 37.6508 22.49 37.6605 22.4928 37.6698C22.4957 37.679 22.5008 37.6876 22.5078 37.6949C22.5149 37.7023 22.5236 37.7081 22.5335 37.7121C22.5434 37.716 22.5541 37.718 22.565 37.7179H24.7898C24.8073 37.7179 24.8244 37.7124 24.8379 37.7024C24.8513 37.6924 24.8604 37.6784 24.8634 37.6631L24.9625 37.1472C24.9648 37.1375 24.9646 37.1275 24.962 37.1178C24.9593 37.1082 24.9543 37.0992 24.9473 37.0914C24.9402 37.0837 24.9313 37.0775 24.9212 37.0732C24.9111 37.0689 24.9001 37.0667 24.8889 37.0667H22.6632C22.6451 37.0669 22.6277 37.0729 22.6142 37.0835C22.6007 37.0942 22.5919 37.1088 22.5895 37.1247Z" fill="#455A64"/>
<path d="M41.1428 35.2178V35.2436C41.1574 35.3862 41.1719 35.5289 41.1856 35.6707H42.4902V35.6425C42.4757 35.5007 42.462 35.3596 42.4475 35.2178H41.1428Z" fill="#455A64"/>
<path d="M21.3386 35.7941H18.3801C18.3713 35.7941 18.3628 35.7969 18.356 35.8019C18.3492 35.8069 18.3446 35.8138 18.3429 35.8215L18.2338 36.243C18.2324 36.2481 18.2323 36.2533 18.2336 36.2584C18.2349 36.2635 18.2374 36.2683 18.2411 36.2723C18.2448 36.2764 18.2495 36.2796 18.2549 36.2818C18.2602 36.284 18.2661 36.2851 18.272 36.2849H21.2895C21.2891 36.2814 21.2891 36.2779 21.2895 36.2744L21.3032 36.2051C21.3268 36.0818 21.3513 35.9577 21.375 35.8344C21.376 35.8295 21.3759 35.8246 21.3746 35.8198C21.3733 35.815 21.3708 35.8106 21.3673 35.8068C21.3639 35.8029 21.3595 35.7998 21.3545 35.7976C21.3496 35.7954 21.3442 35.7942 21.3386 35.7941Z" fill="#455A64"/>
<path d="M41.5541 36.4122C41.5541 36.4122 41.5541 36.4082 41.5541 36.4058H39.6184L39.7175 36.9433H41.655C41.6186 36.7692 41.5859 36.5927 41.5541 36.4122Z" fill="#455A64"/>
<path d="M19.8876 37.8839L19.7703 38.4086C19.7687 38.4162 19.769 38.424 19.7712 38.4315C19.7734 38.439 19.7774 38.446 19.7829 38.452C19.7884 38.458 19.7954 38.4628 19.8033 38.4662C19.8111 38.4695 19.8197 38.4713 19.8285 38.4714H21.7814C21.7951 38.4713 21.8084 38.467 21.819 38.4592C21.8296 38.4514 21.8369 38.4407 21.8396 38.4287L21.9514 37.904C21.9529 37.8965 21.9524 37.8887 21.9502 37.8813C21.9479 37.8739 21.9439 37.8671 21.9384 37.8612C21.9329 37.8553 21.926 37.8505 21.9182 37.8472C21.9104 37.8439 21.9019 37.8421 21.8932 37.842H19.9458C19.9321 37.8419 19.9188 37.8461 19.9082 37.8537C19.8976 37.8614 19.8903 37.872 19.8876 37.8839Z" fill="#455A64"/>
<path d="M22.0994 37.8976L21.9839 38.3869C21.9815 38.3971 21.9816 38.4076 21.9844 38.4178C21.9871 38.4279 21.9924 38.4374 21.9998 38.4455C22.0072 38.4536 22.0166 38.4601 22.0272 38.4646C22.0378 38.4691 22.0494 38.4715 22.0612 38.4715H24.0168C24.0361 38.4714 24.0548 38.4652 24.0693 38.454C24.0838 38.4427 24.0933 38.4272 24.0959 38.4102L24.1696 37.921C24.1713 37.911 24.1705 37.9008 24.1674 37.8911C24.1642 37.8814 24.1587 37.8725 24.1513 37.8648C24.1439 37.8572 24.1347 37.851 24.1244 37.8468C24.114 37.8426 24.1028 37.8404 24.0914 37.8404H22.1821C22.1628 37.8393 22.1437 37.8446 22.1285 37.8551C22.1132 37.8657 22.1029 37.8808 22.0994 37.8976Z" fill="#455A64"/>
<path d="M24.3083 37.8952L24.2356 38.4021C24.2344 38.4108 24.2354 38.4196 24.2383 38.4279C24.2412 38.4363 24.2461 38.4439 24.2527 38.4505C24.2592 38.457 24.2672 38.4623 24.2761 38.4659C24.2851 38.4695 24.2948 38.4714 24.3047 38.4714H25.3693C25.3866 38.4713 25.4031 38.4656 25.4159 38.4553C25.4286 38.4451 25.4366 38.431 25.4384 38.4158L25.493 37.9089C25.494 37.9004 25.493 37.8919 25.49 37.8838C25.4871 37.8757 25.4822 37.8682 25.4758 37.8619C25.4693 37.8556 25.4615 37.8506 25.4527 37.8471C25.4439 37.8437 25.4344 37.8419 25.4248 37.842H24.3801C24.3628 37.8413 24.3458 37.8463 24.3325 37.8562C24.3192 37.866 24.3106 37.8799 24.3083 37.8952Z" fill="#455A64"/>
<path d="M19.829 37.115L19.6754 37.6437C19.6727 37.6525 19.6724 37.6617 19.6744 37.6706C19.6764 37.6795 19.6807 37.6878 19.6869 37.695C19.6932 37.7022 19.7012 37.708 19.7104 37.7119C19.7196 37.7159 19.7297 37.7179 19.7399 37.7179H22.2784C22.2942 37.7179 22.3095 37.713 22.3216 37.704C22.3338 37.695 22.342 37.6825 22.3447 37.6687C22.3775 37.4995 22.4102 37.3302 22.4547 37.161C22.4666 37.0965 22.4302 37.0699 22.3738 37.0699H19.8945C19.8795 37.07 19.865 37.0745 19.8531 37.0826C19.8413 37.0908 19.8328 37.1022 19.829 37.115Z" fill="#455A64"/>
<path d="M26.8191 37.842H25.7663C25.7395 37.8419 25.7136 37.8507 25.6938 37.8666C25.6739 37.8826 25.6615 37.9046 25.659 37.9282L25.6099 38.3651C25.6084 38.3785 25.6101 38.392 25.6148 38.4049C25.6195 38.4177 25.6273 38.4295 25.6374 38.4395C25.6476 38.4495 25.6601 38.4575 25.674 38.463C25.6879 38.4685 25.7029 38.4714 25.7181 38.4714H26.8264C26.8407 38.4713 26.8549 38.4687 26.8681 38.4638C26.8813 38.4588 26.8932 38.4516 26.9033 38.4425C26.9133 38.4335 26.9213 38.4228 26.9266 38.411C26.932 38.3992 26.9347 38.3866 26.9346 38.3739L26.9282 37.9363C26.9278 37.911 26.916 37.8869 26.8956 37.8692C26.8752 37.8516 26.8477 37.8418 26.8191 37.842Z" fill="#455A64"/>
<path d="M38.2254 37.0699H36.4525C36.4447 37.07 36.4369 37.0715 36.4297 37.0744C36.4225 37.0773 36.4161 37.0815 36.4109 37.0868C36.4056 37.092 36.4017 37.0982 36.3993 37.1048C36.397 37.1115 36.3962 37.1185 36.3971 37.1255L36.4635 37.6735C36.4648 37.6859 36.4714 37.6973 36.4818 37.7055C36.4923 37.7137 36.5059 37.7181 36.5198 37.7179H38.2909C38.2988 37.7179 38.3065 37.7165 38.3137 37.7137C38.3209 37.7109 38.3273 37.7067 38.3326 37.7015C38.3378 37.6964 38.3417 37.6903 38.3441 37.6836C38.3465 37.677 38.3473 37.67 38.3464 37.6631L38.28 37.1142C38.2785 37.1022 38.2721 37.0911 38.2621 37.083C38.2521 37.0749 38.239 37.0702 38.2254 37.0699Z" fill="#455A64"/>
<path d="M20.5154 35.2178L20.5082 35.2548C20.4809 35.3935 20.4539 35.5321 20.4272 35.6707H22.4593C22.4593 35.6586 22.4593 35.6465 22.4638 35.6345C22.4774 35.4958 22.492 35.3564 22.5056 35.2178H20.5154Z" fill="#455A64"/>
<path d="M18.0052 37.115L17.8688 37.647C17.8665 37.6555 17.8663 37.6643 17.8684 37.6729C17.8705 37.6814 17.8748 37.6894 17.881 37.6963C17.8871 37.7031 17.895 37.7087 17.9039 37.7124C17.9128 37.7161 17.9226 37.718 17.9325 37.7179H19.4581C19.4726 37.7179 19.4868 37.7137 19.4983 37.7058C19.5098 37.6979 19.5181 37.6869 19.5217 37.6744L19.6772 37.1424C19.6799 37.1338 19.6803 37.1248 19.6783 37.116C19.6764 37.1073 19.6721 37.099 19.6659 37.092C19.6598 37.0849 19.6518 37.0793 19.6427 37.0754C19.6336 37.0716 19.6236 37.0697 19.6135 37.0699H18.0679C18.0533 37.0703 18.0393 37.0749 18.0279 37.083C18.0166 37.0912 18.0086 37.1024 18.0052 37.115Z" fill="#455A64"/>
<path d="M25.1334 34.6391C25.1162 34.7898 25.0998 34.9405 25.0825 35.092H27.0173C27.0173 35.08 27.0173 35.0679 27.0173 35.0558C27.0354 34.8946 27.0545 34.7334 27.0727 34.5722H25.1343L25.1334 34.6391Z" fill="#455A64"/>
<path d="M18.4054 35.6707H20.2683L20.2892 35.6546C20.3165 35.5168 20.3438 35.3782 20.3702 35.2403C20.3707 35.2376 20.3705 35.2348 20.3697 35.2321C20.3689 35.2295 20.3675 35.227 20.3655 35.2248C20.3635 35.2227 20.361 35.221 20.3582 35.2197C20.3554 35.2185 20.3524 35.2178 20.3492 35.2178H18.5118C18.5068 35.218 18.502 35.2195 18.4981 35.2223C18.4942 35.225 18.4913 35.2288 18.49 35.2331L18.38 35.6474C18.3791 35.6505 18.3792 35.6538 18.3802 35.6569C18.3812 35.66 18.383 35.6629 18.3855 35.6652C18.388 35.6675 18.3912 35.6692 18.3947 35.6702C18.3982 35.6712 18.4018 35.6713 18.4054 35.6707Z" fill="#455A64"/>
<path d="M18.1723 36.4646L18.0714 36.8579C18.0687 36.8685 18.0687 36.8795 18.0714 36.8901C18.0741 36.9006 18.0794 36.9105 18.087 36.919C18.0946 36.9276 18.1042 36.9344 18.1152 36.9392C18.1262 36.944 18.1382 36.9465 18.1505 36.9466H21.5617C21.581 36.9466 21.5996 36.9405 21.6143 36.9294C21.629 36.9184 21.6387 36.903 21.6417 36.8861L21.7181 36.4928C21.7195 36.4828 21.7185 36.4725 21.7151 36.4628C21.7118 36.4531 21.7061 36.4442 21.6986 36.4366C21.691 36.429 21.6817 36.4229 21.6713 36.4187C21.6608 36.4145 21.6495 36.4123 21.6381 36.4122H18.2523C18.2344 36.4121 18.2169 36.4171 18.2024 36.4266C18.188 36.436 18.1774 36.4494 18.1723 36.4646Z" fill="#455A64"/>
<path d="M23.017 34.6391L22.9761 35.0937H24.939L24.9435 35.0574C24.9617 34.8962 24.9802 34.735 24.999 34.5739H23.0234L23.017 34.6391Z" fill="#455A64"/>
<path d="M38.2556 35.2178V35.2436C38.2702 35.3862 38.2847 35.5289 38.2983 35.6707H39.603V35.6425C39.5885 35.5007 39.5748 35.3596 39.5603 35.2178H38.2556Z" fill="#455A64"/>
<path d="M17.8346 37.8807L17.6982 38.4094C17.6963 38.4168 17.6963 38.4245 17.6982 38.4319C17.7001 38.4393 17.7038 38.4462 17.7092 38.4522C17.7145 38.4581 17.7212 38.463 17.7289 38.4663C17.7367 38.4696 17.7451 38.4714 17.7537 38.4714H19.5966C19.6104 38.4712 19.6236 38.4666 19.6339 38.4584C19.6443 38.4503 19.651 38.4392 19.6529 38.4271L19.7684 37.8984C19.77 37.8911 19.7698 37.8836 19.7678 37.8765C19.7657 37.8693 19.7619 37.8626 19.7566 37.8569C19.7513 37.8512 19.7446 37.8466 19.7371 37.8435C19.7295 37.8403 19.7213 37.8387 19.713 37.8387H17.8855C17.8729 37.8395 17.861 37.8441 17.8517 37.8518C17.8425 37.8594 17.8364 37.8696 17.8346 37.8807Z" fill="#455A64"/>
<path d="M18.6528 34.5972L18.5382 35.0421C18.5367 35.048 18.5367 35.0541 18.5383 35.06C18.5398 35.066 18.5428 35.0715 18.5471 35.0762C18.5514 35.0809 18.5568 35.0847 18.563 35.0873C18.5692 35.0899 18.5759 35.0913 18.5828 35.0913H20.5621L20.5675 35.0663C20.5984 34.9051 20.6302 34.7439 20.6584 34.5827C20.6603 34.5757 20.6637 34.5691 20.6684 34.5634H18.6919C18.682 34.5643 18.6729 34.5682 18.6658 34.5743C18.6587 34.5805 18.6541 34.5885 18.6528 34.5972Z" fill="#455A64"/>
<path d="M42.3051 37.0699H40.5831C40.5751 37.0698 40.5672 37.0713 40.5599 37.0742C40.5527 37.077 40.5461 37.0812 40.5408 37.0865C40.5355 37.0917 40.5315 37.0979 40.529 37.1046C40.5266 37.1114 40.5258 37.1185 40.5267 37.1255L40.6013 37.6744C40.6028 37.6864 40.6094 37.6975 40.6196 37.7055C40.6298 37.7136 40.6431 37.718 40.6567 37.7179H42.3287C42.3367 37.7179 42.3446 37.7165 42.3519 37.7136C42.3592 37.7108 42.3657 37.7066 42.371 37.7013C42.3763 37.6961 42.3803 37.6899 42.3828 37.6831C42.3852 37.6764 42.386 37.6693 42.3851 37.6623L42.3051 37.0699Z" fill="#455A64"/>
<path d="M48.7828 37.842L47.5527 37.8364C47.5466 37.8365 47.5405 37.8377 47.5349 37.8399C47.5293 37.8421 47.5243 37.8453 47.5201 37.8493C47.516 37.8533 47.5128 37.858 47.5107 37.8631C47.5086 37.8682 47.5078 37.8737 47.5081 37.8791L47.5554 38.4247C47.5561 38.4346 47.561 38.4439 47.5691 38.4508C47.5771 38.4577 47.5879 38.4616 47.5991 38.4618L48.9628 38.4707C48.9698 38.4706 48.9766 38.4692 48.9829 38.4664C48.9891 38.4637 48.9945 38.4597 48.9987 38.4548C49.0029 38.4499 49.0058 38.4442 49.0072 38.4381C49.0085 38.4321 49.0083 38.4258 49.0065 38.4199L48.8246 37.8702C48.8219 37.8622 48.8164 37.8551 48.8089 37.8501C48.8014 37.845 48.7923 37.8422 48.7828 37.842Z" fill="#455A64"/>
<path d="M41.0368 37.842H39.8031C39.7906 37.842 39.7782 37.8442 39.7667 37.8486C39.7553 37.853 39.7449 37.8595 39.7364 37.8675C39.7279 37.8756 39.7213 37.8852 39.7171 37.8956C39.713 37.9061 39.7113 37.9172 39.7121 37.9282L39.7694 38.4013C39.7723 38.4208 39.7831 38.4387 39.7999 38.4517C39.8166 38.4646 39.8381 38.4716 39.8603 38.4714H41.0923C41.1048 38.4715 41.1173 38.4692 41.1288 38.4648C41.1404 38.4603 41.1507 38.4538 41.1593 38.4456C41.1678 38.4374 41.1744 38.4278 41.1785 38.4172C41.1826 38.4067 41.1842 38.3955 41.1832 38.3844L41.1277 37.9121C41.1248 37.8926 41.114 37.8747 41.0973 37.8618C41.0805 37.8489 41.059 37.8418 41.0368 37.842Z" fill="#455A64"/>
<path d="M45.2392 37.842H43.1699C43.1624 37.842 43.1549 37.8433 43.148 37.846C43.1411 37.8487 43.1349 37.8526 43.1299 37.8576C43.1248 37.8625 43.121 37.8684 43.1186 37.8747C43.1163 37.881 43.1155 37.8877 43.1162 37.8944L43.1772 38.4287C43.1787 38.4404 43.185 38.4512 43.1949 38.4591C43.2048 38.4669 43.2175 38.4713 43.2308 38.4714H45.2919C45.2993 38.4714 45.3065 38.4699 45.3133 38.4672C45.32 38.4646 45.326 38.4607 45.3309 38.4558C45.3359 38.451 45.3397 38.4453 45.342 38.4391C45.3444 38.4329 45.3453 38.4264 45.3446 38.4199L45.2946 37.8855C45.2937 37.8732 45.2874 37.8618 45.277 37.8537C45.2666 37.8455 45.253 37.8413 45.2392 37.842Z" fill="#455A64"/>
<path d="M47.4209 37.0699H46.0799C46.0719 37.0698 46.0641 37.0713 46.0568 37.0741C46.0496 37.077 46.0431 37.0812 46.0378 37.0865C46.0326 37.0918 46.0287 37.098 46.0263 37.1047C46.024 37.1114 46.0234 37.1185 46.0244 37.1255L46.098 37.6744C46.0998 37.6863 46.1064 37.6973 46.1166 37.7053C46.1268 37.7133 46.1399 37.7178 46.1535 37.7179H47.4955C47.5034 37.7178 47.5111 37.7163 47.5183 37.7134C47.5255 37.7105 47.5319 37.7063 47.5371 37.701C47.5424 37.6958 47.5463 37.6896 47.5487 37.6829C47.551 37.6763 47.5518 37.6692 47.5509 37.6623L47.4773 37.1142C47.4757 37.102 47.4691 37.0907 47.4587 37.0825C47.4483 37.0743 47.4348 37.0698 47.4209 37.0699Z" fill="#455A64"/>
<path d="M48.5191 37.0699H47.6726C47.6647 37.0698 47.6568 37.0713 47.6496 37.0741C47.6423 37.077 47.6359 37.0812 47.6306 37.0865C47.6253 37.0918 47.6214 37.098 47.6191 37.1047C47.6168 37.1114 47.6161 37.1185 47.6172 37.1255L47.6917 37.6744C47.6935 37.6865 47.7002 37.6976 47.7106 37.7056C47.721 37.7136 47.7343 37.718 47.7481 37.7179H48.7C48.7088 37.7179 48.7174 37.7162 48.7253 37.7127C48.7331 37.7093 48.7399 37.7043 48.7452 37.6981C48.7505 37.692 48.7541 37.6848 48.7558 37.6771C48.7574 37.6695 48.757 37.6617 48.7546 37.6542L48.5727 37.1062C48.5694 37.0958 48.5624 37.0867 48.5527 37.0801C48.543 37.0736 48.5312 37.07 48.5191 37.0699Z" fill="#455A64"/>
<path d="M46.6625 34.6528C46.6716 34.7995 46.6798 34.947 46.6889 35.0945H47.9109L47.7463 34.5923H46.6553C46.6598 34.6117 46.6616 34.6318 46.6625 34.6528Z" fill="#455A64"/>
<path d="M39.4649 37.842H38.0611C38.0456 37.8419 38.0303 37.8447 38.0162 37.8502C38.002 37.8557 37.9893 37.8638 37.9789 37.8738C37.9684 37.8839 37.9605 37.8958 37.9555 37.9088C37.9506 37.9218 37.9488 37.9355 37.9502 37.9492L37.9929 38.3812C37.9952 38.4058 38.0079 38.4288 38.0284 38.4455C38.049 38.4623 38.0759 38.4715 38.1038 38.4714H39.5176C39.5332 38.4714 39.5487 38.4685 39.563 38.4628C39.5773 38.4571 39.5901 38.4488 39.6005 38.4385C39.611 38.4282 39.6189 38.416 39.6237 38.4028C39.6285 38.3896 39.6302 38.3756 39.6285 38.3618L39.5758 37.9298C39.5728 37.9056 39.5599 37.8832 39.5394 37.867C39.5189 37.8508 39.4923 37.8418 39.4649 37.842Z" fill="#455A64"/>
<path d="M29.3082 37.1376L29.2855 37.6534C29.2851 37.6623 29.2867 37.6711 29.2903 37.6794C29.2939 37.6877 29.2993 37.6953 29.3063 37.7017C29.3133 37.7081 29.3216 37.7132 29.3308 37.7167C29.3401 37.7201 29.35 37.7219 29.36 37.7219H31.1865C31.2059 37.7219 31.2244 37.7153 31.2383 37.7034C31.2522 37.6915 31.2604 37.6753 31.2611 37.6582L31.2829 37.1424C31.2833 37.1335 31.2816 37.1247 31.278 37.1164C31.2745 37.1081 31.269 37.1005 31.2621 37.0941C31.2551 37.0877 31.2468 37.0826 31.2375 37.0792C31.2283 37.0757 31.2184 37.0739 31.2084 37.0739H29.3809C29.3619 37.0741 29.3436 37.0809 29.3301 37.0927C29.3165 37.1046 29.3086 37.1207 29.3082 37.1376Z" fill="#455A64"/>
<path d="M21.8764 36.4122L21.7737 36.9498H23.8157L23.9157 36.4122H21.8764Z" fill="#455A64"/>
<path d="M27.1932 37.1376L27.1705 37.6534C27.1701 37.6623 27.1718 37.6711 27.1753 37.6794C27.1789 37.6877 27.1843 37.6953 27.1913 37.7017C27.1983 37.7081 27.2066 37.7132 27.2158 37.7167C27.2251 37.7201 27.235 37.7219 27.245 37.7219H29.0716C29.0909 37.7219 29.1094 37.7153 29.1233 37.7034C29.1372 37.6915 29.1454 37.6753 29.1461 37.6582L29.1679 37.1424C29.1683 37.1335 29.1666 37.1247 29.1631 37.1164C29.1595 37.1081 29.154 37.1005 29.1471 37.0941C29.1401 37.0877 29.1318 37.0826 29.1226 37.0792C29.1133 37.0757 29.1034 37.0739 29.0934 37.0739H27.2677C27.2484 37.0737 27.2297 37.0803 27.2157 37.0922C27.2018 37.1041 27.1937 37.1204 27.1932 37.1376Z" fill="#455A64"/>
<path d="M33.4095 37.0699H31.4256L31.3975 37.7147H33.4886L33.4095 37.0699Z" fill="#455A64"/>
<path d="M37.356 36.4122H35.2649C35.2566 36.4122 35.2485 36.4138 35.241 36.4169C35.2335 36.42 35.2269 36.4245 35.2216 36.4302C35.2163 36.4358 35.2125 36.4423 35.2104 36.4494C35.2083 36.4565 35.2079 36.4639 35.2094 36.4711L35.3003 36.9087C35.3025 36.9203 35.3093 36.9308 35.3194 36.9384C35.3296 36.9459 35.3425 36.95 35.3558 36.9498H37.436C37.4441 36.9498 37.4522 36.9482 37.4596 36.9451C37.467 36.9421 37.4735 36.9377 37.4788 36.9321C37.4841 36.9266 37.4879 36.9202 37.4901 36.9132C37.4923 36.9062 37.4927 36.8989 37.4914 36.8918L37.4114 36.4541C37.4093 36.4425 37.4025 36.4318 37.3924 36.4242C37.3822 36.4165 37.3693 36.4123 37.356 36.4122Z" fill="#455A64"/>
<path d="M29.3435 35.2436C29.3299 35.3862 29.3153 35.5289 29.3008 35.6707H30.6409V35.6425C30.6555 35.5007 30.6691 35.3596 30.6836 35.2178H29.3462L29.3435 35.2436Z" fill="#455A64"/>
<path d="M36.7554 35.2436L36.8017 35.6707H38.1655V35.6425C38.151 35.5007 38.1373 35.3596 38.1228 35.2178H36.759L36.7554 35.2436Z" fill="#455A64"/>
<path d="M33.7983 35.2428C33.8183 35.3854 33.8392 35.5281 33.8592 35.6707H35.2312V35.6586L35.1403 35.2178H33.7947L33.7983 35.2428Z" fill="#455A64"/>
<path d="M27.867 35.2178V35.2436C27.8524 35.3862 27.8379 35.5289 27.8242 35.6707H29.1643V35.6425C29.178 35.5007 29.1925 35.3596 29.2071 35.2178H27.867Z" fill="#455A64"/>
<path d="M43.4788 36.4122H41.7586C41.7504 36.4123 41.7424 36.4138 41.735 36.4169C41.7276 36.4199 41.721 36.4244 41.7158 36.4299C41.7105 36.4354 41.7066 36.4419 41.7044 36.4489C41.7023 36.4558 41.7018 36.4631 41.7031 36.4703L41.784 36.9079C41.786 36.9196 41.7927 36.9304 41.8029 36.9381C41.8131 36.9458 41.8261 36.9499 41.8395 36.9498H43.5588C43.5669 36.9498 43.575 36.9482 43.5824 36.9451C43.5898 36.9421 43.5963 36.9377 43.6016 36.9321C43.6069 36.9266 43.6107 36.9202 43.6129 36.9132C43.6151 36.9062 43.6155 36.8989 43.6142 36.8918L43.5342 36.4541C43.5321 36.4425 43.5253 36.4318 43.5152 36.4242C43.505 36.4165 43.4921 36.4123 43.4788 36.4122Z" fill="#455A64"/>
<path d="M29.2901 34.6391L29.2383 35.0921H31.2676V34.5746H29.2974C29.2901 34.598 29.2901 34.6198 29.2901 34.6391Z" fill="#455A64"/>
<path d="M38.3089 34.6528C38.318 34.7995 38.3271 34.9469 38.3352 35.0944H40.4609V35.0832L40.4309 34.5859H38.3062C38.3062 34.6068 38.308 34.6294 38.3089 34.6528Z" fill="#455A64"/>
<path d="M33.4915 34.5803L33.496 34.6528C33.5042 34.7995 33.5133 34.947 33.5224 35.0945H35.7799L35.6789 34.5827H33.4915V34.5803Z" fill="#455A64"/>
<path d="M35.828 34.6238L35.9189 35.0945H38.1919V35.0832L38.1618 34.5835H35.8162L35.828 34.6238Z" fill="#455A64"/>
<path d="M31.4065 34.5779V35.0945H33.3812V35.0832L33.3512 34.5803L31.4065 34.5779Z" fill="#455A64"/>
<path d="M27.2117 34.6391L27.1599 35.092H29.0983C29.0983 35.08 29.0983 35.0679 29.0983 35.0558C29.1174 34.8946 29.1356 34.7334 29.1537 34.5722H27.2154C27.2163 34.5964 27.2136 34.6189 27.2117 34.6391Z" fill="#455A64"/>
<path d="M46.0792 36.4122H45.0264C45.0183 36.4123 45.0102 36.4138 45.0028 36.4169C44.9954 36.4199 44.9888 36.4244 44.9836 36.4299C44.9783 36.4354 44.9744 36.4419 44.9723 36.4489C44.9701 36.4558 44.9696 36.4631 44.971 36.4703L45.0519 36.9079C45.0538 36.9196 45.0605 36.9304 45.0707 36.9381C45.0809 36.9458 45.0939 36.9499 45.1073 36.9498H46.1592C46.1674 36.9498 46.1755 36.9482 46.1829 36.9451C46.1903 36.9421 46.1968 36.9377 46.2021 36.9321C46.2074 36.9266 46.2112 36.9202 46.2134 36.9132C46.2156 36.9062 46.216 36.8989 46.2147 36.8918L46.1347 36.4541C46.1326 36.4425 46.1258 36.4318 46.1156 36.4242C46.1055 36.4165 46.0926 36.4123 46.0792 36.4122Z" fill="#455A64"/>
<path d="M46.9219 35.2436C46.9356 35.3862 46.9501 35.5289 46.9646 35.6707H48.1011L47.952 35.2178H46.9192L46.9219 35.2436Z" fill="#455A64"/>
<path d="M45.4734 35.2178C45.4734 35.2266 45.4734 35.2347 45.4734 35.2436L45.517 35.6707H46.8208V35.6425C46.8072 35.5007 46.7926 35.3596 46.7781 35.2178H45.4734Z" fill="#455A64"/>
<path d="M42.6032 34.6528C42.6123 34.7995 42.6214 34.947 42.6296 35.0945H44.5198V35.0832L44.4898 34.5892H42.5996C42.6005 34.6093 42.6023 34.6311 42.6032 34.6528Z" fill="#455A64"/>
<path d="M40.5738 34.6528C40.5829 34.7995 40.591 34.947 40.6001 35.0945H42.4903V35.0832C42.4803 34.918 42.4712 34.7527 42.4612 34.5875H40.571C40.571 34.6085 40.5729 34.6302 40.5738 34.6528Z" fill="#455A64"/>
<path d="M47.5104 34.5429C47.5104 34.5545 41.0552 34.5645 33.0936 34.5645C25.1319 34.5645 18.6758 34.5545 18.6758 34.5429C18.6758 34.5314 25.131 34.5214 33.0936 34.5214C41.0562 34.5214 47.5104 34.5314 47.5104 34.5429Z" fill="white"/>
<path d="M8.48087 39.9721C10.3754 39.9721 11.9112 39.6369 11.9112 39.2233C11.9112 38.8098 10.3754 38.4746 8.48087 38.4746C6.58635 38.4746 5.05054 38.8098 5.05054 39.2233C5.05054 39.6369 6.58635 39.9721 8.48087 39.9721Z" fill="#E0E0E0"/>
<g opacity="0.3">
<path d="M10.1199 39.3499C10.1199 39.528 9.41168 39.6723 8.53796 39.6723C7.66424 39.6723 6.95508 39.528 6.95508 39.3499C6.95508 39.1718 7.66333 39.0275 8.53796 39.0275C9.41259 39.0275 10.1199 39.1718 10.1199 39.3499Z" fill="black"/>
</g>
<path d="M11.6367 39.2234L11.6276 39.2347C11.6203 39.2419 11.6112 39.254 11.5966 39.2677C11.5541 39.3075 11.5062 39.3424 11.4539 39.3717C11.3708 39.4179 11.2832 39.4572 11.1921 39.4894C11.0715 39.531 10.9482 39.5662 10.8229 39.5949C10.5447 39.661 10.2065 39.7102 9.83102 39.7626C9.42368 39.819 9.01226 39.8492 8.59999 39.8528C8.18781 39.8578 7.77564 39.8428 7.36533 39.8077C7.02922 39.7802 6.69526 39.735 6.36523 39.6723C6.14256 39.6324 5.92484 39.5733 5.71516 39.4958C5.67789 39.4813 5.64698 39.4668 5.61879 39.4547C5.59061 39.4426 5.5697 39.4297 5.55151 39.4192L5.51151 39.3951L5.49878 39.3862L5.51242 39.3943L5.55333 39.4168L5.62152 39.4507C5.64879 39.462 5.68062 39.4773 5.71789 39.4902C5.92798 39.5656 6.14563 39.6234 6.36795 39.6626C6.6981 39.7239 7.03205 39.7678 7.36805 39.794C7.77808 39.8288 8.18995 39.8436 8.60181 39.8383C9.01342 39.8351 9.42424 39.8055 9.83102 39.7497C10.2065 39.6981 10.5438 39.6497 10.822 39.5885C10.9471 39.5608 11.0701 39.526 11.1902 39.4845C11.2815 39.4539 11.3691 39.4156 11.4521 39.3701C11.5044 39.3415 11.5527 39.3074 11.5957 39.2685C11.607 39.2586 11.6177 39.2481 11.6276 39.2371L11.6367 39.2234Z" fill="#263238"/>
<path d="M5.05616 35.9851C5.05616 35.9851 5.02979 39.5015 8.42012 39.5724H8.44104C11.8341 39.5015 11.9032 35.9456 11.9032 35.9456L5.05616 35.9851Z" fill="#263238"/>
<g opacity="0.3">
<path d="M8.3215 39.3523C7.826 39.2717 7.46596 39.2234 6.86136 38.8953C6.45677 38.6761 6.16129 38.3618 5.87399 38.0273C5.58669 37.6929 5.4094 37.2778 5.17847 36.9151C5.42576 37.9628 6.17129 39.5248 8.42242 39.5748H8.44333C8.89364 39.5706 9.3387 39.4885 9.75346 39.333C9.30342 39.3427 8.76609 39.4233 8.3215 39.3523Z" fill="black"/>
</g>
<path d="M8.48103 36.8603C10.3725 36.8603 11.9059 36.4684 11.9059 35.985C11.9059 35.5016 10.3725 35.1097 8.48103 35.1097C6.58952 35.1097 5.05615 35.5016 5.05615 35.985C5.05615 36.4684 6.58952 36.8603 8.48103 36.8603Z" fill="#263238"/>
<g opacity="0.3">
<path d="M5.53969 36.197C5.93609 35.9182 7.09711 35.7134 8.46816 35.7134C9.8392 35.7134 11.0002 35.9157 11.3975 36.197C11.4384 36.1738 11.4727 36.1427 11.4979 36.1059C11.5231 36.0692 11.5385 36.0279 11.543 35.9851C11.543 35.6022 10.1665 35.2919 8.46816 35.2919C6.76981 35.2919 5.39331 35.6063 5.39331 35.9851C5.39783 36.028 5.41337 36.0694 5.43875 36.1061C5.46412 36.1428 5.49865 36.1739 5.53969 36.197Z" fill="black"/>
</g>
<path d="M11.906 35.985C11.9038 35.9404 11.8908 35.8967 11.8678 35.8569C11.8377 35.8094 11.7993 35.7665 11.7542 35.7295C11.6917 35.6806 11.6237 35.6374 11.5514 35.6006C11.2232 35.4329 10.6905 35.2943 10.0222 35.2089C9.65839 35.1629 9.29208 35.1342 8.92483 35.1226C8.50228 35.1089 8.0792 35.1153 7.65743 35.142C7.19133 35.1686 6.7285 35.2292 6.27366 35.3233C6.15547 35.3483 6.03727 35.3789 5.91999 35.412C5.80164 35.4455 5.68566 35.4854 5.57268 35.5312C5.45768 35.5769 5.34956 35.6351 5.25083 35.7045C5.2018 35.7396 5.15918 35.7812 5.12446 35.8278C5.08827 35.8738 5.06833 35.9282 5.06718 35.9842C5.06773 36.0402 5.08738 36.0947 5.12355 36.1406C5.15836 36.1874 5.20132 36.229 5.25083 36.2639C5.34886 36.334 5.45674 36.3925 5.57177 36.438C5.685 36.484 5.80128 36.5238 5.91999 36.5572C6.03727 36.5903 6.15456 36.6209 6.27275 36.6459C6.72618 36.7396 7.18744 36.8005 7.65198 36.828C8.07374 36.8547 8.49682 36.8611 8.91937 36.8474C9.28782 36.8362 9.65534 36.8076 10.0204 36.7619C10.6877 36.6765 11.2205 36.5379 11.5487 36.3703C11.6212 36.3334 11.6892 36.2899 11.7515 36.2405C11.7965 36.2038 11.8349 36.1611 11.8651 36.114C11.8882 36.0739 11.9012 36.0299 11.9033 35.985C11.9033 35.985 11.9033 35.9971 11.9033 36.0197C11.8986 36.053 11.8875 36.0855 11.8706 36.1156C11.8408 36.1633 11.8027 36.2065 11.7578 36.2437C11.6955 36.2939 11.6272 36.3379 11.5542 36.3751C11.226 36.5451 10.6932 36.6846 10.024 36.7716C9.65967 36.8182 9.29273 36.8473 8.92483 36.8587C8.5005 36.8735 8.07557 36.8676 7.65198 36.8409C7.18463 36.8147 6.72056 36.754 6.26457 36.6596C6.14637 36.6346 6.02818 36.6048 5.90999 36.5709C5.79095 36.5376 5.67436 36.4977 5.56086 36.4517C5.44455 36.4058 5.33545 36.3467 5.23628 36.276C5.18567 36.2401 5.14178 36.1974 5.10627 36.1494C5.06749 36.1015 5.04663 36.044 5.04663 35.985C5.04663 35.926 5.06749 35.8685 5.10627 35.8206C5.142 35.773 5.18586 35.7305 5.23628 35.6949C5.33545 35.6241 5.44455 35.565 5.56086 35.5192C5.67475 35.473 5.79164 35.4329 5.9109 35.3991C6.02818 35.366 6.14637 35.3354 6.26548 35.3104C6.72127 35.2166 7.185 35.1562 7.65198 35.1299C8.07557 35.1032 8.5005 35.0973 8.92483 35.1121C9.29282 35.1249 9.65976 35.1553 10.024 35.2032C10.6932 35.2903 11.226 35.4297 11.5542 35.5998C11.6272 35.6369 11.6955 35.681 11.7578 35.7311C11.8027 35.7683 11.8408 35.8116 11.8706 35.8593C11.8875 35.8894 11.8986 35.9218 11.9033 35.9552C11.906 35.9737 11.906 35.985 11.906 35.985Z" fill="#263238"/>
<path d="M5.53955 36.197C5.93595 36.4767 7.09698 36.6806 8.46802 36.6806C9.83906 36.6806 11.0001 36.4783 11.3974 36.197C11.0001 35.9182 9.83906 35.7134 8.46802 35.7134C7.09698 35.7134 5.93595 35.9182 5.53955 36.197Z" fill="#6F4439"/>
<path d="M8.5288 36.564C8.51089 36.5515 8.48951 36.5436 8.46697 36.5412C8.4358 36.5396 8.40467 36.5447 8.37605 36.5559C8.37118 36.5567 8.36659 36.5585 8.36264 36.5612C8.3587 36.5639 8.35551 36.5674 8.35332 36.5714C8.34787 36.5861 8.36514 36.6 8.3806 36.6057C8.42208 36.6219 8.46813 36.6262 8.51243 36.6179C8.5297 36.6179 8.55062 36.6049 8.55062 36.5885C8.54934 36.5832 8.54671 36.5782 8.54292 36.574C8.53913 36.5697 8.5343 36.5663 8.5288 36.564Z" fill="#6F4439"/>
<path d="M8.32217 36.6236C8.31452 36.6188 8.30589 36.6154 8.2968 36.6137C8.28342 36.613 8.27005 36.6153 8.25784 36.6203C8.25595 36.6206 8.25415 36.6213 8.25258 36.6223C8.25101 36.6233 8.24971 36.6246 8.24878 36.6261C8.24878 36.6327 8.25422 36.6377 8.26056 36.641C8.27714 36.6474 8.29544 36.6491 8.31311 36.646C8.32035 36.646 8.32851 36.6402 8.32851 36.6336C8.32784 36.6296 8.32558 36.6261 8.32217 36.6236Z" fill="#6F4439"/>
<path d="M11.8164 36.9223C11.8317 36.9167 11.8476 36.9121 11.8637 36.9086L11.7973 36.9247C11.8407 36.9146 11.8852 36.9091 11.9301 36.9086H11.8582C11.9114 36.9086 11.9644 36.9151 12.0155 36.928L11.9464 36.911C12.0047 36.9256 12.0606 36.9467 12.1128 36.9739L12.0528 36.9425C12.1049 36.9704 12.1531 37.0037 12.1965 37.0416L12.1483 36.9989C12.1877 37.0346 12.2222 37.0744 12.251 37.1174L12.2165 37.065C12.2507 37.1173 12.277 37.1734 12.2946 37.2318L12.2765 37.1722C12.2983 37.245 12.3093 37.3201 12.3092 37.3954V37.3318C12.3087 37.425 12.294 37.5177 12.2655 37.6074L12.2846 37.5461C12.2523 37.6487 12.2049 37.7471 12.1437 37.8387L12.1792 37.7855C12.1137 37.884 12.0339 37.9745 11.9419 38.0547L11.991 38.0128C11.9035 38.0881 11.8061 38.1539 11.7009 38.2086L11.76 38.178C11.6544 38.2321 11.5413 38.2738 11.4236 38.3021L11.49 38.286C11.3638 38.3164 11.2336 38.3322 11.1027 38.3328H11.1745C11.064 38.3327 10.9539 38.3214 10.8463 38.2989C10.777 38.2921 10.7074 38.3091 10.6518 38.3465C10.5958 38.385 10.5589 38.4414 10.549 38.5036C10.5401 38.566 10.5591 38.6291 10.6018 38.6793C10.6181 38.6938 10.6336 38.7083 10.6499 38.722C10.6872 38.7483 10.7318 38.7651 10.779 38.7704C10.9363 38.801 11.0976 38.8116 11.2582 38.8018C11.417 38.7924 11.5737 38.7636 11.7237 38.7164C12.0138 38.6247 12.2702 38.4648 12.4656 38.2538C12.5609 38.1513 12.6409 38.0383 12.7038 37.9177C12.7317 37.8655 12.7554 37.8117 12.7747 37.7565C12.8005 37.6824 12.82 37.6067 12.8329 37.53C12.8435 37.4536 12.8468 37.3765 12.8429 37.2995C12.8406 37.2421 12.8315 37.1851 12.8156 37.1295C12.7844 36.9871 12.7129 36.854 12.608 36.7426C12.5031 36.6313 12.3681 36.5453 12.2155 36.4928C12.1423 36.4673 12.0655 36.4505 11.9873 36.4428C11.9371 36.4396 11.8867 36.4396 11.8364 36.4428C11.8089 36.4437 11.7815 36.4467 11.7546 36.4517C11.7055 36.4605 11.6571 36.4727 11.61 36.4879C11.5459 36.5124 11.4949 36.5576 11.4673 36.6145C11.4535 36.6431 11.4463 36.6739 11.4459 36.7051C11.4456 36.7363 11.4522 36.7672 11.4654 36.7961C11.4786 36.825 11.498 36.8513 11.5227 36.8735C11.5474 36.8957 11.5767 36.9134 11.6091 36.9256C11.6759 36.9481 11.7497 36.9481 11.8164 36.9256V36.9223Z" fill="#263238"/>
<path d="M11.7306 36.9417C11.7196 36.9457 11.7079 36.9481 11.6961 36.9489C11.6635 36.9536 11.6304 36.9536 11.5979 36.9489C11.5487 36.9412 11.5039 36.919 11.4706 36.8861C11.451 36.8663 11.4367 36.8429 11.4288 36.8176C11.4232 36.7909 11.4232 36.7636 11.4288 36.737C11.4377 36.6846 11.4564 36.6339 11.4842 36.5871C11.5077 36.5485 11.5418 36.5157 11.5833 36.492C11.6108 36.4766 11.6419 36.467 11.6742 36.4638C11.6863 36.4617 11.6986 36.4617 11.7106 36.4638C11.7106 36.4638 11.6979 36.4638 11.6751 36.4638C11.6427 36.468 11.6117 36.4785 11.5842 36.4944C11.5457 36.5184 11.5145 36.5506 11.4933 36.5879C11.4667 36.6336 11.4489 36.6829 11.4406 36.7337C11.4341 36.7603 11.4341 36.7878 11.4406 36.8143C11.4475 36.8378 11.4602 36.8595 11.4779 36.878C11.5095 36.9088 11.5511 36.9302 11.597 36.9393C11.6268 36.9452 11.6573 36.9477 11.6879 36.9465C11.7017 36.9428 11.7162 36.9412 11.7306 36.9417Z" fill="#263238"/>
<path d="M11.2209 38.332L11.2109 38.3368C11.2004 38.3414 11.1895 38.3449 11.1782 38.3473C11.1377 38.356 11.0956 38.3574 11.0545 38.3513C11.0018 38.3465 10.9418 38.3304 10.8727 38.3191C10.8379 38.3137 10.8025 38.3115 10.7672 38.3127C10.7296 38.3128 10.6927 38.3214 10.6599 38.3376C10.6278 38.3547 10.6026 38.3804 10.5881 38.411C10.5748 38.4401 10.5665 38.4708 10.5636 38.5021C10.5563 38.555 10.5625 38.6087 10.5817 38.6592C10.5962 38.692 10.6216 38.7201 10.6545 38.7398C10.6781 38.7543 10.6945 38.7575 10.6936 38.7592C10.6897 38.7597 10.6857 38.7597 10.6817 38.7592C10.6713 38.757 10.6613 38.7538 10.6517 38.7495C10.6155 38.7298 10.5877 38.7001 10.5726 38.6649C10.5506 38.6135 10.5428 38.5582 10.5499 38.5037C10.5521 38.4707 10.5604 38.4383 10.5745 38.4078C10.5899 38.374 10.6173 38.3457 10.6527 38.3272C10.6878 38.31 10.7271 38.3006 10.7672 38.2998C10.8038 38.2995 10.8403 38.3022 10.8763 38.3078C10.9445 38.3207 11.0036 38.3368 11.0581 38.3433C11.0984 38.3499 11.1397 38.3499 11.18 38.3433C11.2054 38.3368 11.22 38.3304 11.2209 38.332Z" fill="#263238"/>
<g opacity="0.3">
<path d="M11.3973 36.197C11.6365 35.819 11.6155 35.653 11.6519 35.221C11.7156 34.4787 11.2501 33.9016 10.6936 33.7187C10.2991 33.5889 9.84446 33.6808 9.46442 33.4817C9.34922 33.4235 9.26145 33.3305 9.21713 33.2198C9.12621 32.978 9.30804 32.8265 9.44624 32.6677C9.6324 32.451 9.75837 32.1985 9.81397 31.9307C9.86957 31.6628 9.85323 31.3871 9.76627 31.1259C9.70573 30.914 9.56359 30.7276 9.36441 30.5988C9.23019 30.5211 9.06741 30.4923 8.90982 30.5182C8.88274 30.5239 8.85765 30.5354 8.83678 30.5517C8.81591 30.568 8.79991 30.5886 8.7902 30.6118C8.78049 30.6349 8.77736 30.6598 8.7811 30.6842C8.78484 30.7087 8.79533 30.7319 8.81163 30.7519C9.06893 31.0864 9.03165 31.5917 8.69708 31.8746C8.42432 32.1075 8.02428 32.1752 7.65061 32.2325C7.22329 32.2961 6.76598 32.3711 6.48777 32.6862C6.4165 32.7632 6.36797 32.8548 6.34654 32.9525C6.32511 33.0503 6.33147 33.1513 6.36503 33.2464C6.5705 33.7888 7.44332 33.4591 7.65061 33.8863C7.69099 33.9763 7.6959 34.0757 7.66455 34.1684C7.63319 34.2612 7.56741 34.3418 7.47786 34.3973C7.11419 34.631 6.67779 34.714 6.27502 34.8672C5.96954 34.9832 5.67223 35.1492 5.50767 35.4047C5.34311 35.6602 5.3522 36.0205 5.59859 36.2171C5.59859 36.2171 7.1351 36.6459 8.7989 36.579C10.4627 36.5121 11.3973 36.197 11.3973 36.197Z" fill="#E0E0E0"/>
</g>
<defs>
<linearGradient id="paint0_linear_500_502" x1="9" y1="23.3043" x2="60.0714" y2="23.3043" gradientUnits="userSpaceOnUse">
<stop stop-color="#5483B3"/>
<stop offset="1" stop-color="#24384D" stop-opacity="0.86"/>
</linearGradient>
</defs>
</svg>
